%TF.GenerationSoftware,KiCad,Pcbnew,(5.1.12)-1*%
%TF.CreationDate,2022-01-30T22:31:33-08:00*%
%TF.ProjectId,ortho40,6f727468-6f34-4302-9e6b-696361645f70,rev?*%
%TF.SameCoordinates,Original*%
%TF.FileFunction,Legend,Top*%
%TF.FilePolarity,Positive*%
%FSLAX46Y46*%
G04 Gerber Fmt 4.6, Leading zero omitted, Abs format (unit mm)*
G04 Created by KiCad (PCBNEW (5.1.12)-1) date 2022-01-30 22:31:33*
%MOMM*%
%LPD*%
G01*
G04 APERTURE LIST*
%ADD10C,0.500000*%
%ADD11C,0.150000*%
%ADD12C,0.100000*%
G04 APERTURE END LIST*
D10*
X110728590Y46434570D02*
X110728590Y44053310D01*
X-53578350Y46434570D02*
X-53578350Y44053310D01*
D11*
X-101019047Y39847619D02*
X-101019047Y39133333D01*
X-101066666Y38990476D01*
X-101161904Y38895238D01*
X-101304761Y38847619D01*
X-101400000Y38847619D01*
X-100066666Y38847619D02*
X-100542857Y38847619D01*
X-100542857Y39847619D01*
X-99161904Y38942857D02*
X-99209523Y38895238D01*
X-99352380Y38847619D01*
X-99447619Y38847619D01*
X-99590476Y38895238D01*
X-99685714Y38990476D01*
X-99733333Y39085714D01*
X-99780952Y39276190D01*
X-99780952Y39419047D01*
X-99733333Y39609523D01*
X-99685714Y39704761D01*
X-99590476Y39800000D01*
X-99447619Y39847619D01*
X-99352380Y39847619D01*
X-99209523Y39800000D01*
X-99161904Y39752380D01*
X-98447619Y39847619D02*
X-98447619Y39133333D01*
X-98495238Y38990476D01*
X-98590476Y38895238D01*
X-98733333Y38847619D01*
X-98828571Y38847619D01*
X-97495238Y38847619D02*
X-97971428Y38847619D01*
X-97971428Y39847619D01*
X-96590476Y38942857D02*
X-96638095Y38895238D01*
X-96780952Y38847619D01*
X-96876190Y38847619D01*
X-97019047Y38895238D01*
X-97114285Y38990476D01*
X-97161904Y39085714D01*
X-97209523Y39276190D01*
X-97209523Y39419047D01*
X-97161904Y39609523D01*
X-97114285Y39704761D01*
X-97019047Y39800000D01*
X-96876190Y39847619D01*
X-96780952Y39847619D01*
X-96638095Y39800000D01*
X-96590476Y39752380D01*
X-95876190Y39847619D02*
X-95876190Y39133333D01*
X-95923809Y38990476D01*
X-96019047Y38895238D01*
X-96161904Y38847619D01*
X-96257142Y38847619D01*
X-94923809Y38847619D02*
X-95400000Y38847619D01*
X-95400000Y39847619D01*
X-94019047Y38942857D02*
X-94066666Y38895238D01*
X-94209523Y38847619D01*
X-94304761Y38847619D01*
X-94447619Y38895238D01*
X-94542857Y38990476D01*
X-94590476Y39085714D01*
X-94638095Y39276190D01*
X-94638095Y39419047D01*
X-94590476Y39609523D01*
X-94542857Y39704761D01*
X-94447619Y39800000D01*
X-94304761Y39847619D01*
X-94209523Y39847619D01*
X-94066666Y39800000D01*
X-94019047Y39752380D01*
X-93304761Y39847619D02*
X-93304761Y39133333D01*
X-93352380Y38990476D01*
X-93447619Y38895238D01*
X-93590476Y38847619D01*
X-93685714Y38847619D01*
X-92352380Y38847619D02*
X-92828571Y38847619D01*
X-92828571Y39847619D01*
X-91447619Y38942857D02*
X-91495238Y38895238D01*
X-91638095Y38847619D01*
X-91733333Y38847619D01*
X-91876190Y38895238D01*
X-91971428Y38990476D01*
X-92019047Y39085714D01*
X-92066666Y39276190D01*
X-92066666Y39419047D01*
X-92019047Y39609523D01*
X-91971428Y39704761D01*
X-91876190Y39800000D01*
X-91733333Y39847619D01*
X-91638095Y39847619D01*
X-91495238Y39800000D01*
X-91447619Y39752380D01*
D10*
X7143780Y46434570D02*
X7143780Y44053310D01*
X-26193860Y45243940D02*
G75*
G03*
X-26193860Y45243940I-1190630J0D01*
G01*
D11*
X-82145238Y42543071D02*
X-82097619Y42447833D01*
X-82097619Y42257357D01*
X-82145238Y42162119D01*
X-82192857Y42114500D01*
X-82288095Y42066880D01*
X-82573809Y42066880D01*
X-82669047Y42114500D01*
X-82716666Y42162119D01*
X-82764285Y42257357D01*
X-82764285Y42447833D01*
X-82716666Y42543071D01*
X-82097619Y43114500D02*
X-82145238Y43019261D01*
X-82192857Y42971642D01*
X-82288095Y42924023D01*
X-82573809Y42924023D01*
X-82669047Y42971642D01*
X-82716666Y43019261D01*
X-82764285Y43114500D01*
X-82764285Y43257357D01*
X-82716666Y43352595D01*
X-82669047Y43400214D01*
X-82573809Y43447833D01*
X-82288095Y43447833D01*
X-82192857Y43400214D01*
X-82145238Y43352595D01*
X-82097619Y43257357D01*
X-82097619Y43114500D01*
X-82097619Y44019261D02*
X-82145238Y43924023D01*
X-82240476Y43876404D01*
X-83097619Y43876404D01*
X-83097619Y44304976D02*
X-83097619Y44924023D01*
X-82716666Y44590690D01*
X-82716666Y44733547D01*
X-82669047Y44828785D01*
X-82621428Y44876404D01*
X-82526190Y44924023D01*
X-82288095Y44924023D01*
X-82192857Y44876404D01*
X-82145238Y44828785D01*
X-82097619Y44733547D01*
X-82097619Y44447833D01*
X-82145238Y44352595D01*
X-82192857Y44304976D01*
X-84685238Y42797071D02*
X-84637619Y42701833D01*
X-84637619Y42511357D01*
X-84685238Y42416119D01*
X-84732857Y42368500D01*
X-84828095Y42320880D01*
X-85113809Y42320880D01*
X-85209047Y42368500D01*
X-85256666Y42416119D01*
X-85304285Y42511357D01*
X-85304285Y42701833D01*
X-85256666Y42797071D01*
X-84637619Y43368500D02*
X-84685238Y43273261D01*
X-84732857Y43225642D01*
X-84828095Y43178023D01*
X-85113809Y43178023D01*
X-85209047Y43225642D01*
X-85256666Y43273261D01*
X-85304285Y43368500D01*
X-85304285Y43511357D01*
X-85256666Y43606595D01*
X-85209047Y43654214D01*
X-85113809Y43701833D01*
X-84828095Y43701833D01*
X-84732857Y43654214D01*
X-84685238Y43606595D01*
X-84637619Y43511357D01*
X-84637619Y43368500D01*
X-84637619Y44273261D02*
X-84685238Y44178023D01*
X-84780476Y44130404D01*
X-85637619Y44130404D01*
X-85542380Y44606595D02*
X-85590000Y44654214D01*
X-85637619Y44749452D01*
X-85637619Y44987547D01*
X-85590000Y45082785D01*
X-85542380Y45130404D01*
X-85447142Y45178023D01*
X-85351904Y45178023D01*
X-85209047Y45130404D01*
X-84637619Y44558976D01*
X-84637619Y45178023D01*
X-87225238Y42797071D02*
X-87177619Y42701833D01*
X-87177619Y42511357D01*
X-87225238Y42416119D01*
X-87272857Y42368500D01*
X-87368095Y42320880D01*
X-87653809Y42320880D01*
X-87749047Y42368500D01*
X-87796666Y42416119D01*
X-87844285Y42511357D01*
X-87844285Y42701833D01*
X-87796666Y42797071D01*
X-87177619Y43368500D02*
X-87225238Y43273261D01*
X-87272857Y43225642D01*
X-87368095Y43178023D01*
X-87653809Y43178023D01*
X-87749047Y43225642D01*
X-87796666Y43273261D01*
X-87844285Y43368500D01*
X-87844285Y43511357D01*
X-87796666Y43606595D01*
X-87749047Y43654214D01*
X-87653809Y43701833D01*
X-87368095Y43701833D01*
X-87272857Y43654214D01*
X-87225238Y43606595D01*
X-87177619Y43511357D01*
X-87177619Y43368500D01*
X-87177619Y44273261D02*
X-87225238Y44178023D01*
X-87320476Y44130404D01*
X-88177619Y44130404D01*
X-87177619Y45178023D02*
X-87177619Y44606595D01*
X-87177619Y44892309D02*
X-88177619Y44892309D01*
X-88034761Y44797071D01*
X-87939523Y44701833D01*
X-87891904Y44606595D01*
X-89765238Y42797071D02*
X-89717619Y42701833D01*
X-89717619Y42511357D01*
X-89765238Y42416119D01*
X-89812857Y42368500D01*
X-89908095Y42320880D01*
X-90193809Y42320880D01*
X-90289047Y42368500D01*
X-90336666Y42416119D01*
X-90384285Y42511357D01*
X-90384285Y42701833D01*
X-90336666Y42797071D01*
X-89717619Y43368500D02*
X-89765238Y43273261D01*
X-89812857Y43225642D01*
X-89908095Y43178023D01*
X-90193809Y43178023D01*
X-90289047Y43225642D01*
X-90336666Y43273261D01*
X-90384285Y43368500D01*
X-90384285Y43511357D01*
X-90336666Y43606595D01*
X-90289047Y43654214D01*
X-90193809Y43701833D01*
X-89908095Y43701833D01*
X-89812857Y43654214D01*
X-89765238Y43606595D01*
X-89717619Y43511357D01*
X-89717619Y43368500D01*
X-89717619Y44273261D02*
X-89765238Y44178023D01*
X-89860476Y44130404D01*
X-90717619Y44130404D01*
X-90717619Y44844690D02*
X-90717619Y44939928D01*
X-90670000Y45035166D01*
X-90622380Y45082785D01*
X-90527142Y45130404D01*
X-90336666Y45178023D01*
X-90098571Y45178023D01*
X-89908095Y45130404D01*
X-89812857Y45082785D01*
X-89765238Y45035166D01*
X-89717619Y44939928D01*
X-89717619Y44844690D01*
X-89765238Y44749452D01*
X-89812857Y44701833D01*
X-89908095Y44654214D01*
X-90098571Y44606595D01*
X-90336666Y44606595D01*
X-90527142Y44654214D01*
X-90622380Y44701833D01*
X-90670000Y44749452D01*
X-90717619Y44844690D01*
X-92257619Y42082785D02*
X-92924285Y42082785D01*
X-92733809Y42082785D02*
X-92829047Y42130404D01*
X-92876666Y42178023D01*
X-92924285Y42273261D01*
X-92924285Y42368500D01*
X-92257619Y42844690D02*
X-92305238Y42749452D01*
X-92352857Y42701833D01*
X-92448095Y42654214D01*
X-92733809Y42654214D01*
X-92829047Y42701833D01*
X-92876666Y42749452D01*
X-92924285Y42844690D01*
X-92924285Y42987547D01*
X-92876666Y43082785D01*
X-92829047Y43130404D01*
X-92733809Y43178023D01*
X-92448095Y43178023D01*
X-92352857Y43130404D01*
X-92305238Y43082785D01*
X-92257619Y42987547D01*
X-92257619Y42844690D01*
X-92924285Y43511357D02*
X-92257619Y43701833D01*
X-92733809Y43892309D01*
X-92257619Y44082785D01*
X-92924285Y44273261D01*
X-93257619Y44558976D02*
X-93257619Y45178023D01*
X-92876666Y44844690D01*
X-92876666Y44987547D01*
X-92829047Y45082785D01*
X-92781428Y45130404D01*
X-92686190Y45178023D01*
X-92448095Y45178023D01*
X-92352857Y45130404D01*
X-92305238Y45082785D01*
X-92257619Y44987547D01*
X-92257619Y44701833D01*
X-92305238Y44606595D01*
X-92352857Y44558976D01*
X-94797619Y42082785D02*
X-95464285Y42082785D01*
X-95273809Y42082785D02*
X-95369047Y42130404D01*
X-95416666Y42178023D01*
X-95464285Y42273261D01*
X-95464285Y42368500D01*
X-94797619Y42844690D02*
X-94845238Y42749452D01*
X-94892857Y42701833D01*
X-94988095Y42654214D01*
X-95273809Y42654214D01*
X-95369047Y42701833D01*
X-95416666Y42749452D01*
X-95464285Y42844690D01*
X-95464285Y42987547D01*
X-95416666Y43082785D01*
X-95369047Y43130404D01*
X-95273809Y43178023D01*
X-94988095Y43178023D01*
X-94892857Y43130404D01*
X-94845238Y43082785D01*
X-94797619Y42987547D01*
X-94797619Y42844690D01*
X-95464285Y43511357D02*
X-94797619Y43701833D01*
X-95273809Y43892309D01*
X-94797619Y44082785D01*
X-95464285Y44273261D01*
X-95702380Y44606595D02*
X-95750000Y44654214D01*
X-95797619Y44749452D01*
X-95797619Y44987547D01*
X-95750000Y45082785D01*
X-95702380Y45130404D01*
X-95607142Y45178023D01*
X-95511904Y45178023D01*
X-95369047Y45130404D01*
X-94797619Y44558976D01*
X-94797619Y45178023D01*
X-97337619Y42082785D02*
X-98004285Y42082785D01*
X-97813809Y42082785D02*
X-97909047Y42130404D01*
X-97956666Y42178023D01*
X-98004285Y42273261D01*
X-98004285Y42368500D01*
X-97337619Y42844690D02*
X-97385238Y42749452D01*
X-97432857Y42701833D01*
X-97528095Y42654214D01*
X-97813809Y42654214D01*
X-97909047Y42701833D01*
X-97956666Y42749452D01*
X-98004285Y42844690D01*
X-98004285Y42987547D01*
X-97956666Y43082785D01*
X-97909047Y43130404D01*
X-97813809Y43178023D01*
X-97528095Y43178023D01*
X-97432857Y43130404D01*
X-97385238Y43082785D01*
X-97337619Y42987547D01*
X-97337619Y42844690D01*
X-98004285Y43511357D02*
X-97337619Y43701833D01*
X-97813809Y43892309D01*
X-97337619Y44082785D01*
X-98004285Y44273261D01*
X-97337619Y45178023D02*
X-97337619Y44606595D01*
X-97337619Y44892309D02*
X-98337619Y44892309D01*
X-98194761Y44797071D01*
X-98099523Y44701833D01*
X-98051904Y44606595D01*
X-99877619Y42082785D02*
X-100544285Y42082785D01*
X-100353809Y42082785D02*
X-100449047Y42130404D01*
X-100496666Y42178023D01*
X-100544285Y42273261D01*
X-100544285Y42368500D01*
X-99877619Y42844690D02*
X-99925238Y42749452D01*
X-99972857Y42701833D01*
X-100068095Y42654214D01*
X-100353809Y42654214D01*
X-100449047Y42701833D01*
X-100496666Y42749452D01*
X-100544285Y42844690D01*
X-100544285Y42987547D01*
X-100496666Y43082785D01*
X-100449047Y43130404D01*
X-100353809Y43178023D01*
X-100068095Y43178023D01*
X-99972857Y43130404D01*
X-99925238Y43082785D01*
X-99877619Y42987547D01*
X-99877619Y42844690D01*
X-100544285Y43511357D02*
X-99877619Y43701833D01*
X-100353809Y43892309D01*
X-99877619Y44082785D01*
X-100544285Y44273261D01*
X-100877619Y44844690D02*
X-100877619Y44939928D01*
X-100830000Y45035166D01*
X-100782380Y45082785D01*
X-100687142Y45130404D01*
X-100496666Y45178023D01*
X-100258571Y45178023D01*
X-100068095Y45130404D01*
X-99972857Y45082785D01*
X-99925238Y45035166D01*
X-99877619Y44939928D01*
X-99877619Y44844690D01*
X-99925238Y44749452D01*
X-99972857Y44701833D01*
X-100068095Y44654214D01*
X-100258571Y44606595D01*
X-100496666Y44606595D01*
X-100687142Y44654214D01*
X-100782380Y44701833D01*
X-100830000Y44749452D01*
X-100877619Y44844690D01*
X-107497619Y42761904D02*
X-107545238Y42666666D01*
X-107640476Y42619047D01*
X-108497619Y42619047D01*
X-107545238Y43523809D02*
X-107497619Y43428571D01*
X-107497619Y43238095D01*
X-107545238Y43142857D01*
X-107640476Y43095238D01*
X-108021428Y43095238D01*
X-108116666Y43142857D01*
X-108164285Y43238095D01*
X-108164285Y43428571D01*
X-108116666Y43523809D01*
X-108021428Y43571428D01*
X-107926190Y43571428D01*
X-107830952Y43095238D01*
X-107497619Y44428571D02*
X-108497619Y44428571D01*
X-107545238Y44428571D02*
X-107497619Y44333333D01*
X-107497619Y44142857D01*
X-107545238Y44047619D01*
X-107592857Y44000000D01*
X-107688095Y43952380D01*
X-107973809Y43952380D01*
X-108069047Y44000000D01*
X-108116666Y44047619D01*
X-108164285Y44142857D01*
X-108164285Y44333333D01*
X-108116666Y44428571D01*
X-108402380Y44857142D02*
X-108450000Y44904761D01*
X-108497619Y45000000D01*
X-108497619Y45238095D01*
X-108450000Y45333333D01*
X-108402380Y45380952D01*
X-108307142Y45428571D01*
X-108211904Y45428571D01*
X-108069047Y45380952D01*
X-107497619Y44809523D01*
X-107497619Y45428571D01*
X-110037619Y42765357D02*
X-110085238Y42670119D01*
X-110180476Y42622500D01*
X-111037619Y42622500D01*
X-110085238Y43527261D02*
X-110037619Y43432023D01*
X-110037619Y43241547D01*
X-110085238Y43146309D01*
X-110180476Y43098690D01*
X-110561428Y43098690D01*
X-110656666Y43146309D01*
X-110704285Y43241547D01*
X-110704285Y43432023D01*
X-110656666Y43527261D01*
X-110561428Y43574880D01*
X-110466190Y43574880D01*
X-110370952Y43098690D01*
X-110037619Y44432023D02*
X-111037619Y44432023D01*
X-110085238Y44432023D02*
X-110037619Y44336785D01*
X-110037619Y44146309D01*
X-110085238Y44051071D01*
X-110132857Y44003452D01*
X-110228095Y43955833D01*
X-110513809Y43955833D01*
X-110609047Y44003452D01*
X-110656666Y44051071D01*
X-110704285Y44146309D01*
X-110704285Y44336785D01*
X-110656666Y44432023D01*
X-110037619Y45432023D02*
X-110037619Y44860595D01*
X-110037619Y45146309D02*
X-111037619Y45146309D01*
X-110894761Y45051071D01*
X-110799523Y44955833D01*
X-110751904Y44860595D01*
X-82145238Y33784166D02*
X-82097619Y33688928D01*
X-82097619Y33498452D01*
X-82145238Y33403214D01*
X-82192857Y33355595D01*
X-82288095Y33307976D01*
X-82573809Y33307976D01*
X-82669047Y33355595D01*
X-82716666Y33403214D01*
X-82764285Y33498452D01*
X-82764285Y33688928D01*
X-82716666Y33784166D01*
X-82097619Y34355595D02*
X-82145238Y34260357D01*
X-82192857Y34212738D01*
X-82288095Y34165119D01*
X-82573809Y34165119D01*
X-82669047Y34212738D01*
X-82716666Y34260357D01*
X-82764285Y34355595D01*
X-82764285Y34498452D01*
X-82716666Y34593690D01*
X-82669047Y34641309D01*
X-82573809Y34688928D01*
X-82288095Y34688928D01*
X-82192857Y34641309D01*
X-82145238Y34593690D01*
X-82097619Y34498452D01*
X-82097619Y34355595D01*
X-82097619Y35260357D02*
X-82145238Y35165119D01*
X-82240476Y35117500D01*
X-83097619Y35117500D01*
X-82097619Y36165119D02*
X-82097619Y35593690D01*
X-82097619Y35879404D02*
X-83097619Y35879404D01*
X-82954761Y35784166D01*
X-82859523Y35688928D01*
X-82811904Y35593690D01*
X-82097619Y37117500D02*
X-82097619Y36546071D01*
X-82097619Y36831785D02*
X-83097619Y36831785D01*
X-82954761Y36736547D01*
X-82859523Y36641309D01*
X-82811904Y36546071D01*
X-84685238Y33784166D02*
X-84637619Y33688928D01*
X-84637619Y33498452D01*
X-84685238Y33403214D01*
X-84732857Y33355595D01*
X-84828095Y33307976D01*
X-85113809Y33307976D01*
X-85209047Y33355595D01*
X-85256666Y33403214D01*
X-85304285Y33498452D01*
X-85304285Y33688928D01*
X-85256666Y33784166D01*
X-84637619Y34355595D02*
X-84685238Y34260357D01*
X-84732857Y34212738D01*
X-84828095Y34165119D01*
X-85113809Y34165119D01*
X-85209047Y34212738D01*
X-85256666Y34260357D01*
X-85304285Y34355595D01*
X-85304285Y34498452D01*
X-85256666Y34593690D01*
X-85209047Y34641309D01*
X-85113809Y34688928D01*
X-84828095Y34688928D01*
X-84732857Y34641309D01*
X-84685238Y34593690D01*
X-84637619Y34498452D01*
X-84637619Y34355595D01*
X-84637619Y35260357D02*
X-84685238Y35165119D01*
X-84780476Y35117500D01*
X-85637619Y35117500D01*
X-84637619Y36165119D02*
X-84637619Y35593690D01*
X-84637619Y35879404D02*
X-85637619Y35879404D01*
X-85494761Y35784166D01*
X-85399523Y35688928D01*
X-85351904Y35593690D01*
X-85637619Y36784166D02*
X-85637619Y36879404D01*
X-85590000Y36974642D01*
X-85542380Y37022261D01*
X-85447142Y37069880D01*
X-85256666Y37117500D01*
X-85018571Y37117500D01*
X-84828095Y37069880D01*
X-84732857Y37022261D01*
X-84685238Y36974642D01*
X-84637619Y36879404D01*
X-84637619Y36784166D01*
X-84685238Y36688928D01*
X-84732857Y36641309D01*
X-84828095Y36593690D01*
X-85018571Y36546071D01*
X-85256666Y36546071D01*
X-85447142Y36593690D01*
X-85542380Y36641309D01*
X-85590000Y36688928D01*
X-85637619Y36784166D01*
X-87225238Y33784166D02*
X-87177619Y33688928D01*
X-87177619Y33498452D01*
X-87225238Y33403214D01*
X-87272857Y33355595D01*
X-87368095Y33307976D01*
X-87653809Y33307976D01*
X-87749047Y33355595D01*
X-87796666Y33403214D01*
X-87844285Y33498452D01*
X-87844285Y33688928D01*
X-87796666Y33784166D01*
X-87177619Y34355595D02*
X-87225238Y34260357D01*
X-87272857Y34212738D01*
X-87368095Y34165119D01*
X-87653809Y34165119D01*
X-87749047Y34212738D01*
X-87796666Y34260357D01*
X-87844285Y34355595D01*
X-87844285Y34498452D01*
X-87796666Y34593690D01*
X-87749047Y34641309D01*
X-87653809Y34688928D01*
X-87368095Y34688928D01*
X-87272857Y34641309D01*
X-87225238Y34593690D01*
X-87177619Y34498452D01*
X-87177619Y34355595D01*
X-87177619Y35260357D02*
X-87225238Y35165119D01*
X-87320476Y35117500D01*
X-88177619Y35117500D01*
X-87177619Y35688928D02*
X-87177619Y35879404D01*
X-87225238Y35974642D01*
X-87272857Y36022261D01*
X-87415714Y36117500D01*
X-87606190Y36165119D01*
X-87987142Y36165119D01*
X-88082380Y36117500D01*
X-88130000Y36069880D01*
X-88177619Y35974642D01*
X-88177619Y35784166D01*
X-88130000Y35688928D01*
X-88082380Y35641309D01*
X-87987142Y35593690D01*
X-87749047Y35593690D01*
X-87653809Y35641309D01*
X-87606190Y35688928D01*
X-87558571Y35784166D01*
X-87558571Y35974642D01*
X-87606190Y36069880D01*
X-87653809Y36117500D01*
X-87749047Y36165119D01*
X-89765238Y33784166D02*
X-89717619Y33688928D01*
X-89717619Y33498452D01*
X-89765238Y33403214D01*
X-89812857Y33355595D01*
X-89908095Y33307976D01*
X-90193809Y33307976D01*
X-90289047Y33355595D01*
X-90336666Y33403214D01*
X-90384285Y33498452D01*
X-90384285Y33688928D01*
X-90336666Y33784166D01*
X-89717619Y34355595D02*
X-89765238Y34260357D01*
X-89812857Y34212738D01*
X-89908095Y34165119D01*
X-90193809Y34165119D01*
X-90289047Y34212738D01*
X-90336666Y34260357D01*
X-90384285Y34355595D01*
X-90384285Y34498452D01*
X-90336666Y34593690D01*
X-90289047Y34641309D01*
X-90193809Y34688928D01*
X-89908095Y34688928D01*
X-89812857Y34641309D01*
X-89765238Y34593690D01*
X-89717619Y34498452D01*
X-89717619Y34355595D01*
X-89717619Y35260357D02*
X-89765238Y35165119D01*
X-89860476Y35117500D01*
X-90717619Y35117500D01*
X-90289047Y35784166D02*
X-90336666Y35688928D01*
X-90384285Y35641309D01*
X-90479523Y35593690D01*
X-90527142Y35593690D01*
X-90622380Y35641309D01*
X-90670000Y35688928D01*
X-90717619Y35784166D01*
X-90717619Y35974642D01*
X-90670000Y36069880D01*
X-90622380Y36117500D01*
X-90527142Y36165119D01*
X-90479523Y36165119D01*
X-90384285Y36117500D01*
X-90336666Y36069880D01*
X-90289047Y35974642D01*
X-90289047Y35784166D01*
X-90241428Y35688928D01*
X-90193809Y35641309D01*
X-90098571Y35593690D01*
X-89908095Y35593690D01*
X-89812857Y35641309D01*
X-89765238Y35688928D01*
X-89717619Y35784166D01*
X-89717619Y35974642D01*
X-89765238Y36069880D01*
X-89812857Y36117500D01*
X-89908095Y36165119D01*
X-90098571Y36165119D01*
X-90193809Y36117500D01*
X-90241428Y36069880D01*
X-90289047Y35974642D01*
X-92305238Y33784166D02*
X-92257619Y33688928D01*
X-92257619Y33498452D01*
X-92305238Y33403214D01*
X-92352857Y33355595D01*
X-92448095Y33307976D01*
X-92733809Y33307976D01*
X-92829047Y33355595D01*
X-92876666Y33403214D01*
X-92924285Y33498452D01*
X-92924285Y33688928D01*
X-92876666Y33784166D01*
X-92257619Y34355595D02*
X-92305238Y34260357D01*
X-92352857Y34212738D01*
X-92448095Y34165119D01*
X-92733809Y34165119D01*
X-92829047Y34212738D01*
X-92876666Y34260357D01*
X-92924285Y34355595D01*
X-92924285Y34498452D01*
X-92876666Y34593690D01*
X-92829047Y34641309D01*
X-92733809Y34688928D01*
X-92448095Y34688928D01*
X-92352857Y34641309D01*
X-92305238Y34593690D01*
X-92257619Y34498452D01*
X-92257619Y34355595D01*
X-92257619Y35260357D02*
X-92305238Y35165119D01*
X-92400476Y35117500D01*
X-93257619Y35117500D01*
X-93257619Y35546071D02*
X-93257619Y36212738D01*
X-92257619Y35784166D01*
X-94845238Y33784166D02*
X-94797619Y33688928D01*
X-94797619Y33498452D01*
X-94845238Y33403214D01*
X-94892857Y33355595D01*
X-94988095Y33307976D01*
X-95273809Y33307976D01*
X-95369047Y33355595D01*
X-95416666Y33403214D01*
X-95464285Y33498452D01*
X-95464285Y33688928D01*
X-95416666Y33784166D01*
X-94797619Y34355595D02*
X-94845238Y34260357D01*
X-94892857Y34212738D01*
X-94988095Y34165119D01*
X-95273809Y34165119D01*
X-95369047Y34212738D01*
X-95416666Y34260357D01*
X-95464285Y34355595D01*
X-95464285Y34498452D01*
X-95416666Y34593690D01*
X-95369047Y34641309D01*
X-95273809Y34688928D01*
X-94988095Y34688928D01*
X-94892857Y34641309D01*
X-94845238Y34593690D01*
X-94797619Y34498452D01*
X-94797619Y34355595D01*
X-94797619Y35260357D02*
X-94845238Y35165119D01*
X-94940476Y35117500D01*
X-95797619Y35117500D01*
X-95797619Y36069880D02*
X-95797619Y35879404D01*
X-95750000Y35784166D01*
X-95702380Y35736547D01*
X-95559523Y35641309D01*
X-95369047Y35593690D01*
X-94988095Y35593690D01*
X-94892857Y35641309D01*
X-94845238Y35688928D01*
X-94797619Y35784166D01*
X-94797619Y35974642D01*
X-94845238Y36069880D01*
X-94892857Y36117500D01*
X-94988095Y36165119D01*
X-95226190Y36165119D01*
X-95321428Y36117500D01*
X-95369047Y36069880D01*
X-95416666Y35974642D01*
X-95416666Y35784166D01*
X-95369047Y35688928D01*
X-95321428Y35641309D01*
X-95226190Y35593690D01*
X-97385238Y33784166D02*
X-97337619Y33688928D01*
X-97337619Y33498452D01*
X-97385238Y33403214D01*
X-97432857Y33355595D01*
X-97528095Y33307976D01*
X-97813809Y33307976D01*
X-97909047Y33355595D01*
X-97956666Y33403214D01*
X-98004285Y33498452D01*
X-98004285Y33688928D01*
X-97956666Y33784166D01*
X-97337619Y34355595D02*
X-97385238Y34260357D01*
X-97432857Y34212738D01*
X-97528095Y34165119D01*
X-97813809Y34165119D01*
X-97909047Y34212738D01*
X-97956666Y34260357D01*
X-98004285Y34355595D01*
X-98004285Y34498452D01*
X-97956666Y34593690D01*
X-97909047Y34641309D01*
X-97813809Y34688928D01*
X-97528095Y34688928D01*
X-97432857Y34641309D01*
X-97385238Y34593690D01*
X-97337619Y34498452D01*
X-97337619Y34355595D01*
X-97337619Y35260357D02*
X-97385238Y35165119D01*
X-97480476Y35117500D01*
X-98337619Y35117500D01*
X-98337619Y36117500D02*
X-98337619Y35641309D01*
X-97861428Y35593690D01*
X-97909047Y35641309D01*
X-97956666Y35736547D01*
X-97956666Y35974642D01*
X-97909047Y36069880D01*
X-97861428Y36117500D01*
X-97766190Y36165119D01*
X-97528095Y36165119D01*
X-97432857Y36117500D01*
X-97385238Y36069880D01*
X-97337619Y35974642D01*
X-97337619Y35736547D01*
X-97385238Y35641309D01*
X-97432857Y35593690D01*
X-99925238Y33784166D02*
X-99877619Y33688928D01*
X-99877619Y33498452D01*
X-99925238Y33403214D01*
X-99972857Y33355595D01*
X-100068095Y33307976D01*
X-100353809Y33307976D01*
X-100449047Y33355595D01*
X-100496666Y33403214D01*
X-100544285Y33498452D01*
X-100544285Y33688928D01*
X-100496666Y33784166D01*
X-99877619Y34355595D02*
X-99925238Y34260357D01*
X-99972857Y34212738D01*
X-100068095Y34165119D01*
X-100353809Y34165119D01*
X-100449047Y34212738D01*
X-100496666Y34260357D01*
X-100544285Y34355595D01*
X-100544285Y34498452D01*
X-100496666Y34593690D01*
X-100449047Y34641309D01*
X-100353809Y34688928D01*
X-100068095Y34688928D01*
X-99972857Y34641309D01*
X-99925238Y34593690D01*
X-99877619Y34498452D01*
X-99877619Y34355595D01*
X-99877619Y35260357D02*
X-99925238Y35165119D01*
X-100020476Y35117500D01*
X-100877619Y35117500D01*
X-100544285Y36069880D02*
X-99877619Y36069880D01*
X-100925238Y35831785D02*
X-100210952Y35593690D01*
X-100210952Y36212738D01*
X-104722899Y33927023D02*
X-105199089Y33593690D01*
X-104722899Y33355595D02*
X-105722899Y33355595D01*
X-105722899Y33736547D01*
X-105675280Y33831785D01*
X-105627660Y33879404D01*
X-105532422Y33927023D01*
X-105389565Y33927023D01*
X-105294327Y33879404D01*
X-105246708Y33831785D01*
X-105199089Y33736547D01*
X-105199089Y33355595D01*
X-104770518Y34307976D02*
X-104722899Y34450833D01*
X-104722899Y34688928D01*
X-104770518Y34784166D01*
X-104818137Y34831785D01*
X-104913375Y34879404D01*
X-105008613Y34879404D01*
X-105103851Y34831785D01*
X-105151470Y34784166D01*
X-105199089Y34688928D01*
X-105246708Y34498452D01*
X-105294327Y34403214D01*
X-105341946Y34355595D01*
X-105437184Y34307976D01*
X-105532422Y34307976D01*
X-105627660Y34355595D01*
X-105675280Y34403214D01*
X-105722899Y34498452D01*
X-105722899Y34736547D01*
X-105675280Y34879404D01*
X-105722899Y35165119D02*
X-105722899Y35736547D01*
X-104722899Y35450833D02*
X-105722899Y35450833D01*
X-108196000Y33879404D02*
X-108243619Y33784166D01*
X-108243619Y33641309D01*
X-108196000Y33498452D01*
X-108100761Y33403214D01*
X-108005523Y33355595D01*
X-107815047Y33307976D01*
X-107672190Y33307976D01*
X-107481714Y33355595D01*
X-107386476Y33403214D01*
X-107291238Y33498452D01*
X-107243619Y33641309D01*
X-107243619Y33736547D01*
X-107291238Y33879404D01*
X-107338857Y33927023D01*
X-107672190Y33927023D01*
X-107672190Y33736547D01*
X-107243619Y34355595D02*
X-108243619Y34355595D01*
X-107243619Y34927023D01*
X-108243619Y34927023D01*
X-107243619Y35403214D02*
X-108243619Y35403214D01*
X-108243619Y35641309D01*
X-108196000Y35784166D01*
X-108100761Y35879404D01*
X-108005523Y35927023D01*
X-107815047Y35974642D01*
X-107672190Y35974642D01*
X-107481714Y35927023D01*
X-107386476Y35879404D01*
X-107291238Y35784166D01*
X-107243619Y35641309D01*
X-107243619Y35403214D01*
D10*
X90487880Y46434570D02*
X90487880Y44053310D01*
X70247170Y46434570D02*
X70247170Y44053310D01*
X54768980Y46434570D02*
X54768980Y44053310D01*
X32147010Y46434570D02*
X32147010Y44053310D01*
X4762520Y46434570D02*
X4762520Y44053310D01*
X-22621970Y46434570D02*
X-22621970Y44053310D01*
X-32147010Y46434570D02*
X-32147010Y44053310D01*
X107156700Y45243940D02*
G75*
G03*
X107156700Y45243940I-1190630J0D01*
G01*
X102394180Y45243940D02*
G75*
G03*
X102394180Y45243940I-1190630J0D01*
G01*
X94059770Y45243940D02*
X97631660Y45243940D01*
X86915990Y45243940D02*
G75*
G03*
X86915990Y45243940I-1190630J0D01*
G01*
X78581580Y45243940D02*
X82153470Y45243940D01*
X76200320Y45243940D02*
G75*
G03*
X76200320Y45243940I-1190630J0D01*
G01*
X63103390Y45243940D02*
X66675280Y45243940D01*
X60722130Y45243940D02*
G75*
G03*
X60722130Y45243940I-1190630J0D01*
G01*
X47625200Y45243940D02*
X51197090Y45243940D01*
X41672050Y45243940D02*
X45243940Y45243940D01*
X35718900Y45243940D02*
X39290790Y45243940D01*
X28575120Y45243940D02*
G75*
G03*
X28575120Y45243940I-1190630J0D01*
G01*
X23812600Y45243940D02*
G75*
G03*
X23812600Y45243940I-1190630J0D01*
G01*
X19050080Y45243940D02*
G75*
G03*
X19050080Y45243940I-1190630J0D01*
G01*
X10715670Y45243940D02*
X14287560Y45243940D01*
X-2381260Y45243940D02*
X1190630Y45243940D01*
X-8334410Y45243940D02*
X-4762520Y45243940D01*
X-10715670Y45243940D02*
G75*
G03*
X-10715670Y45243940I-1190630J0D01*
G01*
X-19050080Y45243940D02*
X-15478190Y45243940D01*
X-39290790Y45243940D02*
X-35718900Y45243940D01*
X-41672050Y45243940D02*
G75*
G03*
X-41672050Y45243940I-1190630J0D01*
G01*
X-50006460Y45243940D02*
X-46434570Y45243940D01*
X110728590Y47625200D02*
X-53578350Y47625200D01*
X-53578350Y42862680D02*
X110728590Y42862680D01*
D11*
X-66547619Y37838409D02*
X-67023809Y37505075D01*
X-66547619Y37266980D02*
X-67547619Y37266980D01*
X-67547619Y37647932D01*
X-67500000Y37743170D01*
X-67452380Y37790790D01*
X-67357142Y37838409D01*
X-67214285Y37838409D01*
X-67119047Y37790790D01*
X-67071428Y37743170D01*
X-67023809Y37647932D01*
X-67023809Y37266980D01*
X-67071428Y38266980D02*
X-67071428Y38600313D01*
X-66547619Y38743170D02*
X-66547619Y38266980D01*
X-67547619Y38266980D01*
X-67547619Y38743170D01*
X-66595238Y39124123D02*
X-66547619Y39266980D01*
X-66547619Y39505075D01*
X-66595238Y39600313D01*
X-66642857Y39647932D01*
X-66738095Y39695551D01*
X-66833333Y39695551D01*
X-66928571Y39647932D01*
X-66976190Y39600313D01*
X-67023809Y39505075D01*
X-67071428Y39314599D01*
X-67119047Y39219361D01*
X-67166666Y39171742D01*
X-67261904Y39124123D01*
X-67357142Y39124123D01*
X-67452380Y39171742D01*
X-67500000Y39219361D01*
X-67547619Y39314599D01*
X-67547619Y39552694D01*
X-67500000Y39695551D01*
X-67071428Y40124123D02*
X-67071428Y40457456D01*
X-66547619Y40600313D02*
X-66547619Y40124123D01*
X-67547619Y40124123D01*
X-67547619Y40600313D01*
X-67547619Y40886028D02*
X-67547619Y41457456D01*
X-66547619Y41171742D02*
X-67547619Y41171742D01*
%TO.C,K24*%
X5000000Y-45100160D02*
X7000000Y-45100160D01*
X-7000000Y-43100160D02*
X-7000000Y-45100160D01*
X7000000Y-45100160D02*
X7000000Y-43100160D01*
X-5000000Y-45100160D02*
X-7000000Y-45100160D01*
X-5000000Y-31100160D02*
X-7000000Y-31100160D01*
X7000000Y-33100160D02*
X7000000Y-31100160D01*
X5000000Y-31100160D02*
X7000000Y-31100160D01*
X-7000000Y-31100160D02*
X-7000000Y-33100160D01*
%TO.C,K1*%
X-109775440Y26050080D02*
X-111775440Y26050080D01*
X-111775440Y26050080D02*
X-111775440Y24050080D01*
X-111775440Y14050080D02*
X-111775440Y12050080D01*
X-111775440Y12050080D02*
X-109775440Y12050080D01*
X-99775440Y12050080D02*
X-97775440Y12050080D01*
X-97775440Y12050080D02*
X-97775440Y14050080D01*
X-99775440Y26050080D02*
X-97775440Y26050080D01*
X-97775440Y26050080D02*
X-97775440Y24050080D01*
%TO.C,K2*%
X-109775440Y7000000D02*
X-111775440Y7000000D01*
X-111775440Y7000000D02*
X-111775440Y5000000D01*
X-111775440Y-5000000D02*
X-111775440Y-7000000D01*
X-111775440Y-7000000D02*
X-109775440Y-7000000D01*
X-99775440Y-7000000D02*
X-97775440Y-7000000D01*
X-97775440Y-7000000D02*
X-97775440Y-5000000D01*
X-99775440Y7000000D02*
X-97775440Y7000000D01*
X-97775440Y7000000D02*
X-97775440Y5000000D01*
%TO.C,K5*%
X-90725360Y26050080D02*
X-92725360Y26050080D01*
X-92725360Y26050080D02*
X-92725360Y24050080D01*
X-92725360Y14050080D02*
X-92725360Y12050080D01*
X-92725360Y12050080D02*
X-90725360Y12050080D01*
X-80725360Y12050080D02*
X-78725360Y12050080D01*
X-78725360Y12050080D02*
X-78725360Y14050080D01*
X-80725360Y26050080D02*
X-78725360Y26050080D01*
X-78725360Y26050080D02*
X-78725360Y24050080D01*
%TO.C,K40*%
X80725360Y26050080D02*
X78725360Y26050080D01*
X78725360Y26050080D02*
X78725360Y24050080D01*
X78725360Y14050080D02*
X78725360Y12050080D01*
X78725360Y12050080D02*
X80725360Y12050080D01*
X90725360Y12050080D02*
X92725360Y12050080D01*
X92725360Y12050080D02*
X92725360Y14050080D01*
X90725360Y26050080D02*
X92725360Y26050080D01*
X92725360Y26050080D02*
X92725360Y24050080D01*
%TO.C,K10*%
X-71675280Y7000000D02*
X-73675280Y7000000D01*
X-73675280Y7000000D02*
X-73675280Y5000000D01*
X-73675280Y-5000000D02*
X-73675280Y-7000000D01*
X-73675280Y-7000000D02*
X-71675280Y-7000000D01*
X-61675280Y-7000000D02*
X-59675280Y-7000000D01*
X-59675280Y-7000000D02*
X-59675280Y-5000000D01*
X-61675280Y7000000D02*
X-59675280Y7000000D01*
X-59675280Y7000000D02*
X-59675280Y5000000D01*
%TO.C,K47*%
X99775440Y-31100160D02*
X97775440Y-31100160D01*
X97775440Y-31100160D02*
X97775440Y-33100160D01*
X97775440Y-43100160D02*
X97775440Y-45100160D01*
X97775440Y-45100160D02*
X99775440Y-45100160D01*
X109775440Y-45100160D02*
X111775440Y-45100160D01*
X111775440Y-45100160D02*
X111775440Y-43100160D01*
X109775440Y-31100160D02*
X111775440Y-31100160D01*
X111775440Y-31100160D02*
X111775440Y-33100160D01*
%TO.C,K43*%
X80725360Y-31100160D02*
X78725360Y-31100160D01*
X78725360Y-31100160D02*
X78725360Y-33100160D01*
X78725360Y-43100160D02*
X78725360Y-45100160D01*
X78725360Y-45100160D02*
X80725360Y-45100160D01*
X90725360Y-45100160D02*
X92725360Y-45100160D01*
X92725360Y-45100160D02*
X92725360Y-43100160D01*
X90725360Y-31100160D02*
X92725360Y-31100160D01*
X92725360Y-31100160D02*
X92725360Y-33100160D01*
%TO.C,K39*%
X61675280Y-31100160D02*
X59675280Y-31100160D01*
X59675280Y-31100160D02*
X59675280Y-33100160D01*
X59675280Y-43100160D02*
X59675280Y-45100160D01*
X59675280Y-45100160D02*
X61675280Y-45100160D01*
X71675280Y-45100160D02*
X73675280Y-45100160D01*
X73675280Y-45100160D02*
X73675280Y-43100160D01*
X71675280Y-31100160D02*
X73675280Y-31100160D01*
X73675280Y-31100160D02*
X73675280Y-33100160D01*
%TO.C,K35*%
X42625200Y-31100160D02*
X40625200Y-31100160D01*
X40625200Y-31100160D02*
X40625200Y-33100160D01*
X40625200Y-43100160D02*
X40625200Y-45100160D01*
X40625200Y-45100160D02*
X42625200Y-45100160D01*
X52625200Y-45100160D02*
X54625200Y-45100160D01*
X54625200Y-45100160D02*
X54625200Y-43100160D01*
X52625200Y-31100160D02*
X54625200Y-31100160D01*
X54625200Y-31100160D02*
X54625200Y-33100160D01*
%TO.C,K31*%
X23575120Y-31100160D02*
X21575120Y-31100160D01*
X21575120Y-31100160D02*
X21575120Y-33100160D01*
X21575120Y-43100160D02*
X21575120Y-45100160D01*
X21575120Y-45100160D02*
X23575120Y-45100160D01*
X33575120Y-45100160D02*
X35575120Y-45100160D01*
X35575120Y-45100160D02*
X35575120Y-43100160D01*
X33575120Y-31100160D02*
X35575120Y-31100160D01*
X35575120Y-31100160D02*
X35575120Y-33100160D01*
%TO.C,K20*%
X-33575120Y-31100160D02*
X-35575120Y-31100160D01*
X-35575120Y-31100160D02*
X-35575120Y-33100160D01*
X-35575120Y-43100160D02*
X-35575120Y-45100160D01*
X-35575120Y-45100160D02*
X-33575120Y-45100160D01*
X-23575120Y-45100160D02*
X-21575120Y-45100160D01*
X-21575120Y-45100160D02*
X-21575120Y-43100160D01*
X-23575120Y-31100160D02*
X-21575120Y-31100160D01*
X-21575120Y-31100160D02*
X-21575120Y-33100160D01*
%TO.C,K16*%
X-52625200Y-31100160D02*
X-54625200Y-31100160D01*
X-54625200Y-31100160D02*
X-54625200Y-33100160D01*
X-54625200Y-43100160D02*
X-54625200Y-45100160D01*
X-54625200Y-45100160D02*
X-52625200Y-45100160D01*
X-42625200Y-45100160D02*
X-40625200Y-45100160D01*
X-40625200Y-45100160D02*
X-40625200Y-43100160D01*
X-42625200Y-31100160D02*
X-40625200Y-31100160D01*
X-40625200Y-31100160D02*
X-40625200Y-33100160D01*
%TO.C,K12*%
X-71675280Y-31100160D02*
X-73675280Y-31100160D01*
X-73675280Y-31100160D02*
X-73675280Y-33100160D01*
X-73675280Y-43100160D02*
X-73675280Y-45100160D01*
X-73675280Y-45100160D02*
X-71675280Y-45100160D01*
X-61675280Y-45100160D02*
X-59675280Y-45100160D01*
X-59675280Y-45100160D02*
X-59675280Y-43100160D01*
X-61675280Y-31100160D02*
X-59675280Y-31100160D01*
X-59675280Y-31100160D02*
X-59675280Y-33100160D01*
%TO.C,K8*%
X-90725360Y-31100160D02*
X-92725360Y-31100160D01*
X-92725360Y-31100160D02*
X-92725360Y-33100160D01*
X-92725360Y-43100160D02*
X-92725360Y-45100160D01*
X-92725360Y-45100160D02*
X-90725360Y-45100160D01*
X-80725360Y-45100160D02*
X-78725360Y-45100160D01*
X-78725360Y-45100160D02*
X-78725360Y-43100160D01*
X-80725360Y-31100160D02*
X-78725360Y-31100160D01*
X-78725360Y-31100160D02*
X-78725360Y-33100160D01*
%TO.C,K4*%
X-109775440Y-31100160D02*
X-111775440Y-31100160D01*
X-111775440Y-31100160D02*
X-111775440Y-33100160D01*
X-111775440Y-43100160D02*
X-111775440Y-45100160D01*
X-111775440Y-45100160D02*
X-109775440Y-45100160D01*
X-99775440Y-45100160D02*
X-97775440Y-45100160D01*
X-97775440Y-45100160D02*
X-97775440Y-43100160D01*
X-99775440Y-31100160D02*
X-97775440Y-31100160D01*
X-97775440Y-31100160D02*
X-97775440Y-33100160D01*
%TO.C,K46*%
X99775440Y-12050080D02*
X97775440Y-12050080D01*
X97775440Y-12050080D02*
X97775440Y-14050080D01*
X97775440Y-24050080D02*
X97775440Y-26050080D01*
X97775440Y-26050080D02*
X99775440Y-26050080D01*
X109775440Y-26050080D02*
X111775440Y-26050080D01*
X111775440Y-26050080D02*
X111775440Y-24050080D01*
X109775440Y-12050080D02*
X111775440Y-12050080D01*
X111775440Y-12050080D02*
X111775440Y-14050080D01*
%TO.C,K42*%
X80725360Y-12050080D02*
X78725360Y-12050080D01*
X78725360Y-12050080D02*
X78725360Y-14050080D01*
X78725360Y-24050080D02*
X78725360Y-26050080D01*
X78725360Y-26050080D02*
X80725360Y-26050080D01*
X90725360Y-26050080D02*
X92725360Y-26050080D01*
X92725360Y-26050080D02*
X92725360Y-24050080D01*
X90725360Y-12050080D02*
X92725360Y-12050080D01*
X92725360Y-12050080D02*
X92725360Y-14050080D01*
%TO.C,K38*%
X61675280Y-12050080D02*
X59675280Y-12050080D01*
X59675280Y-12050080D02*
X59675280Y-14050080D01*
X59675280Y-24050080D02*
X59675280Y-26050080D01*
X59675280Y-26050080D02*
X61675280Y-26050080D01*
X71675280Y-26050080D02*
X73675280Y-26050080D01*
X73675280Y-26050080D02*
X73675280Y-24050080D01*
X71675280Y-12050080D02*
X73675280Y-12050080D01*
X73675280Y-12050080D02*
X73675280Y-14050080D01*
%TO.C,K34*%
X42625200Y-12050080D02*
X40625200Y-12050080D01*
X40625200Y-12050080D02*
X40625200Y-14050080D01*
X40625200Y-24050080D02*
X40625200Y-26050080D01*
X40625200Y-26050080D02*
X42625200Y-26050080D01*
X52625200Y-26050080D02*
X54625200Y-26050080D01*
X54625200Y-26050080D02*
X54625200Y-24050080D01*
X52625200Y-12050080D02*
X54625200Y-12050080D01*
X54625200Y-12050080D02*
X54625200Y-14050080D01*
%TO.C,K30*%
X23575120Y-12050080D02*
X21575120Y-12050080D01*
X21575120Y-12050080D02*
X21575120Y-14050080D01*
X21575120Y-24050080D02*
X21575120Y-26050080D01*
X21575120Y-26050080D02*
X23575120Y-26050080D01*
X33575120Y-26050080D02*
X35575120Y-26050080D01*
X35575120Y-26050080D02*
X35575120Y-24050080D01*
X33575120Y-12050080D02*
X35575120Y-12050080D01*
X35575120Y-12050080D02*
X35575120Y-14050080D01*
%TO.C,K27*%
X4525040Y-12050080D02*
X2525040Y-12050080D01*
X2525040Y-12050080D02*
X2525040Y-14050080D01*
X2525040Y-24050080D02*
X2525040Y-26050080D01*
X2525040Y-26050080D02*
X4525040Y-26050080D01*
X14525040Y-26050080D02*
X16525040Y-26050080D01*
X16525040Y-26050080D02*
X16525040Y-24050080D01*
X14525040Y-12050080D02*
X16525040Y-12050080D01*
X16525040Y-12050080D02*
X16525040Y-14050080D01*
%TO.C,K23*%
X-14525040Y-12050080D02*
X-16525040Y-12050080D01*
X-16525040Y-12050080D02*
X-16525040Y-14050080D01*
X-16525040Y-24050080D02*
X-16525040Y-26050080D01*
X-16525040Y-26050080D02*
X-14525040Y-26050080D01*
X-4525040Y-26050080D02*
X-2525040Y-26050080D01*
X-2525040Y-26050080D02*
X-2525040Y-24050080D01*
X-4525040Y-12050080D02*
X-2525040Y-12050080D01*
X-2525040Y-12050080D02*
X-2525040Y-14050080D01*
%TO.C,K19*%
X-33575120Y-12050080D02*
X-35575120Y-12050080D01*
X-35575120Y-12050080D02*
X-35575120Y-14050080D01*
X-35575120Y-24050080D02*
X-35575120Y-26050080D01*
X-35575120Y-26050080D02*
X-33575120Y-26050080D01*
X-23575120Y-26050080D02*
X-21575120Y-26050080D01*
X-21575120Y-26050080D02*
X-21575120Y-24050080D01*
X-23575120Y-12050080D02*
X-21575120Y-12050080D01*
X-21575120Y-12050080D02*
X-21575120Y-14050080D01*
%TO.C,K15*%
X-52625200Y-12050080D02*
X-54625200Y-12050080D01*
X-54625200Y-12050080D02*
X-54625200Y-14050080D01*
X-54625200Y-24050080D02*
X-54625200Y-26050080D01*
X-54625200Y-26050080D02*
X-52625200Y-26050080D01*
X-42625200Y-26050080D02*
X-40625200Y-26050080D01*
X-40625200Y-26050080D02*
X-40625200Y-24050080D01*
X-42625200Y-12050080D02*
X-40625200Y-12050080D01*
X-40625200Y-12050080D02*
X-40625200Y-14050080D01*
%TO.C,K11*%
X-71675280Y-12050080D02*
X-73675280Y-12050080D01*
X-73675280Y-12050080D02*
X-73675280Y-14050080D01*
X-73675280Y-24050080D02*
X-73675280Y-26050080D01*
X-73675280Y-26050080D02*
X-71675280Y-26050080D01*
X-61675280Y-26050080D02*
X-59675280Y-26050080D01*
X-59675280Y-26050080D02*
X-59675280Y-24050080D01*
X-61675280Y-12050080D02*
X-59675280Y-12050080D01*
X-59675280Y-12050080D02*
X-59675280Y-14050080D01*
%TO.C,K7*%
X-90725360Y-12050080D02*
X-92725360Y-12050080D01*
X-92725360Y-12050080D02*
X-92725360Y-14050080D01*
X-92725360Y-24050080D02*
X-92725360Y-26050080D01*
X-92725360Y-26050080D02*
X-90725360Y-26050080D01*
X-80725360Y-26050080D02*
X-78725360Y-26050080D01*
X-78725360Y-26050080D02*
X-78725360Y-24050080D01*
X-80725360Y-12050080D02*
X-78725360Y-12050080D01*
X-78725360Y-12050080D02*
X-78725360Y-14050080D01*
%TO.C,K3*%
X-109775440Y-12050080D02*
X-111775440Y-12050080D01*
X-111775440Y-12050080D02*
X-111775440Y-14050080D01*
X-111775440Y-24050080D02*
X-111775440Y-26050080D01*
X-111775440Y-26050080D02*
X-109775440Y-26050080D01*
X-99775440Y-26050080D02*
X-97775440Y-26050080D01*
X-97775440Y-26050080D02*
X-97775440Y-24050080D01*
X-99775440Y-12050080D02*
X-97775440Y-12050080D01*
X-97775440Y-12050080D02*
X-97775440Y-14050080D01*
%TO.C,K45*%
X99775440Y7000000D02*
X97775440Y7000000D01*
X97775440Y7000000D02*
X97775440Y5000000D01*
X97775440Y-5000000D02*
X97775440Y-7000000D01*
X97775440Y-7000000D02*
X99775440Y-7000000D01*
X109775440Y-7000000D02*
X111775440Y-7000000D01*
X111775440Y-7000000D02*
X111775440Y-5000000D01*
X109775440Y7000000D02*
X111775440Y7000000D01*
X111775440Y7000000D02*
X111775440Y5000000D01*
%TO.C,K41*%
X80725360Y7000000D02*
X78725360Y7000000D01*
X78725360Y7000000D02*
X78725360Y5000000D01*
X78725360Y-5000000D02*
X78725360Y-7000000D01*
X78725360Y-7000000D02*
X80725360Y-7000000D01*
X90725360Y-7000000D02*
X92725360Y-7000000D01*
X92725360Y-7000000D02*
X92725360Y-5000000D01*
X90725360Y7000000D02*
X92725360Y7000000D01*
X92725360Y7000000D02*
X92725360Y5000000D01*
%TO.C,K37*%
X61675280Y7000000D02*
X59675280Y7000000D01*
X59675280Y7000000D02*
X59675280Y5000000D01*
X59675280Y-5000000D02*
X59675280Y-7000000D01*
X59675280Y-7000000D02*
X61675280Y-7000000D01*
X71675280Y-7000000D02*
X73675280Y-7000000D01*
X73675280Y-7000000D02*
X73675280Y-5000000D01*
X71675280Y7000000D02*
X73675280Y7000000D01*
X73675280Y7000000D02*
X73675280Y5000000D01*
%TO.C,K33*%
X42625200Y7000000D02*
X40625200Y7000000D01*
X40625200Y7000000D02*
X40625200Y5000000D01*
X40625200Y-5000000D02*
X40625200Y-7000000D01*
X40625200Y-7000000D02*
X42625200Y-7000000D01*
X52625200Y-7000000D02*
X54625200Y-7000000D01*
X54625200Y-7000000D02*
X54625200Y-5000000D01*
X52625200Y7000000D02*
X54625200Y7000000D01*
X54625200Y7000000D02*
X54625200Y5000000D01*
%TO.C,K29*%
X23575120Y7000000D02*
X21575120Y7000000D01*
X21575120Y7000000D02*
X21575120Y5000000D01*
X21575120Y-5000000D02*
X21575120Y-7000000D01*
X21575120Y-7000000D02*
X23575120Y-7000000D01*
X33575120Y-7000000D02*
X35575120Y-7000000D01*
X35575120Y-7000000D02*
X35575120Y-5000000D01*
X33575120Y7000000D02*
X35575120Y7000000D01*
X35575120Y7000000D02*
X35575120Y5000000D01*
%TO.C,K26*%
X4525040Y7000000D02*
X2525040Y7000000D01*
X2525040Y7000000D02*
X2525040Y5000000D01*
X2525040Y-5000000D02*
X2525040Y-7000000D01*
X2525040Y-7000000D02*
X4525040Y-7000000D01*
X14525040Y-7000000D02*
X16525040Y-7000000D01*
X16525040Y-7000000D02*
X16525040Y-5000000D01*
X14525040Y7000000D02*
X16525040Y7000000D01*
X16525040Y7000000D02*
X16525040Y5000000D01*
%TO.C,K22*%
X-14525040Y7000000D02*
X-16525040Y7000000D01*
X-16525040Y7000000D02*
X-16525040Y5000000D01*
X-16525040Y-5000000D02*
X-16525040Y-7000000D01*
X-16525040Y-7000000D02*
X-14525040Y-7000000D01*
X-4525040Y-7000000D02*
X-2525040Y-7000000D01*
X-2525040Y-7000000D02*
X-2525040Y-5000000D01*
X-4525040Y7000000D02*
X-2525040Y7000000D01*
X-2525040Y7000000D02*
X-2525040Y5000000D01*
%TO.C,K18*%
X-33575120Y7000000D02*
X-35575120Y7000000D01*
X-35575120Y7000000D02*
X-35575120Y5000000D01*
X-35575120Y-5000000D02*
X-35575120Y-7000000D01*
X-35575120Y-7000000D02*
X-33575120Y-7000000D01*
X-23575120Y-7000000D02*
X-21575120Y-7000000D01*
X-21575120Y-7000000D02*
X-21575120Y-5000000D01*
X-23575120Y7000000D02*
X-21575120Y7000000D01*
X-21575120Y7000000D02*
X-21575120Y5000000D01*
%TO.C,K14*%
X-52625200Y7000000D02*
X-54625200Y7000000D01*
X-54625200Y7000000D02*
X-54625200Y5000000D01*
X-54625200Y-5000000D02*
X-54625200Y-7000000D01*
X-54625200Y-7000000D02*
X-52625200Y-7000000D01*
X-42625200Y-7000000D02*
X-40625200Y-7000000D01*
X-40625200Y-7000000D02*
X-40625200Y-5000000D01*
X-42625200Y7000000D02*
X-40625200Y7000000D01*
X-40625200Y7000000D02*
X-40625200Y5000000D01*
%TO.C,K6*%
X-90725360Y7000000D02*
X-92725360Y7000000D01*
X-92725360Y7000000D02*
X-92725360Y5000000D01*
X-92725360Y-5000000D02*
X-92725360Y-7000000D01*
X-92725360Y-7000000D02*
X-90725360Y-7000000D01*
X-80725360Y-7000000D02*
X-78725360Y-7000000D01*
X-78725360Y-7000000D02*
X-78725360Y-5000000D01*
X-80725360Y7000000D02*
X-78725360Y7000000D01*
X-78725360Y7000000D02*
X-78725360Y5000000D01*
%TO.C,K44*%
X99775440Y26050080D02*
X97775440Y26050080D01*
X97775440Y26050080D02*
X97775440Y24050080D01*
X97775440Y14050080D02*
X97775440Y12050080D01*
X97775440Y12050080D02*
X99775440Y12050080D01*
X109775440Y12050080D02*
X111775440Y12050080D01*
X111775440Y12050080D02*
X111775440Y14050080D01*
X109775440Y26050080D02*
X111775440Y26050080D01*
X111775440Y26050080D02*
X111775440Y24050080D01*
%TO.C,K36*%
X61675280Y26050080D02*
X59675280Y26050080D01*
X59675280Y26050080D02*
X59675280Y24050080D01*
X59675280Y14050080D02*
X59675280Y12050080D01*
X59675280Y12050080D02*
X61675280Y12050080D01*
X71675280Y12050080D02*
X73675280Y12050080D01*
X73675280Y12050080D02*
X73675280Y14050080D01*
X71675280Y26050080D02*
X73675280Y26050080D01*
X73675280Y26050080D02*
X73675280Y24050080D01*
%TO.C,K32*%
X42625200Y26050080D02*
X40625200Y26050080D01*
X40625200Y26050080D02*
X40625200Y24050080D01*
X40625200Y14050080D02*
X40625200Y12050080D01*
X40625200Y12050080D02*
X42625200Y12050080D01*
X52625200Y12050080D02*
X54625200Y12050080D01*
X54625200Y12050080D02*
X54625200Y14050080D01*
X52625200Y26050080D02*
X54625200Y26050080D01*
X54625200Y26050080D02*
X54625200Y24050080D01*
%TO.C,K28*%
X23575120Y26050080D02*
X21575120Y26050080D01*
X21575120Y26050080D02*
X21575120Y24050080D01*
X21575120Y14050080D02*
X21575120Y12050080D01*
X21575120Y12050080D02*
X23575120Y12050080D01*
X33575120Y12050080D02*
X35575120Y12050080D01*
X35575120Y12050080D02*
X35575120Y14050080D01*
X33575120Y26050080D02*
X35575120Y26050080D01*
X35575120Y26050080D02*
X35575120Y24050080D01*
%TO.C,K25*%
X4525040Y26050080D02*
X2525040Y26050080D01*
X2525040Y26050080D02*
X2525040Y24050080D01*
X2525040Y14050080D02*
X2525040Y12050080D01*
X2525040Y12050080D02*
X4525040Y12050080D01*
X14525040Y12050080D02*
X16525040Y12050080D01*
X16525040Y12050080D02*
X16525040Y14050080D01*
X14525040Y26050080D02*
X16525040Y26050080D01*
X16525040Y26050080D02*
X16525040Y24050080D01*
%TO.C,K21*%
X-14525040Y26050080D02*
X-16525040Y26050080D01*
X-16525040Y26050080D02*
X-16525040Y24050080D01*
X-16525040Y14050080D02*
X-16525040Y12050080D01*
X-16525040Y12050080D02*
X-14525040Y12050080D01*
X-4525040Y12050080D02*
X-2525040Y12050080D01*
X-2525040Y12050080D02*
X-2525040Y14050080D01*
X-4525040Y26050080D02*
X-2525040Y26050080D01*
X-2525040Y26050080D02*
X-2525040Y24050080D01*
%TO.C,K17*%
X-33575120Y26050080D02*
X-35575120Y26050080D01*
X-35575120Y26050080D02*
X-35575120Y24050080D01*
X-35575120Y14050080D02*
X-35575120Y12050080D01*
X-35575120Y12050080D02*
X-33575120Y12050080D01*
X-23575120Y12050080D02*
X-21575120Y12050080D01*
X-21575120Y12050080D02*
X-21575120Y14050080D01*
X-23575120Y26050080D02*
X-21575120Y26050080D01*
X-21575120Y26050080D02*
X-21575120Y24050080D01*
%TO.C,K13*%
X-52625200Y26050080D02*
X-54625200Y26050080D01*
X-54625200Y26050080D02*
X-54625200Y24050080D01*
X-54625200Y14050080D02*
X-54625200Y12050080D01*
X-54625200Y12050080D02*
X-52625200Y12050080D01*
X-42625200Y12050080D02*
X-40625200Y12050080D01*
X-40625200Y12050080D02*
X-40625200Y14050080D01*
X-42625200Y26050080D02*
X-40625200Y26050080D01*
X-40625200Y26050080D02*
X-40625200Y24050080D01*
%TO.C,K9*%
X-71675280Y26050080D02*
X-73675280Y26050080D01*
X-73675280Y26050080D02*
X-73675280Y24050080D01*
X-73675280Y14050080D02*
X-73675280Y12050080D01*
X-73675280Y12050080D02*
X-71675280Y12050080D01*
X-61675280Y12050080D02*
X-59675280Y12050080D01*
X-59675280Y12050080D02*
X-59675280Y14050080D01*
X-61675280Y26050080D02*
X-59675280Y26050080D01*
X-59675280Y26050080D02*
X-59675280Y24050080D01*
%TO.C,SW1*%
X-75556540Y40047900D02*
X-75556540Y38547900D01*
X-74556540Y36047900D02*
X-70056540Y36047900D01*
X-69056540Y38547900D02*
X-69056540Y40047900D01*
X-70056540Y42547900D02*
X-74556540Y42547900D01*
%TO.C,U1*%
X-114141660Y30400790D02*
X-114141660Y48180790D01*
X-81121660Y30400790D02*
X-114141660Y30400790D01*
X-81121660Y48180790D02*
X-81121660Y30400790D01*
X-114141660Y48180790D02*
X-81121660Y48180790D01*
%TO.C,R1*%
X-74390320Y33517010D02*
X-74390320Y30777010D01*
X-74390320Y30777010D02*
X-67850320Y30777010D01*
X-67850320Y30777010D02*
X-67850320Y33517010D01*
X-67850320Y33517010D02*
X-74390320Y33517010D01*
X-75160320Y32147010D02*
X-74390320Y32147010D01*
X-67080320Y32147010D02*
X-67850320Y32147010D01*
%TO.C,R2*%
X-74390320Y47804570D02*
X-74390320Y45064570D01*
X-74390320Y45064570D02*
X-67850320Y45064570D01*
X-67850320Y45064570D02*
X-67850320Y47804570D01*
X-67850320Y47804570D02*
X-74390320Y47804570D01*
X-75160320Y46434570D02*
X-74390320Y46434570D01*
X-67080320Y46434570D02*
X-67850320Y46434570D01*
%TO.C,LED2*%
X-58142760Y44053310D02*
G75*
G03*
X-58142760Y44053310I-2500000J0D01*
G01*
X-58082760Y42508310D02*
X-58082760Y45598310D01*
X-63632760Y44052848D02*
G75*
G02*
X-58082760Y45598140I2990000J462D01*
G01*
X-63632760Y44053772D02*
G75*
G03*
X-58082760Y42508480I2990000J-462D01*
G01*
D12*
%TO.C,D2*%
G36*
X-51206460Y37118900D02*
G01*
X-51206460Y37918900D01*
X-48806460Y37918900D01*
X-48806460Y37118900D01*
X-51206460Y37118900D01*
G37*
X-51206460Y37118900D02*
X-51206460Y37918900D01*
X-48806460Y37918900D01*
X-48806460Y37118900D01*
X-51206460Y37118900D01*
D11*
X-51206460Y33518900D02*
X-51206460Y37918900D01*
X-48806460Y33518900D02*
X-51206460Y33518900D01*
X-48806460Y37918900D02*
X-48806460Y33518900D01*
X-48856460Y37918900D02*
X-51156460Y37918900D01*
D12*
%TO.C,D1*%
G36*
X-54778350Y37118900D02*
G01*
X-54778350Y37918900D01*
X-52378350Y37918900D01*
X-52378350Y37118900D01*
X-54778350Y37118900D01*
G37*
X-54778350Y37118900D02*
X-54778350Y37918900D01*
X-52378350Y37918900D01*
X-52378350Y37118900D01*
X-54778350Y37118900D01*
D11*
X-54778350Y33518900D02*
X-54778350Y37918900D01*
X-52378350Y33518900D02*
X-54778350Y33518900D01*
X-52378350Y37918900D02*
X-52378350Y33518900D01*
X-52428350Y37918900D02*
X-54728350Y37918900D01*
D12*
%TO.C,D47*%
G36*
X109528590Y37118900D02*
G01*
X109528590Y37918900D01*
X111928590Y37918900D01*
X111928590Y37118900D01*
X109528590Y37118900D01*
G37*
X109528590Y37118900D02*
X109528590Y37918900D01*
X111928590Y37918900D01*
X111928590Y37118900D01*
X109528590Y37118900D01*
D11*
X109528590Y33518900D02*
X109528590Y37918900D01*
X111928590Y33518900D02*
X109528590Y33518900D01*
X111928590Y37918900D02*
X111928590Y33518900D01*
X111878590Y37918900D02*
X109578590Y37918900D01*
D12*
%TO.C,D43*%
G36*
X95241030Y37118900D02*
G01*
X95241030Y37918900D01*
X97641030Y37918900D01*
X97641030Y37118900D01*
X95241030Y37118900D01*
G37*
X95241030Y37118900D02*
X95241030Y37918900D01*
X97641030Y37918900D01*
X97641030Y37118900D01*
X95241030Y37118900D01*
D11*
X95241030Y33518900D02*
X95241030Y37918900D01*
X97641030Y33518900D02*
X95241030Y33518900D01*
X97641030Y37918900D02*
X97641030Y33518900D01*
X97591030Y37918900D02*
X95291030Y37918900D01*
D12*
%TO.C,D39*%
G36*
X80953470Y37118900D02*
G01*
X80953470Y37918900D01*
X83353470Y37918900D01*
X83353470Y37118900D01*
X80953470Y37118900D01*
G37*
X80953470Y37118900D02*
X80953470Y37918900D01*
X83353470Y37918900D01*
X83353470Y37118900D01*
X80953470Y37118900D01*
D11*
X80953470Y33518900D02*
X80953470Y37918900D01*
X83353470Y33518900D02*
X80953470Y33518900D01*
X83353470Y37918900D02*
X83353470Y33518900D01*
X83303470Y37918900D02*
X81003470Y37918900D01*
D12*
%TO.C,D35*%
G36*
X66665910Y37118900D02*
G01*
X66665910Y37918900D01*
X69065910Y37918900D01*
X69065910Y37118900D01*
X66665910Y37118900D01*
G37*
X66665910Y37118900D02*
X66665910Y37918900D01*
X69065910Y37918900D01*
X69065910Y37118900D01*
X66665910Y37118900D01*
D11*
X66665910Y33518900D02*
X66665910Y37918900D01*
X69065910Y33518900D02*
X66665910Y33518900D01*
X69065910Y37918900D02*
X69065910Y33518900D01*
X69015910Y37918900D02*
X66715910Y37918900D01*
D12*
%TO.C,D31*%
G36*
X52378350Y37118900D02*
G01*
X52378350Y37918900D01*
X54778350Y37918900D01*
X54778350Y37118900D01*
X52378350Y37118900D01*
G37*
X52378350Y37118900D02*
X52378350Y37918900D01*
X54778350Y37918900D01*
X54778350Y37118900D01*
X52378350Y37118900D01*
D11*
X52378350Y33518900D02*
X52378350Y37918900D01*
X54778350Y33518900D02*
X52378350Y33518900D01*
X54778350Y37918900D02*
X54778350Y33518900D01*
X54728350Y37918900D02*
X52428350Y37918900D01*
D12*
%TO.C,D24*%
G36*
X27375120Y37118900D02*
G01*
X27375120Y37918900D01*
X29775120Y37918900D01*
X29775120Y37118900D01*
X27375120Y37118900D01*
G37*
X27375120Y37118900D02*
X27375120Y37918900D01*
X29775120Y37918900D01*
X29775120Y37118900D01*
X27375120Y37118900D01*
D11*
X27375120Y33518900D02*
X27375120Y37918900D01*
X29775120Y33518900D02*
X27375120Y33518900D01*
X29775120Y37918900D02*
X29775120Y33518900D01*
X29725120Y37918900D02*
X27425120Y37918900D01*
D12*
%TO.C,D20*%
G36*
X13087560Y37118900D02*
G01*
X13087560Y37918900D01*
X15487560Y37918900D01*
X15487560Y37118900D01*
X13087560Y37118900D01*
G37*
X13087560Y37118900D02*
X13087560Y37918900D01*
X15487560Y37918900D01*
X15487560Y37118900D01*
X13087560Y37118900D01*
D11*
X13087560Y33518900D02*
X13087560Y37918900D01*
X15487560Y33518900D02*
X13087560Y33518900D01*
X15487560Y37918900D02*
X15487560Y33518900D01*
X15437560Y37918900D02*
X13137560Y37918900D01*
D12*
%TO.C,D16*%
G36*
X-1200000Y37118900D02*
G01*
X-1200000Y37918900D01*
X1200000Y37918900D01*
X1200000Y37118900D01*
X-1200000Y37118900D01*
G37*
X-1200000Y37118900D02*
X-1200000Y37918900D01*
X1200000Y37918900D01*
X1200000Y37118900D01*
X-1200000Y37118900D01*
D11*
X-1200000Y33518900D02*
X-1200000Y37918900D01*
X1200000Y33518900D02*
X-1200000Y33518900D01*
X1200000Y37918900D02*
X1200000Y33518900D01*
X1150000Y37918900D02*
X-1150000Y37918900D01*
D12*
%TO.C,D12*%
G36*
X-15487560Y37118900D02*
G01*
X-15487560Y37918900D01*
X-13087560Y37918900D01*
X-13087560Y37118900D01*
X-15487560Y37118900D01*
G37*
X-15487560Y37118900D02*
X-15487560Y37918900D01*
X-13087560Y37918900D01*
X-13087560Y37118900D01*
X-15487560Y37118900D01*
D11*
X-15487560Y33518900D02*
X-15487560Y37918900D01*
X-13087560Y33518900D02*
X-15487560Y33518900D01*
X-13087560Y37918900D02*
X-13087560Y33518900D01*
X-13137560Y37918900D02*
X-15437560Y37918900D01*
D12*
%TO.C,D8*%
G36*
X-29775120Y37118900D02*
G01*
X-29775120Y37918900D01*
X-27375120Y37918900D01*
X-27375120Y37118900D01*
X-29775120Y37118900D01*
G37*
X-29775120Y37118900D02*
X-29775120Y37918900D01*
X-27375120Y37918900D01*
X-27375120Y37118900D01*
X-29775120Y37118900D01*
D11*
X-29775120Y33518900D02*
X-29775120Y37918900D01*
X-27375120Y33518900D02*
X-29775120Y33518900D01*
X-27375120Y37918900D02*
X-27375120Y33518900D01*
X-27425120Y37918900D02*
X-29725120Y37918900D01*
D12*
%TO.C,D4*%
G36*
X-44062680Y37118900D02*
G01*
X-44062680Y37918900D01*
X-41662680Y37918900D01*
X-41662680Y37118900D01*
X-44062680Y37118900D01*
G37*
X-44062680Y37118900D02*
X-44062680Y37918900D01*
X-41662680Y37918900D01*
X-41662680Y37118900D01*
X-44062680Y37118900D01*
D11*
X-44062680Y33518900D02*
X-44062680Y37918900D01*
X-41662680Y33518900D02*
X-44062680Y33518900D01*
X-41662680Y37918900D02*
X-41662680Y33518900D01*
X-41712680Y37918900D02*
X-44012680Y37918900D01*
D12*
%TO.C,D46*%
G36*
X105956700Y37118900D02*
G01*
X105956700Y37918900D01*
X108356700Y37918900D01*
X108356700Y37118900D01*
X105956700Y37118900D01*
G37*
X105956700Y37118900D02*
X105956700Y37918900D01*
X108356700Y37918900D01*
X108356700Y37118900D01*
X105956700Y37118900D01*
D11*
X105956700Y33518900D02*
X105956700Y37918900D01*
X108356700Y33518900D02*
X105956700Y33518900D01*
X108356700Y37918900D02*
X108356700Y33518900D01*
X108306700Y37918900D02*
X106006700Y37918900D01*
D12*
%TO.C,D42*%
G36*
X91669140Y37118900D02*
G01*
X91669140Y37918900D01*
X94069140Y37918900D01*
X94069140Y37118900D01*
X91669140Y37118900D01*
G37*
X91669140Y37118900D02*
X91669140Y37918900D01*
X94069140Y37918900D01*
X94069140Y37118900D01*
X91669140Y37118900D01*
D11*
X91669140Y33518900D02*
X91669140Y37918900D01*
X94069140Y33518900D02*
X91669140Y33518900D01*
X94069140Y37918900D02*
X94069140Y33518900D01*
X94019140Y37918900D02*
X91719140Y37918900D01*
D12*
%TO.C,D38*%
G36*
X77381580Y37118900D02*
G01*
X77381580Y37918900D01*
X79781580Y37918900D01*
X79781580Y37118900D01*
X77381580Y37118900D01*
G37*
X77381580Y37118900D02*
X77381580Y37918900D01*
X79781580Y37918900D01*
X79781580Y37118900D01*
X77381580Y37118900D01*
D11*
X77381580Y33518900D02*
X77381580Y37918900D01*
X79781580Y33518900D02*
X77381580Y33518900D01*
X79781580Y37918900D02*
X79781580Y33518900D01*
X79731580Y37918900D02*
X77431580Y37918900D01*
D12*
%TO.C,D34*%
G36*
X63094020Y37118900D02*
G01*
X63094020Y37918900D01*
X65494020Y37918900D01*
X65494020Y37118900D01*
X63094020Y37118900D01*
G37*
X63094020Y37118900D02*
X63094020Y37918900D01*
X65494020Y37918900D01*
X65494020Y37118900D01*
X63094020Y37118900D01*
D11*
X63094020Y33518900D02*
X63094020Y37918900D01*
X65494020Y33518900D02*
X63094020Y33518900D01*
X65494020Y37918900D02*
X65494020Y33518900D01*
X65444020Y37918900D02*
X63144020Y37918900D01*
D12*
%TO.C,D30*%
G36*
X48806460Y37118900D02*
G01*
X48806460Y37918900D01*
X51206460Y37918900D01*
X51206460Y37118900D01*
X48806460Y37118900D01*
G37*
X48806460Y37118900D02*
X48806460Y37918900D01*
X51206460Y37918900D01*
X51206460Y37118900D01*
X48806460Y37118900D01*
D11*
X48806460Y33518900D02*
X48806460Y37918900D01*
X51206460Y33518900D02*
X48806460Y33518900D01*
X51206460Y37918900D02*
X51206460Y33518900D01*
X51156460Y37918900D02*
X48856460Y37918900D01*
D12*
%TO.C,D27*%
G36*
X38090790Y37118900D02*
G01*
X38090790Y37918900D01*
X40490790Y37918900D01*
X40490790Y37118900D01*
X38090790Y37118900D01*
G37*
X38090790Y37118900D02*
X38090790Y37918900D01*
X40490790Y37918900D01*
X40490790Y37118900D01*
X38090790Y37118900D01*
D11*
X38090790Y33518900D02*
X38090790Y37918900D01*
X40490790Y33518900D02*
X38090790Y33518900D01*
X40490790Y37918900D02*
X40490790Y33518900D01*
X40440790Y37918900D02*
X38140790Y37918900D01*
D12*
%TO.C,D23*%
G36*
X23803230Y37118900D02*
G01*
X23803230Y37918900D01*
X26203230Y37918900D01*
X26203230Y37118900D01*
X23803230Y37118900D01*
G37*
X23803230Y37118900D02*
X23803230Y37918900D01*
X26203230Y37918900D01*
X26203230Y37118900D01*
X23803230Y37118900D01*
D11*
X23803230Y33518900D02*
X23803230Y37918900D01*
X26203230Y33518900D02*
X23803230Y33518900D01*
X26203230Y37918900D02*
X26203230Y33518900D01*
X26153230Y37918900D02*
X23853230Y37918900D01*
D12*
%TO.C,D19*%
G36*
X9515670Y37118900D02*
G01*
X9515670Y37918900D01*
X11915670Y37918900D01*
X11915670Y37118900D01*
X9515670Y37118900D01*
G37*
X9515670Y37118900D02*
X9515670Y37918900D01*
X11915670Y37918900D01*
X11915670Y37118900D01*
X9515670Y37118900D01*
D11*
X9515670Y33518900D02*
X9515670Y37918900D01*
X11915670Y33518900D02*
X9515670Y33518900D01*
X11915670Y37918900D02*
X11915670Y33518900D01*
X11865670Y37918900D02*
X9565670Y37918900D01*
D12*
%TO.C,D15*%
G36*
X-4771890Y37118900D02*
G01*
X-4771890Y37918900D01*
X-2371890Y37918900D01*
X-2371890Y37118900D01*
X-4771890Y37118900D01*
G37*
X-4771890Y37118900D02*
X-4771890Y37918900D01*
X-2371890Y37918900D01*
X-2371890Y37118900D01*
X-4771890Y37118900D01*
D11*
X-4771890Y33518900D02*
X-4771890Y37918900D01*
X-2371890Y33518900D02*
X-4771890Y33518900D01*
X-2371890Y37918900D02*
X-2371890Y33518900D01*
X-2421890Y37918900D02*
X-4721890Y37918900D01*
D12*
%TO.C,D11*%
G36*
X-19059450Y37118900D02*
G01*
X-19059450Y37918900D01*
X-16659450Y37918900D01*
X-16659450Y37118900D01*
X-19059450Y37118900D01*
G37*
X-19059450Y37118900D02*
X-19059450Y37918900D01*
X-16659450Y37918900D01*
X-16659450Y37118900D01*
X-19059450Y37118900D01*
D11*
X-19059450Y33518900D02*
X-19059450Y37918900D01*
X-16659450Y33518900D02*
X-19059450Y33518900D01*
X-16659450Y37918900D02*
X-16659450Y33518900D01*
X-16709450Y37918900D02*
X-19009450Y37918900D01*
D12*
%TO.C,D7*%
G36*
X-33347010Y37118900D02*
G01*
X-33347010Y37918900D01*
X-30947010Y37918900D01*
X-30947010Y37118900D01*
X-33347010Y37118900D01*
G37*
X-33347010Y37118900D02*
X-33347010Y37918900D01*
X-30947010Y37918900D01*
X-30947010Y37118900D01*
X-33347010Y37118900D01*
D11*
X-33347010Y33518900D02*
X-33347010Y37918900D01*
X-30947010Y33518900D02*
X-33347010Y33518900D01*
X-30947010Y37918900D02*
X-30947010Y33518900D01*
X-30997010Y37918900D02*
X-33297010Y37918900D01*
D12*
%TO.C,D3*%
G36*
X-47634570Y37118900D02*
G01*
X-47634570Y37918900D01*
X-45234570Y37918900D01*
X-45234570Y37118900D01*
X-47634570Y37118900D01*
G37*
X-47634570Y37118900D02*
X-47634570Y37918900D01*
X-45234570Y37918900D01*
X-45234570Y37118900D01*
X-47634570Y37118900D01*
D11*
X-47634570Y33518900D02*
X-47634570Y37918900D01*
X-45234570Y33518900D02*
X-47634570Y33518900D01*
X-45234570Y37918900D02*
X-45234570Y33518900D01*
X-45284570Y37918900D02*
X-47584570Y37918900D01*
D12*
%TO.C,D45*%
G36*
X102384810Y37118900D02*
G01*
X102384810Y37918900D01*
X104784810Y37918900D01*
X104784810Y37118900D01*
X102384810Y37118900D01*
G37*
X102384810Y37118900D02*
X102384810Y37918900D01*
X104784810Y37918900D01*
X104784810Y37118900D01*
X102384810Y37118900D01*
D11*
X102384810Y33518900D02*
X102384810Y37918900D01*
X104784810Y33518900D02*
X102384810Y33518900D01*
X104784810Y37918900D02*
X104784810Y33518900D01*
X104734810Y37918900D02*
X102434810Y37918900D01*
D12*
%TO.C,D41*%
G36*
X88097250Y37118900D02*
G01*
X88097250Y37918900D01*
X90497250Y37918900D01*
X90497250Y37118900D01*
X88097250Y37118900D01*
G37*
X88097250Y37118900D02*
X88097250Y37918900D01*
X90497250Y37918900D01*
X90497250Y37118900D01*
X88097250Y37118900D01*
D11*
X88097250Y33518900D02*
X88097250Y37918900D01*
X90497250Y33518900D02*
X88097250Y33518900D01*
X90497250Y37918900D02*
X90497250Y33518900D01*
X90447250Y37918900D02*
X88147250Y37918900D01*
D12*
%TO.C,D37*%
G36*
X73809690Y37118900D02*
G01*
X73809690Y37918900D01*
X76209690Y37918900D01*
X76209690Y37118900D01*
X73809690Y37118900D01*
G37*
X73809690Y37118900D02*
X73809690Y37918900D01*
X76209690Y37918900D01*
X76209690Y37118900D01*
X73809690Y37118900D01*
D11*
X73809690Y33518900D02*
X73809690Y37918900D01*
X76209690Y33518900D02*
X73809690Y33518900D01*
X76209690Y37918900D02*
X76209690Y33518900D01*
X76159690Y37918900D02*
X73859690Y37918900D01*
D12*
%TO.C,D33*%
G36*
X59522130Y37118900D02*
G01*
X59522130Y37918900D01*
X61922130Y37918900D01*
X61922130Y37118900D01*
X59522130Y37118900D01*
G37*
X59522130Y37118900D02*
X59522130Y37918900D01*
X61922130Y37918900D01*
X61922130Y37118900D01*
X59522130Y37118900D01*
D11*
X59522130Y33518900D02*
X59522130Y37918900D01*
X61922130Y33518900D02*
X59522130Y33518900D01*
X61922130Y37918900D02*
X61922130Y33518900D01*
X61872130Y37918900D02*
X59572130Y37918900D01*
D12*
%TO.C,D29*%
G36*
X45234570Y37118900D02*
G01*
X45234570Y37918900D01*
X47634570Y37918900D01*
X47634570Y37118900D01*
X45234570Y37118900D01*
G37*
X45234570Y37118900D02*
X45234570Y37918900D01*
X47634570Y37918900D01*
X47634570Y37118900D01*
X45234570Y37118900D01*
D11*
X45234570Y33518900D02*
X45234570Y37918900D01*
X47634570Y33518900D02*
X45234570Y33518900D01*
X47634570Y37918900D02*
X47634570Y33518900D01*
X47584570Y37918900D02*
X45284570Y37918900D01*
D12*
%TO.C,D26*%
G36*
X34518900Y37118900D02*
G01*
X34518900Y37918900D01*
X36918900Y37918900D01*
X36918900Y37118900D01*
X34518900Y37118900D01*
G37*
X34518900Y37118900D02*
X34518900Y37918900D01*
X36918900Y37918900D01*
X36918900Y37118900D01*
X34518900Y37118900D01*
D11*
X34518900Y33518900D02*
X34518900Y37918900D01*
X36918900Y33518900D02*
X34518900Y33518900D01*
X36918900Y37918900D02*
X36918900Y33518900D01*
X36868900Y37918900D02*
X34568900Y37918900D01*
D12*
%TO.C,D22*%
G36*
X20231340Y37118900D02*
G01*
X20231340Y37918900D01*
X22631340Y37918900D01*
X22631340Y37118900D01*
X20231340Y37118900D01*
G37*
X20231340Y37118900D02*
X20231340Y37918900D01*
X22631340Y37918900D01*
X22631340Y37118900D01*
X20231340Y37118900D01*
D11*
X20231340Y33518900D02*
X20231340Y37918900D01*
X22631340Y33518900D02*
X20231340Y33518900D01*
X22631340Y37918900D02*
X22631340Y33518900D01*
X22581340Y37918900D02*
X20281340Y37918900D01*
D12*
%TO.C,D18*%
G36*
X5943780Y37118900D02*
G01*
X5943780Y37918900D01*
X8343780Y37918900D01*
X8343780Y37118900D01*
X5943780Y37118900D01*
G37*
X5943780Y37118900D02*
X5943780Y37918900D01*
X8343780Y37918900D01*
X8343780Y37118900D01*
X5943780Y37118900D01*
D11*
X5943780Y33518900D02*
X5943780Y37918900D01*
X8343780Y33518900D02*
X5943780Y33518900D01*
X8343780Y37918900D02*
X8343780Y33518900D01*
X8293780Y37918900D02*
X5993780Y37918900D01*
D12*
%TO.C,D14*%
G36*
X-8343780Y37118900D02*
G01*
X-8343780Y37918900D01*
X-5943780Y37918900D01*
X-5943780Y37118900D01*
X-8343780Y37118900D01*
G37*
X-8343780Y37118900D02*
X-8343780Y37918900D01*
X-5943780Y37918900D01*
X-5943780Y37118900D01*
X-8343780Y37118900D01*
D11*
X-8343780Y33518900D02*
X-8343780Y37918900D01*
X-5943780Y33518900D02*
X-8343780Y33518900D01*
X-5943780Y37918900D02*
X-5943780Y33518900D01*
X-5993780Y37918900D02*
X-8293780Y37918900D01*
D12*
%TO.C,D10*%
G36*
X-22631340Y37118900D02*
G01*
X-22631340Y37918900D01*
X-20231340Y37918900D01*
X-20231340Y37118900D01*
X-22631340Y37118900D01*
G37*
X-22631340Y37118900D02*
X-22631340Y37918900D01*
X-20231340Y37918900D01*
X-20231340Y37118900D01*
X-22631340Y37118900D01*
D11*
X-22631340Y33518900D02*
X-22631340Y37918900D01*
X-20231340Y33518900D02*
X-22631340Y33518900D01*
X-20231340Y37918900D02*
X-20231340Y33518900D01*
X-20281340Y37918900D02*
X-22581340Y37918900D01*
D12*
%TO.C,D6*%
G36*
X-36918900Y37118900D02*
G01*
X-36918900Y37918900D01*
X-34518900Y37918900D01*
X-34518900Y37118900D01*
X-36918900Y37118900D01*
G37*
X-36918900Y37118900D02*
X-36918900Y37918900D01*
X-34518900Y37918900D01*
X-34518900Y37118900D01*
X-36918900Y37118900D01*
D11*
X-36918900Y33518900D02*
X-36918900Y37918900D01*
X-34518900Y33518900D02*
X-36918900Y33518900D01*
X-34518900Y37918900D02*
X-34518900Y33518900D01*
X-34568900Y37918900D02*
X-36868900Y37918900D01*
D12*
%TO.C,D44*%
G36*
X98812920Y37118900D02*
G01*
X98812920Y37918900D01*
X101212920Y37918900D01*
X101212920Y37118900D01*
X98812920Y37118900D01*
G37*
X98812920Y37118900D02*
X98812920Y37918900D01*
X101212920Y37918900D01*
X101212920Y37118900D01*
X98812920Y37118900D01*
D11*
X98812920Y33518900D02*
X98812920Y37918900D01*
X101212920Y33518900D02*
X98812920Y33518900D01*
X101212920Y37918900D02*
X101212920Y33518900D01*
X101162920Y37918900D02*
X98862920Y37918900D01*
D12*
%TO.C,D40*%
G36*
X84525360Y37118900D02*
G01*
X84525360Y37918900D01*
X86925360Y37918900D01*
X86925360Y37118900D01*
X84525360Y37118900D01*
G37*
X84525360Y37118900D02*
X84525360Y37918900D01*
X86925360Y37918900D01*
X86925360Y37118900D01*
X84525360Y37118900D01*
D11*
X84525360Y33518900D02*
X84525360Y37918900D01*
X86925360Y33518900D02*
X84525360Y33518900D01*
X86925360Y37918900D02*
X86925360Y33518900D01*
X86875360Y37918900D02*
X84575360Y37918900D01*
D12*
%TO.C,D36*%
G36*
X70237800Y37118900D02*
G01*
X70237800Y37918900D01*
X72637800Y37918900D01*
X72637800Y37118900D01*
X70237800Y37118900D01*
G37*
X70237800Y37118900D02*
X70237800Y37918900D01*
X72637800Y37918900D01*
X72637800Y37118900D01*
X70237800Y37118900D01*
D11*
X70237800Y33518900D02*
X70237800Y37918900D01*
X72637800Y33518900D02*
X70237800Y33518900D01*
X72637800Y37918900D02*
X72637800Y33518900D01*
X72587800Y37918900D02*
X70287800Y37918900D01*
D12*
%TO.C,D32*%
G36*
X55950240Y37118900D02*
G01*
X55950240Y37918900D01*
X58350240Y37918900D01*
X58350240Y37118900D01*
X55950240Y37118900D01*
G37*
X55950240Y37118900D02*
X55950240Y37918900D01*
X58350240Y37918900D01*
X58350240Y37118900D01*
X55950240Y37118900D01*
D11*
X55950240Y33518900D02*
X55950240Y37918900D01*
X58350240Y33518900D02*
X55950240Y33518900D01*
X58350240Y37918900D02*
X58350240Y33518900D01*
X58300240Y37918900D02*
X56000240Y37918900D01*
D12*
%TO.C,D28*%
G36*
X41662680Y37118900D02*
G01*
X41662680Y37918900D01*
X44062680Y37918900D01*
X44062680Y37118900D01*
X41662680Y37118900D01*
G37*
X41662680Y37118900D02*
X41662680Y37918900D01*
X44062680Y37918900D01*
X44062680Y37118900D01*
X41662680Y37118900D01*
D11*
X41662680Y33518900D02*
X41662680Y37918900D01*
X44062680Y33518900D02*
X41662680Y33518900D01*
X44062680Y37918900D02*
X44062680Y33518900D01*
X44012680Y37918900D02*
X41712680Y37918900D01*
D12*
%TO.C,D25*%
G36*
X30947010Y37118900D02*
G01*
X30947010Y37918900D01*
X33347010Y37918900D01*
X33347010Y37118900D01*
X30947010Y37118900D01*
G37*
X30947010Y37118900D02*
X30947010Y37918900D01*
X33347010Y37918900D01*
X33347010Y37118900D01*
X30947010Y37118900D01*
D11*
X30947010Y33518900D02*
X30947010Y37918900D01*
X33347010Y33518900D02*
X30947010Y33518900D01*
X33347010Y37918900D02*
X33347010Y33518900D01*
X33297010Y37918900D02*
X30997010Y37918900D01*
D12*
%TO.C,D21*%
G36*
X16659450Y37118900D02*
G01*
X16659450Y37918900D01*
X19059450Y37918900D01*
X19059450Y37118900D01*
X16659450Y37118900D01*
G37*
X16659450Y37118900D02*
X16659450Y37918900D01*
X19059450Y37918900D01*
X19059450Y37118900D01*
X16659450Y37118900D01*
D11*
X16659450Y33518900D02*
X16659450Y37918900D01*
X19059450Y33518900D02*
X16659450Y33518900D01*
X19059450Y37918900D02*
X19059450Y33518900D01*
X19009450Y37918900D02*
X16709450Y37918900D01*
D12*
%TO.C,D17*%
G36*
X2371890Y37118900D02*
G01*
X2371890Y37918900D01*
X4771890Y37918900D01*
X4771890Y37118900D01*
X2371890Y37118900D01*
G37*
X2371890Y37118900D02*
X2371890Y37918900D01*
X4771890Y37918900D01*
X4771890Y37118900D01*
X2371890Y37118900D01*
D11*
X2371890Y33518900D02*
X2371890Y37918900D01*
X4771890Y33518900D02*
X2371890Y33518900D01*
X4771890Y37918900D02*
X4771890Y33518900D01*
X4721890Y37918900D02*
X2421890Y37918900D01*
D12*
%TO.C,D13*%
G36*
X-11915670Y37118900D02*
G01*
X-11915670Y37918900D01*
X-9515670Y37918900D01*
X-9515670Y37118900D01*
X-11915670Y37118900D01*
G37*
X-11915670Y37118900D02*
X-11915670Y37918900D01*
X-9515670Y37918900D01*
X-9515670Y37118900D01*
X-11915670Y37118900D01*
D11*
X-11915670Y33518900D02*
X-11915670Y37918900D01*
X-9515670Y33518900D02*
X-11915670Y33518900D01*
X-9515670Y37918900D02*
X-9515670Y33518900D01*
X-9565670Y37918900D02*
X-11865670Y37918900D01*
D12*
%TO.C,D9*%
G36*
X-26203230Y37118900D02*
G01*
X-26203230Y37918900D01*
X-23803230Y37918900D01*
X-23803230Y37118900D01*
X-26203230Y37118900D01*
G37*
X-26203230Y37118900D02*
X-26203230Y37918900D01*
X-23803230Y37918900D01*
X-23803230Y37118900D01*
X-26203230Y37118900D01*
D11*
X-26203230Y33518900D02*
X-26203230Y37918900D01*
X-23803230Y33518900D02*
X-26203230Y33518900D01*
X-23803230Y37918900D02*
X-23803230Y33518900D01*
X-23853230Y37918900D02*
X-26153230Y37918900D01*
D12*
%TO.C,D5*%
G36*
X-40490790Y37118900D02*
G01*
X-40490790Y37918900D01*
X-38090790Y37918900D01*
X-38090790Y37118900D01*
X-40490790Y37118900D01*
G37*
X-40490790Y37118900D02*
X-40490790Y37918900D01*
X-38090790Y37918900D01*
X-38090790Y37118900D01*
X-40490790Y37118900D01*
D11*
X-40490790Y33518900D02*
X-40490790Y37918900D01*
X-38090790Y33518900D02*
X-40490790Y33518900D01*
X-38090790Y37918900D02*
X-38090790Y33518900D01*
X-38140790Y37918900D02*
X-40440790Y37918900D01*
%TO.C,LED1*%
X-58142760Y34528270D02*
G75*
G03*
X-58142760Y34528270I-2500000J0D01*
G01*
X-58082760Y32983270D02*
X-58082760Y36073270D01*
X-63632760Y34527808D02*
G75*
G02*
X-58082760Y36073100I2990000J462D01*
G01*
X-63632760Y34528732D02*
G75*
G03*
X-58082760Y32983440I2990000J-462D01*
G01*
%TO.C,K24*%
X-1214285Y-30552540D02*
X-1214285Y-29552540D01*
X-642857Y-30552540D02*
X-1071428Y-29981112D01*
X-642857Y-29552540D02*
X-1214285Y-30123969D01*
X-261904Y-29647779D02*
X-214285Y-29600160D01*
X-119047Y-29552540D01*
X119047Y-29552540D01*
X214285Y-29600160D01*
X261904Y-29647779D01*
X309523Y-29743017D01*
X309523Y-29838255D01*
X261904Y-29981112D01*
X-309523Y-30552540D01*
X309523Y-30552540D01*
X1166666Y-29885874D02*
X1166666Y-30552540D01*
X928571Y-29504921D02*
X690476Y-30219207D01*
X1309523Y-30219207D01*
%TO.C,K1*%
X-105513535Y26471699D02*
X-105513535Y27471699D01*
X-104942106Y26471699D02*
X-105370678Y27043127D01*
X-104942106Y27471699D02*
X-105513535Y26900270D01*
X-103989725Y26471699D02*
X-104561154Y26471699D01*
X-104275440Y26471699D02*
X-104275440Y27471699D01*
X-104370678Y27328841D01*
X-104465916Y27233603D01*
X-104561154Y27185984D01*
%TO.C,K2*%
X-105513535Y7421619D02*
X-105513535Y8421619D01*
X-104942106Y7421619D02*
X-105370678Y7993047D01*
X-104942106Y8421619D02*
X-105513535Y7850190D01*
X-104561154Y8326380D02*
X-104513535Y8374000D01*
X-104418297Y8421619D01*
X-104180201Y8421619D01*
X-104084963Y8374000D01*
X-104037344Y8326380D01*
X-103989725Y8231142D01*
X-103989725Y8135904D01*
X-104037344Y7993047D01*
X-104608773Y7421619D01*
X-103989725Y7421619D01*
%TO.C,K5*%
X-86463455Y26471699D02*
X-86463455Y27471699D01*
X-85892026Y26471699D02*
X-86320598Y27043127D01*
X-85892026Y27471699D02*
X-86463455Y26900270D01*
X-84987264Y27471699D02*
X-85463455Y27471699D01*
X-85511074Y26995508D01*
X-85463455Y27043127D01*
X-85368217Y27090746D01*
X-85130121Y27090746D01*
X-85034883Y27043127D01*
X-84987264Y26995508D01*
X-84939645Y26900270D01*
X-84939645Y26662175D01*
X-84987264Y26566937D01*
X-85034883Y26519318D01*
X-85130121Y26471699D01*
X-85368217Y26471699D01*
X-85463455Y26519318D01*
X-85511074Y26566937D01*
%TO.C,K40*%
X84511074Y26471699D02*
X84511074Y27471699D01*
X85082502Y26471699D02*
X84653931Y27043127D01*
X85082502Y27471699D02*
X84511074Y26900270D01*
X85939645Y27138365D02*
X85939645Y26471699D01*
X85701550Y27519318D02*
X85463455Y26805032D01*
X86082502Y26805032D01*
X86653931Y27471699D02*
X86749169Y27471699D01*
X86844407Y27424080D01*
X86892026Y27376460D01*
X86939645Y27281222D01*
X86987264Y27090746D01*
X86987264Y26852651D01*
X86939645Y26662175D01*
X86892026Y26566937D01*
X86844407Y26519318D01*
X86749169Y26471699D01*
X86653931Y26471699D01*
X86558693Y26519318D01*
X86511074Y26566937D01*
X86463455Y26662175D01*
X86415836Y26852651D01*
X86415836Y27090746D01*
X86463455Y27281222D01*
X86511074Y27376460D01*
X86558693Y27424080D01*
X86653931Y27471699D01*
%TO.C,K10*%
X-67889565Y7421619D02*
X-67889565Y8421619D01*
X-67318137Y7421619D02*
X-67746708Y7993047D01*
X-67318137Y8421619D02*
X-67889565Y7850190D01*
X-66365756Y7421619D02*
X-66937184Y7421619D01*
X-66651470Y7421619D02*
X-66651470Y8421619D01*
X-66746708Y8278761D01*
X-66841946Y8183523D01*
X-66937184Y8135904D01*
X-65746708Y8421619D02*
X-65651470Y8421619D01*
X-65556232Y8374000D01*
X-65508613Y8326380D01*
X-65460994Y8231142D01*
X-65413375Y8040666D01*
X-65413375Y7802571D01*
X-65460994Y7612095D01*
X-65508613Y7516857D01*
X-65556232Y7469238D01*
X-65651470Y7421619D01*
X-65746708Y7421619D01*
X-65841946Y7469238D01*
X-65889565Y7516857D01*
X-65937184Y7612095D01*
X-65984803Y7802571D01*
X-65984803Y8040666D01*
X-65937184Y8231142D01*
X-65889565Y8326380D01*
X-65841946Y8374000D01*
X-65746708Y8421619D01*
%TO.C,K47*%
X103561154Y-30678540D02*
X103561154Y-29678540D01*
X104132582Y-30678540D02*
X103704011Y-30107112D01*
X104132582Y-29678540D02*
X103561154Y-30249969D01*
X104989725Y-30011874D02*
X104989725Y-30678540D01*
X104751630Y-29630921D02*
X104513535Y-30345207D01*
X105132582Y-30345207D01*
X105418297Y-29678540D02*
X106084963Y-29678540D01*
X105656392Y-30678540D01*
%TO.C,K43*%
X84511074Y-30678540D02*
X84511074Y-29678540D01*
X85082502Y-30678540D02*
X84653931Y-30107112D01*
X85082502Y-29678540D02*
X84511074Y-30249969D01*
X85939645Y-30011874D02*
X85939645Y-30678540D01*
X85701550Y-29630921D02*
X85463455Y-30345207D01*
X86082502Y-30345207D01*
X86368217Y-29678540D02*
X86987264Y-29678540D01*
X86653931Y-30059493D01*
X86796788Y-30059493D01*
X86892026Y-30107112D01*
X86939645Y-30154731D01*
X86987264Y-30249969D01*
X86987264Y-30488064D01*
X86939645Y-30583302D01*
X86892026Y-30630921D01*
X86796788Y-30678540D01*
X86511074Y-30678540D01*
X86415836Y-30630921D01*
X86368217Y-30583302D01*
%TO.C,K39*%
X65460994Y-30678540D02*
X65460994Y-29678540D01*
X66032422Y-30678540D02*
X65603851Y-30107112D01*
X66032422Y-29678540D02*
X65460994Y-30249969D01*
X66365756Y-29678540D02*
X66984803Y-29678540D01*
X66651470Y-30059493D01*
X66794327Y-30059493D01*
X66889565Y-30107112D01*
X66937184Y-30154731D01*
X66984803Y-30249969D01*
X66984803Y-30488064D01*
X66937184Y-30583302D01*
X66889565Y-30630921D01*
X66794327Y-30678540D01*
X66508613Y-30678540D01*
X66413375Y-30630921D01*
X66365756Y-30583302D01*
X67460994Y-30678540D02*
X67651470Y-30678540D01*
X67746708Y-30630921D01*
X67794327Y-30583302D01*
X67889565Y-30440445D01*
X67937184Y-30249969D01*
X67937184Y-29869017D01*
X67889565Y-29773779D01*
X67841946Y-29726160D01*
X67746708Y-29678540D01*
X67556232Y-29678540D01*
X67460994Y-29726160D01*
X67413375Y-29773779D01*
X67365756Y-29869017D01*
X67365756Y-30107112D01*
X67413375Y-30202350D01*
X67460994Y-30249969D01*
X67556232Y-30297588D01*
X67746708Y-30297588D01*
X67841946Y-30249969D01*
X67889565Y-30202350D01*
X67937184Y-30107112D01*
%TO.C,K35*%
X46410914Y-30678540D02*
X46410914Y-29678540D01*
X46982342Y-30678540D02*
X46553771Y-30107112D01*
X46982342Y-29678540D02*
X46410914Y-30249969D01*
X47315676Y-29678540D02*
X47934723Y-29678540D01*
X47601390Y-30059493D01*
X47744247Y-30059493D01*
X47839485Y-30107112D01*
X47887104Y-30154731D01*
X47934723Y-30249969D01*
X47934723Y-30488064D01*
X47887104Y-30583302D01*
X47839485Y-30630921D01*
X47744247Y-30678540D01*
X47458533Y-30678540D01*
X47363295Y-30630921D01*
X47315676Y-30583302D01*
X48839485Y-29678540D02*
X48363295Y-29678540D01*
X48315676Y-30154731D01*
X48363295Y-30107112D01*
X48458533Y-30059493D01*
X48696628Y-30059493D01*
X48791866Y-30107112D01*
X48839485Y-30154731D01*
X48887104Y-30249969D01*
X48887104Y-30488064D01*
X48839485Y-30583302D01*
X48791866Y-30630921D01*
X48696628Y-30678540D01*
X48458533Y-30678540D01*
X48363295Y-30630921D01*
X48315676Y-30583302D01*
%TO.C,K31*%
X27360834Y-30678540D02*
X27360834Y-29678540D01*
X27932262Y-30678540D02*
X27503691Y-30107112D01*
X27932262Y-29678540D02*
X27360834Y-30249969D01*
X28265596Y-29678540D02*
X28884643Y-29678540D01*
X28551310Y-30059493D01*
X28694167Y-30059493D01*
X28789405Y-30107112D01*
X28837024Y-30154731D01*
X28884643Y-30249969D01*
X28884643Y-30488064D01*
X28837024Y-30583302D01*
X28789405Y-30630921D01*
X28694167Y-30678540D01*
X28408453Y-30678540D01*
X28313215Y-30630921D01*
X28265596Y-30583302D01*
X29837024Y-30678540D02*
X29265596Y-30678540D01*
X29551310Y-30678540D02*
X29551310Y-29678540D01*
X29456072Y-29821398D01*
X29360834Y-29916636D01*
X29265596Y-29964255D01*
%TO.C,K20*%
X-29789405Y-30678540D02*
X-29789405Y-29678540D01*
X-29217977Y-30678540D02*
X-29646548Y-30107112D01*
X-29217977Y-29678540D02*
X-29789405Y-30249969D01*
X-28837024Y-29773779D02*
X-28789405Y-29726160D01*
X-28694167Y-29678540D01*
X-28456072Y-29678540D01*
X-28360834Y-29726160D01*
X-28313215Y-29773779D01*
X-28265596Y-29869017D01*
X-28265596Y-29964255D01*
X-28313215Y-30107112D01*
X-28884643Y-30678540D01*
X-28265596Y-30678540D01*
X-27646548Y-29678540D02*
X-27551310Y-29678540D01*
X-27456072Y-29726160D01*
X-27408453Y-29773779D01*
X-27360834Y-29869017D01*
X-27313215Y-30059493D01*
X-27313215Y-30297588D01*
X-27360834Y-30488064D01*
X-27408453Y-30583302D01*
X-27456072Y-30630921D01*
X-27551310Y-30678540D01*
X-27646548Y-30678540D01*
X-27741786Y-30630921D01*
X-27789405Y-30583302D01*
X-27837024Y-30488064D01*
X-27884643Y-30297588D01*
X-27884643Y-30059493D01*
X-27837024Y-29869017D01*
X-27789405Y-29773779D01*
X-27741786Y-29726160D01*
X-27646548Y-29678540D01*
%TO.C,K16*%
X-48839485Y-30678540D02*
X-48839485Y-29678540D01*
X-48268057Y-30678540D02*
X-48696628Y-30107112D01*
X-48268057Y-29678540D02*
X-48839485Y-30249969D01*
X-47315676Y-30678540D02*
X-47887104Y-30678540D01*
X-47601390Y-30678540D02*
X-47601390Y-29678540D01*
X-47696628Y-29821398D01*
X-47791866Y-29916636D01*
X-47887104Y-29964255D01*
X-46458533Y-29678540D02*
X-46649009Y-29678540D01*
X-46744247Y-29726160D01*
X-46791866Y-29773779D01*
X-46887104Y-29916636D01*
X-46934723Y-30107112D01*
X-46934723Y-30488064D01*
X-46887104Y-30583302D01*
X-46839485Y-30630921D01*
X-46744247Y-30678540D01*
X-46553771Y-30678540D01*
X-46458533Y-30630921D01*
X-46410914Y-30583302D01*
X-46363295Y-30488064D01*
X-46363295Y-30249969D01*
X-46410914Y-30154731D01*
X-46458533Y-30107112D01*
X-46553771Y-30059493D01*
X-46744247Y-30059493D01*
X-46839485Y-30107112D01*
X-46887104Y-30154731D01*
X-46934723Y-30249969D01*
%TO.C,K12*%
X-67889565Y-30678540D02*
X-67889565Y-29678540D01*
X-67318137Y-30678540D02*
X-67746708Y-30107112D01*
X-67318137Y-29678540D02*
X-67889565Y-30249969D01*
X-66365756Y-30678540D02*
X-66937184Y-30678540D01*
X-66651470Y-30678540D02*
X-66651470Y-29678540D01*
X-66746708Y-29821398D01*
X-66841946Y-29916636D01*
X-66937184Y-29964255D01*
X-65984803Y-29773779D02*
X-65937184Y-29726160D01*
X-65841946Y-29678540D01*
X-65603851Y-29678540D01*
X-65508613Y-29726160D01*
X-65460994Y-29773779D01*
X-65413375Y-29869017D01*
X-65413375Y-29964255D01*
X-65460994Y-30107112D01*
X-66032422Y-30678540D01*
X-65413375Y-30678540D01*
%TO.C,K8*%
X-86463455Y-30678540D02*
X-86463455Y-29678540D01*
X-85892026Y-30678540D02*
X-86320598Y-30107112D01*
X-85892026Y-29678540D02*
X-86463455Y-30249969D01*
X-85320598Y-30107112D02*
X-85415836Y-30059493D01*
X-85463455Y-30011874D01*
X-85511074Y-29916636D01*
X-85511074Y-29869017D01*
X-85463455Y-29773779D01*
X-85415836Y-29726160D01*
X-85320598Y-29678540D01*
X-85130121Y-29678540D01*
X-85034883Y-29726160D01*
X-84987264Y-29773779D01*
X-84939645Y-29869017D01*
X-84939645Y-29916636D01*
X-84987264Y-30011874D01*
X-85034883Y-30059493D01*
X-85130121Y-30107112D01*
X-85320598Y-30107112D01*
X-85415836Y-30154731D01*
X-85463455Y-30202350D01*
X-85511074Y-30297588D01*
X-85511074Y-30488064D01*
X-85463455Y-30583302D01*
X-85415836Y-30630921D01*
X-85320598Y-30678540D01*
X-85130121Y-30678540D01*
X-85034883Y-30630921D01*
X-84987264Y-30583302D01*
X-84939645Y-30488064D01*
X-84939645Y-30297588D01*
X-84987264Y-30202350D01*
X-85034883Y-30154731D01*
X-85130121Y-30107112D01*
%TO.C,K4*%
X-105513535Y-30678540D02*
X-105513535Y-29678540D01*
X-104942106Y-30678540D02*
X-105370678Y-30107112D01*
X-104942106Y-29678540D02*
X-105513535Y-30249969D01*
X-104084963Y-30011874D02*
X-104084963Y-30678540D01*
X-104323059Y-29630921D02*
X-104561154Y-30345207D01*
X-103942106Y-30345207D01*
%TO.C,K46*%
X103561154Y-11628460D02*
X103561154Y-10628460D01*
X104132582Y-11628460D02*
X103704011Y-11057032D01*
X104132582Y-10628460D02*
X103561154Y-11199889D01*
X104989725Y-10961794D02*
X104989725Y-11628460D01*
X104751630Y-10580841D02*
X104513535Y-11295127D01*
X105132582Y-11295127D01*
X105942106Y-10628460D02*
X105751630Y-10628460D01*
X105656392Y-10676080D01*
X105608773Y-10723699D01*
X105513535Y-10866556D01*
X105465916Y-11057032D01*
X105465916Y-11437984D01*
X105513535Y-11533222D01*
X105561154Y-11580841D01*
X105656392Y-11628460D01*
X105846868Y-11628460D01*
X105942106Y-11580841D01*
X105989725Y-11533222D01*
X106037344Y-11437984D01*
X106037344Y-11199889D01*
X105989725Y-11104651D01*
X105942106Y-11057032D01*
X105846868Y-11009413D01*
X105656392Y-11009413D01*
X105561154Y-11057032D01*
X105513535Y-11104651D01*
X105465916Y-11199889D01*
%TO.C,K42*%
X84511074Y-11628460D02*
X84511074Y-10628460D01*
X85082502Y-11628460D02*
X84653931Y-11057032D01*
X85082502Y-10628460D02*
X84511074Y-11199889D01*
X85939645Y-10961794D02*
X85939645Y-11628460D01*
X85701550Y-10580841D02*
X85463455Y-11295127D01*
X86082502Y-11295127D01*
X86415836Y-10723699D02*
X86463455Y-10676080D01*
X86558693Y-10628460D01*
X86796788Y-10628460D01*
X86892026Y-10676080D01*
X86939645Y-10723699D01*
X86987264Y-10818937D01*
X86987264Y-10914175D01*
X86939645Y-11057032D01*
X86368217Y-11628460D01*
X86987264Y-11628460D01*
%TO.C,K38*%
X65460994Y-11628460D02*
X65460994Y-10628460D01*
X66032422Y-11628460D02*
X65603851Y-11057032D01*
X66032422Y-10628460D02*
X65460994Y-11199889D01*
X66365756Y-10628460D02*
X66984803Y-10628460D01*
X66651470Y-11009413D01*
X66794327Y-11009413D01*
X66889565Y-11057032D01*
X66937184Y-11104651D01*
X66984803Y-11199889D01*
X66984803Y-11437984D01*
X66937184Y-11533222D01*
X66889565Y-11580841D01*
X66794327Y-11628460D01*
X66508613Y-11628460D01*
X66413375Y-11580841D01*
X66365756Y-11533222D01*
X67556232Y-11057032D02*
X67460994Y-11009413D01*
X67413375Y-10961794D01*
X67365756Y-10866556D01*
X67365756Y-10818937D01*
X67413375Y-10723699D01*
X67460994Y-10676080D01*
X67556232Y-10628460D01*
X67746708Y-10628460D01*
X67841946Y-10676080D01*
X67889565Y-10723699D01*
X67937184Y-10818937D01*
X67937184Y-10866556D01*
X67889565Y-10961794D01*
X67841946Y-11009413D01*
X67746708Y-11057032D01*
X67556232Y-11057032D01*
X67460994Y-11104651D01*
X67413375Y-11152270D01*
X67365756Y-11247508D01*
X67365756Y-11437984D01*
X67413375Y-11533222D01*
X67460994Y-11580841D01*
X67556232Y-11628460D01*
X67746708Y-11628460D01*
X67841946Y-11580841D01*
X67889565Y-11533222D01*
X67937184Y-11437984D01*
X67937184Y-11247508D01*
X67889565Y-11152270D01*
X67841946Y-11104651D01*
X67746708Y-11057032D01*
%TO.C,K34*%
X46410914Y-11628460D02*
X46410914Y-10628460D01*
X46982342Y-11628460D02*
X46553771Y-11057032D01*
X46982342Y-10628460D02*
X46410914Y-11199889D01*
X47315676Y-10628460D02*
X47934723Y-10628460D01*
X47601390Y-11009413D01*
X47744247Y-11009413D01*
X47839485Y-11057032D01*
X47887104Y-11104651D01*
X47934723Y-11199889D01*
X47934723Y-11437984D01*
X47887104Y-11533222D01*
X47839485Y-11580841D01*
X47744247Y-11628460D01*
X47458533Y-11628460D01*
X47363295Y-11580841D01*
X47315676Y-11533222D01*
X48791866Y-10961794D02*
X48791866Y-11628460D01*
X48553771Y-10580841D02*
X48315676Y-11295127D01*
X48934723Y-11295127D01*
%TO.C,K30*%
X27360834Y-11628460D02*
X27360834Y-10628460D01*
X27932262Y-11628460D02*
X27503691Y-11057032D01*
X27932262Y-10628460D02*
X27360834Y-11199889D01*
X28265596Y-10628460D02*
X28884643Y-10628460D01*
X28551310Y-11009413D01*
X28694167Y-11009413D01*
X28789405Y-11057032D01*
X28837024Y-11104651D01*
X28884643Y-11199889D01*
X28884643Y-11437984D01*
X28837024Y-11533222D01*
X28789405Y-11580841D01*
X28694167Y-11628460D01*
X28408453Y-11628460D01*
X28313215Y-11580841D01*
X28265596Y-11533222D01*
X29503691Y-10628460D02*
X29598929Y-10628460D01*
X29694167Y-10676080D01*
X29741786Y-10723699D01*
X29789405Y-10818937D01*
X29837024Y-11009413D01*
X29837024Y-11247508D01*
X29789405Y-11437984D01*
X29741786Y-11533222D01*
X29694167Y-11580841D01*
X29598929Y-11628460D01*
X29503691Y-11628460D01*
X29408453Y-11580841D01*
X29360834Y-11533222D01*
X29313215Y-11437984D01*
X29265596Y-11247508D01*
X29265596Y-11009413D01*
X29313215Y-10818937D01*
X29360834Y-10723699D01*
X29408453Y-10676080D01*
X29503691Y-10628460D01*
%TO.C,K27*%
X8310754Y-11628460D02*
X8310754Y-10628460D01*
X8882182Y-11628460D02*
X8453611Y-11057032D01*
X8882182Y-10628460D02*
X8310754Y-11199889D01*
X9263135Y-10723699D02*
X9310754Y-10676080D01*
X9405992Y-10628460D01*
X9644087Y-10628460D01*
X9739325Y-10676080D01*
X9786944Y-10723699D01*
X9834563Y-10818937D01*
X9834563Y-10914175D01*
X9786944Y-11057032D01*
X9215516Y-11628460D01*
X9834563Y-11628460D01*
X10167897Y-10628460D02*
X10834563Y-10628460D01*
X10405992Y-11628460D01*
%TO.C,K23*%
X-10739325Y-11628460D02*
X-10739325Y-10628460D01*
X-10167897Y-11628460D02*
X-10596468Y-11057032D01*
X-10167897Y-10628460D02*
X-10739325Y-11199889D01*
X-9786944Y-10723699D02*
X-9739325Y-10676080D01*
X-9644087Y-10628460D01*
X-9405992Y-10628460D01*
X-9310754Y-10676080D01*
X-9263135Y-10723699D01*
X-9215516Y-10818937D01*
X-9215516Y-10914175D01*
X-9263135Y-11057032D01*
X-9834563Y-11628460D01*
X-9215516Y-11628460D01*
X-8882182Y-10628460D02*
X-8263135Y-10628460D01*
X-8596468Y-11009413D01*
X-8453611Y-11009413D01*
X-8358373Y-11057032D01*
X-8310754Y-11104651D01*
X-8263135Y-11199889D01*
X-8263135Y-11437984D01*
X-8310754Y-11533222D01*
X-8358373Y-11580841D01*
X-8453611Y-11628460D01*
X-8739325Y-11628460D01*
X-8834563Y-11580841D01*
X-8882182Y-11533222D01*
%TO.C,K19*%
X-29789405Y-11628460D02*
X-29789405Y-10628460D01*
X-29217977Y-11628460D02*
X-29646548Y-11057032D01*
X-29217977Y-10628460D02*
X-29789405Y-11199889D01*
X-28265596Y-11628460D02*
X-28837024Y-11628460D01*
X-28551310Y-11628460D02*
X-28551310Y-10628460D01*
X-28646548Y-10771318D01*
X-28741786Y-10866556D01*
X-28837024Y-10914175D01*
X-27789405Y-11628460D02*
X-27598929Y-11628460D01*
X-27503691Y-11580841D01*
X-27456072Y-11533222D01*
X-27360834Y-11390365D01*
X-27313215Y-11199889D01*
X-27313215Y-10818937D01*
X-27360834Y-10723699D01*
X-27408453Y-10676080D01*
X-27503691Y-10628460D01*
X-27694167Y-10628460D01*
X-27789405Y-10676080D01*
X-27837024Y-10723699D01*
X-27884643Y-10818937D01*
X-27884643Y-11057032D01*
X-27837024Y-11152270D01*
X-27789405Y-11199889D01*
X-27694167Y-11247508D01*
X-27503691Y-11247508D01*
X-27408453Y-11199889D01*
X-27360834Y-11152270D01*
X-27313215Y-11057032D01*
%TO.C,K15*%
X-48839485Y-11628460D02*
X-48839485Y-10628460D01*
X-48268057Y-11628460D02*
X-48696628Y-11057032D01*
X-48268057Y-10628460D02*
X-48839485Y-11199889D01*
X-47315676Y-11628460D02*
X-47887104Y-11628460D01*
X-47601390Y-11628460D02*
X-47601390Y-10628460D01*
X-47696628Y-10771318D01*
X-47791866Y-10866556D01*
X-47887104Y-10914175D01*
X-46410914Y-10628460D02*
X-46887104Y-10628460D01*
X-46934723Y-11104651D01*
X-46887104Y-11057032D01*
X-46791866Y-11009413D01*
X-46553771Y-11009413D01*
X-46458533Y-11057032D01*
X-46410914Y-11104651D01*
X-46363295Y-11199889D01*
X-46363295Y-11437984D01*
X-46410914Y-11533222D01*
X-46458533Y-11580841D01*
X-46553771Y-11628460D01*
X-46791866Y-11628460D01*
X-46887104Y-11580841D01*
X-46934723Y-11533222D01*
%TO.C,K11*%
X-67889565Y-11628460D02*
X-67889565Y-10628460D01*
X-67318137Y-11628460D02*
X-67746708Y-11057032D01*
X-67318137Y-10628460D02*
X-67889565Y-11199889D01*
X-66365756Y-11628460D02*
X-66937184Y-11628460D01*
X-66651470Y-11628460D02*
X-66651470Y-10628460D01*
X-66746708Y-10771318D01*
X-66841946Y-10866556D01*
X-66937184Y-10914175D01*
X-65413375Y-11628460D02*
X-65984803Y-11628460D01*
X-65699089Y-11628460D02*
X-65699089Y-10628460D01*
X-65794327Y-10771318D01*
X-65889565Y-10866556D01*
X-65984803Y-10914175D01*
%TO.C,K7*%
X-86463455Y-11628460D02*
X-86463455Y-10628460D01*
X-85892026Y-11628460D02*
X-86320598Y-11057032D01*
X-85892026Y-10628460D02*
X-86463455Y-11199889D01*
X-85558693Y-10628460D02*
X-84892026Y-10628460D01*
X-85320598Y-11628460D01*
%TO.C,K3*%
X-105513535Y-11628460D02*
X-105513535Y-10628460D01*
X-104942106Y-11628460D02*
X-105370678Y-11057032D01*
X-104942106Y-10628460D02*
X-105513535Y-11199889D01*
X-104608773Y-10628460D02*
X-103989725Y-10628460D01*
X-104323059Y-11009413D01*
X-104180201Y-11009413D01*
X-104084963Y-11057032D01*
X-104037344Y-11104651D01*
X-103989725Y-11199889D01*
X-103989725Y-11437984D01*
X-104037344Y-11533222D01*
X-104084963Y-11580841D01*
X-104180201Y-11628460D01*
X-104465916Y-11628460D01*
X-104561154Y-11580841D01*
X-104608773Y-11533222D01*
%TO.C,K45*%
X103561154Y7421619D02*
X103561154Y8421619D01*
X104132582Y7421619D02*
X103704011Y7993047D01*
X104132582Y8421619D02*
X103561154Y7850190D01*
X104989725Y8088285D02*
X104989725Y7421619D01*
X104751630Y8469238D02*
X104513535Y7754952D01*
X105132582Y7754952D01*
X105989725Y8421619D02*
X105513535Y8421619D01*
X105465916Y7945428D01*
X105513535Y7993047D01*
X105608773Y8040666D01*
X105846868Y8040666D01*
X105942106Y7993047D01*
X105989725Y7945428D01*
X106037344Y7850190D01*
X106037344Y7612095D01*
X105989725Y7516857D01*
X105942106Y7469238D01*
X105846868Y7421619D01*
X105608773Y7421619D01*
X105513535Y7469238D01*
X105465916Y7516857D01*
%TO.C,K41*%
X84511074Y7421619D02*
X84511074Y8421619D01*
X85082502Y7421619D02*
X84653931Y7993047D01*
X85082502Y8421619D02*
X84511074Y7850190D01*
X85939645Y8088285D02*
X85939645Y7421619D01*
X85701550Y8469238D02*
X85463455Y7754952D01*
X86082502Y7754952D01*
X86987264Y7421619D02*
X86415836Y7421619D01*
X86701550Y7421619D02*
X86701550Y8421619D01*
X86606312Y8278761D01*
X86511074Y8183523D01*
X86415836Y8135904D01*
%TO.C,K37*%
X65460994Y7421619D02*
X65460994Y8421619D01*
X66032422Y7421619D02*
X65603851Y7993047D01*
X66032422Y8421619D02*
X65460994Y7850190D01*
X66365756Y8421619D02*
X66984803Y8421619D01*
X66651470Y8040666D01*
X66794327Y8040666D01*
X66889565Y7993047D01*
X66937184Y7945428D01*
X66984803Y7850190D01*
X66984803Y7612095D01*
X66937184Y7516857D01*
X66889565Y7469238D01*
X66794327Y7421619D01*
X66508613Y7421619D01*
X66413375Y7469238D01*
X66365756Y7516857D01*
X67318137Y8421619D02*
X67984803Y8421619D01*
X67556232Y7421619D01*
%TO.C,K33*%
X46410914Y7421619D02*
X46410914Y8421619D01*
X46982342Y7421619D02*
X46553771Y7993047D01*
X46982342Y8421619D02*
X46410914Y7850190D01*
X47315676Y8421619D02*
X47934723Y8421619D01*
X47601390Y8040666D01*
X47744247Y8040666D01*
X47839485Y7993047D01*
X47887104Y7945428D01*
X47934723Y7850190D01*
X47934723Y7612095D01*
X47887104Y7516857D01*
X47839485Y7469238D01*
X47744247Y7421619D01*
X47458533Y7421619D01*
X47363295Y7469238D01*
X47315676Y7516857D01*
X48268057Y8421619D02*
X48887104Y8421619D01*
X48553771Y8040666D01*
X48696628Y8040666D01*
X48791866Y7993047D01*
X48839485Y7945428D01*
X48887104Y7850190D01*
X48887104Y7612095D01*
X48839485Y7516857D01*
X48791866Y7469238D01*
X48696628Y7421619D01*
X48410914Y7421619D01*
X48315676Y7469238D01*
X48268057Y7516857D01*
%TO.C,K29*%
X27360834Y7421619D02*
X27360834Y8421619D01*
X27932262Y7421619D02*
X27503691Y7993047D01*
X27932262Y8421619D02*
X27360834Y7850190D01*
X28313215Y8326380D02*
X28360834Y8374000D01*
X28456072Y8421619D01*
X28694167Y8421619D01*
X28789405Y8374000D01*
X28837024Y8326380D01*
X28884643Y8231142D01*
X28884643Y8135904D01*
X28837024Y7993047D01*
X28265596Y7421619D01*
X28884643Y7421619D01*
X29360834Y7421619D02*
X29551310Y7421619D01*
X29646548Y7469238D01*
X29694167Y7516857D01*
X29789405Y7659714D01*
X29837024Y7850190D01*
X29837024Y8231142D01*
X29789405Y8326380D01*
X29741786Y8374000D01*
X29646548Y8421619D01*
X29456072Y8421619D01*
X29360834Y8374000D01*
X29313215Y8326380D01*
X29265596Y8231142D01*
X29265596Y7993047D01*
X29313215Y7897809D01*
X29360834Y7850190D01*
X29456072Y7802571D01*
X29646548Y7802571D01*
X29741786Y7850190D01*
X29789405Y7897809D01*
X29837024Y7993047D01*
%TO.C,K26*%
X8310754Y7421619D02*
X8310754Y8421619D01*
X8882182Y7421619D02*
X8453611Y7993047D01*
X8882182Y8421619D02*
X8310754Y7850190D01*
X9263135Y8326380D02*
X9310754Y8374000D01*
X9405992Y8421619D01*
X9644087Y8421619D01*
X9739325Y8374000D01*
X9786944Y8326380D01*
X9834563Y8231142D01*
X9834563Y8135904D01*
X9786944Y7993047D01*
X9215516Y7421619D01*
X9834563Y7421619D01*
X10691706Y8421619D02*
X10501230Y8421619D01*
X10405992Y8374000D01*
X10358373Y8326380D01*
X10263135Y8183523D01*
X10215516Y7993047D01*
X10215516Y7612095D01*
X10263135Y7516857D01*
X10310754Y7469238D01*
X10405992Y7421619D01*
X10596468Y7421619D01*
X10691706Y7469238D01*
X10739325Y7516857D01*
X10786944Y7612095D01*
X10786944Y7850190D01*
X10739325Y7945428D01*
X10691706Y7993047D01*
X10596468Y8040666D01*
X10405992Y8040666D01*
X10310754Y7993047D01*
X10263135Y7945428D01*
X10215516Y7850190D01*
%TO.C,K22*%
X-10739325Y7421619D02*
X-10739325Y8421619D01*
X-10167897Y7421619D02*
X-10596468Y7993047D01*
X-10167897Y8421619D02*
X-10739325Y7850190D01*
X-9786944Y8326380D02*
X-9739325Y8374000D01*
X-9644087Y8421619D01*
X-9405992Y8421619D01*
X-9310754Y8374000D01*
X-9263135Y8326380D01*
X-9215516Y8231142D01*
X-9215516Y8135904D01*
X-9263135Y7993047D01*
X-9834563Y7421619D01*
X-9215516Y7421619D01*
X-8834563Y8326380D02*
X-8786944Y8374000D01*
X-8691706Y8421619D01*
X-8453611Y8421619D01*
X-8358373Y8374000D01*
X-8310754Y8326380D01*
X-8263135Y8231142D01*
X-8263135Y8135904D01*
X-8310754Y7993047D01*
X-8882182Y7421619D01*
X-8263135Y7421619D01*
%TO.C,K18*%
X-29789405Y7421619D02*
X-29789405Y8421619D01*
X-29217977Y7421619D02*
X-29646548Y7993047D01*
X-29217977Y8421619D02*
X-29789405Y7850190D01*
X-28265596Y7421619D02*
X-28837024Y7421619D01*
X-28551310Y7421619D02*
X-28551310Y8421619D01*
X-28646548Y8278761D01*
X-28741786Y8183523D01*
X-28837024Y8135904D01*
X-27694167Y7993047D02*
X-27789405Y8040666D01*
X-27837024Y8088285D01*
X-27884643Y8183523D01*
X-27884643Y8231142D01*
X-27837024Y8326380D01*
X-27789405Y8374000D01*
X-27694167Y8421619D01*
X-27503691Y8421619D01*
X-27408453Y8374000D01*
X-27360834Y8326380D01*
X-27313215Y8231142D01*
X-27313215Y8183523D01*
X-27360834Y8088285D01*
X-27408453Y8040666D01*
X-27503691Y7993047D01*
X-27694167Y7993047D01*
X-27789405Y7945428D01*
X-27837024Y7897809D01*
X-27884643Y7802571D01*
X-27884643Y7612095D01*
X-27837024Y7516857D01*
X-27789405Y7469238D01*
X-27694167Y7421619D01*
X-27503691Y7421619D01*
X-27408453Y7469238D01*
X-27360834Y7516857D01*
X-27313215Y7612095D01*
X-27313215Y7802571D01*
X-27360834Y7897809D01*
X-27408453Y7945428D01*
X-27503691Y7993047D01*
%TO.C,K14*%
X-48839485Y7421619D02*
X-48839485Y8421619D01*
X-48268057Y7421619D02*
X-48696628Y7993047D01*
X-48268057Y8421619D02*
X-48839485Y7850190D01*
X-47315676Y7421619D02*
X-47887104Y7421619D01*
X-47601390Y7421619D02*
X-47601390Y8421619D01*
X-47696628Y8278761D01*
X-47791866Y8183523D01*
X-47887104Y8135904D01*
X-46458533Y8088285D02*
X-46458533Y7421619D01*
X-46696628Y8469238D02*
X-46934723Y7754952D01*
X-46315676Y7754952D01*
%TO.C,K6*%
X-86463455Y7421619D02*
X-86463455Y8421619D01*
X-85892026Y7421619D02*
X-86320598Y7993047D01*
X-85892026Y8421619D02*
X-86463455Y7850190D01*
X-85034883Y8421619D02*
X-85225360Y8421619D01*
X-85320598Y8374000D01*
X-85368217Y8326380D01*
X-85463455Y8183523D01*
X-85511074Y7993047D01*
X-85511074Y7612095D01*
X-85463455Y7516857D01*
X-85415836Y7469238D01*
X-85320598Y7421619D01*
X-85130121Y7421619D01*
X-85034883Y7469238D01*
X-84987264Y7516857D01*
X-84939645Y7612095D01*
X-84939645Y7850190D01*
X-84987264Y7945428D01*
X-85034883Y7993047D01*
X-85130121Y8040666D01*
X-85320598Y8040666D01*
X-85415836Y7993047D01*
X-85463455Y7945428D01*
X-85511074Y7850190D01*
%TO.C,K44*%
X103561154Y26471699D02*
X103561154Y27471699D01*
X104132582Y26471699D02*
X103704011Y27043127D01*
X104132582Y27471699D02*
X103561154Y26900270D01*
X104989725Y27138365D02*
X104989725Y26471699D01*
X104751630Y27519318D02*
X104513535Y26805032D01*
X105132582Y26805032D01*
X105942106Y27138365D02*
X105942106Y26471699D01*
X105704011Y27519318D02*
X105465916Y26805032D01*
X106084963Y26805032D01*
%TO.C,K36*%
X65460994Y26471699D02*
X65460994Y27471699D01*
X66032422Y26471699D02*
X65603851Y27043127D01*
X66032422Y27471699D02*
X65460994Y26900270D01*
X66365756Y27471699D02*
X66984803Y27471699D01*
X66651470Y27090746D01*
X66794327Y27090746D01*
X66889565Y27043127D01*
X66937184Y26995508D01*
X66984803Y26900270D01*
X66984803Y26662175D01*
X66937184Y26566937D01*
X66889565Y26519318D01*
X66794327Y26471699D01*
X66508613Y26471699D01*
X66413375Y26519318D01*
X66365756Y26566937D01*
X67841946Y27471699D02*
X67651470Y27471699D01*
X67556232Y27424080D01*
X67508613Y27376460D01*
X67413375Y27233603D01*
X67365756Y27043127D01*
X67365756Y26662175D01*
X67413375Y26566937D01*
X67460994Y26519318D01*
X67556232Y26471699D01*
X67746708Y26471699D01*
X67841946Y26519318D01*
X67889565Y26566937D01*
X67937184Y26662175D01*
X67937184Y26900270D01*
X67889565Y26995508D01*
X67841946Y27043127D01*
X67746708Y27090746D01*
X67556232Y27090746D01*
X67460994Y27043127D01*
X67413375Y26995508D01*
X67365756Y26900270D01*
%TO.C,K32*%
X46410914Y26471699D02*
X46410914Y27471699D01*
X46982342Y26471699D02*
X46553771Y27043127D01*
X46982342Y27471699D02*
X46410914Y26900270D01*
X47315676Y27471699D02*
X47934723Y27471699D01*
X47601390Y27090746D01*
X47744247Y27090746D01*
X47839485Y27043127D01*
X47887104Y26995508D01*
X47934723Y26900270D01*
X47934723Y26662175D01*
X47887104Y26566937D01*
X47839485Y26519318D01*
X47744247Y26471699D01*
X47458533Y26471699D01*
X47363295Y26519318D01*
X47315676Y26566937D01*
X48315676Y27376460D02*
X48363295Y27424080D01*
X48458533Y27471699D01*
X48696628Y27471699D01*
X48791866Y27424080D01*
X48839485Y27376460D01*
X48887104Y27281222D01*
X48887104Y27185984D01*
X48839485Y27043127D01*
X48268057Y26471699D01*
X48887104Y26471699D01*
%TO.C,K28*%
X27360834Y26471699D02*
X27360834Y27471699D01*
X27932262Y26471699D02*
X27503691Y27043127D01*
X27932262Y27471699D02*
X27360834Y26900270D01*
X28313215Y27376460D02*
X28360834Y27424080D01*
X28456072Y27471699D01*
X28694167Y27471699D01*
X28789405Y27424080D01*
X28837024Y27376460D01*
X28884643Y27281222D01*
X28884643Y27185984D01*
X28837024Y27043127D01*
X28265596Y26471699D01*
X28884643Y26471699D01*
X29456072Y27043127D02*
X29360834Y27090746D01*
X29313215Y27138365D01*
X29265596Y27233603D01*
X29265596Y27281222D01*
X29313215Y27376460D01*
X29360834Y27424080D01*
X29456072Y27471699D01*
X29646548Y27471699D01*
X29741786Y27424080D01*
X29789405Y27376460D01*
X29837024Y27281222D01*
X29837024Y27233603D01*
X29789405Y27138365D01*
X29741786Y27090746D01*
X29646548Y27043127D01*
X29456072Y27043127D01*
X29360834Y26995508D01*
X29313215Y26947889D01*
X29265596Y26852651D01*
X29265596Y26662175D01*
X29313215Y26566937D01*
X29360834Y26519318D01*
X29456072Y26471699D01*
X29646548Y26471699D01*
X29741786Y26519318D01*
X29789405Y26566937D01*
X29837024Y26662175D01*
X29837024Y26852651D01*
X29789405Y26947889D01*
X29741786Y26995508D01*
X29646548Y27043127D01*
%TO.C,K25*%
X8310754Y26471699D02*
X8310754Y27471699D01*
X8882182Y26471699D02*
X8453611Y27043127D01*
X8882182Y27471699D02*
X8310754Y26900270D01*
X9263135Y27376460D02*
X9310754Y27424080D01*
X9405992Y27471699D01*
X9644087Y27471699D01*
X9739325Y27424080D01*
X9786944Y27376460D01*
X9834563Y27281222D01*
X9834563Y27185984D01*
X9786944Y27043127D01*
X9215516Y26471699D01*
X9834563Y26471699D01*
X10739325Y27471699D02*
X10263135Y27471699D01*
X10215516Y26995508D01*
X10263135Y27043127D01*
X10358373Y27090746D01*
X10596468Y27090746D01*
X10691706Y27043127D01*
X10739325Y26995508D01*
X10786944Y26900270D01*
X10786944Y26662175D01*
X10739325Y26566937D01*
X10691706Y26519318D01*
X10596468Y26471699D01*
X10358373Y26471699D01*
X10263135Y26519318D01*
X10215516Y26566937D01*
%TO.C,K21*%
X-10739325Y26471699D02*
X-10739325Y27471699D01*
X-10167897Y26471699D02*
X-10596468Y27043127D01*
X-10167897Y27471699D02*
X-10739325Y26900270D01*
X-9786944Y27376460D02*
X-9739325Y27424080D01*
X-9644087Y27471699D01*
X-9405992Y27471699D01*
X-9310754Y27424080D01*
X-9263135Y27376460D01*
X-9215516Y27281222D01*
X-9215516Y27185984D01*
X-9263135Y27043127D01*
X-9834563Y26471699D01*
X-9215516Y26471699D01*
X-8263135Y26471699D02*
X-8834563Y26471699D01*
X-8548849Y26471699D02*
X-8548849Y27471699D01*
X-8644087Y27328841D01*
X-8739325Y27233603D01*
X-8834563Y27185984D01*
%TO.C,K17*%
X-29789405Y26471699D02*
X-29789405Y27471699D01*
X-29217977Y26471699D02*
X-29646548Y27043127D01*
X-29217977Y27471699D02*
X-29789405Y26900270D01*
X-28265596Y26471699D02*
X-28837024Y26471699D01*
X-28551310Y26471699D02*
X-28551310Y27471699D01*
X-28646548Y27328841D01*
X-28741786Y27233603D01*
X-28837024Y27185984D01*
X-27932262Y27471699D02*
X-27265596Y27471699D01*
X-27694167Y26471699D01*
%TO.C,K13*%
X-48839485Y26471699D02*
X-48839485Y27471699D01*
X-48268057Y26471699D02*
X-48696628Y27043127D01*
X-48268057Y27471699D02*
X-48839485Y26900270D01*
X-47315676Y26471699D02*
X-47887104Y26471699D01*
X-47601390Y26471699D02*
X-47601390Y27471699D01*
X-47696628Y27328841D01*
X-47791866Y27233603D01*
X-47887104Y27185984D01*
X-46982342Y27471699D02*
X-46363295Y27471699D01*
X-46696628Y27090746D01*
X-46553771Y27090746D01*
X-46458533Y27043127D01*
X-46410914Y26995508D01*
X-46363295Y26900270D01*
X-46363295Y26662175D01*
X-46410914Y26566937D01*
X-46458533Y26519318D01*
X-46553771Y26471699D01*
X-46839485Y26471699D01*
X-46934723Y26519318D01*
X-46982342Y26566937D01*
%TO.C,K9*%
X-67413375Y26471699D02*
X-67413375Y27471699D01*
X-66841946Y26471699D02*
X-67270518Y27043127D01*
X-66841946Y27471699D02*
X-67413375Y26900270D01*
X-66365756Y26471699D02*
X-66175280Y26471699D01*
X-66080041Y26519318D01*
X-66032422Y26566937D01*
X-65937184Y26709794D01*
X-65889565Y26900270D01*
X-65889565Y27281222D01*
X-65937184Y27376460D01*
X-65984803Y27424080D01*
X-66080041Y27471699D01*
X-66270518Y27471699D01*
X-66365756Y27424080D01*
X-66413375Y27376460D01*
X-66460994Y27281222D01*
X-66460994Y27043127D01*
X-66413375Y26947889D01*
X-66365756Y26900270D01*
X-66270518Y26852651D01*
X-66080041Y26852651D01*
X-65984803Y26900270D01*
X-65937184Y26947889D01*
X-65889565Y27043127D01*
%TO.C,SW1*%
X-73639873Y38929138D02*
X-73497016Y38881519D01*
X-73258920Y38881519D01*
X-73163682Y38929138D01*
X-73116063Y38976757D01*
X-73068444Y39071995D01*
X-73068444Y39167233D01*
X-73116063Y39262471D01*
X-73163682Y39310090D01*
X-73258920Y39357709D01*
X-73449397Y39405328D01*
X-73544635Y39452947D01*
X-73592254Y39500566D01*
X-73639873Y39595804D01*
X-73639873Y39691042D01*
X-73592254Y39786280D01*
X-73544635Y39833900D01*
X-73449397Y39881519D01*
X-73211301Y39881519D01*
X-73068444Y39833900D01*
X-72735111Y39881519D02*
X-72497016Y38881519D01*
X-72306540Y39595804D01*
X-72116063Y38881519D01*
X-71877968Y39881519D01*
X-70973206Y38881519D02*
X-71544635Y38881519D01*
X-71258920Y38881519D02*
X-71258920Y39881519D01*
X-71354159Y39738661D01*
X-71449397Y39643423D01*
X-71544635Y39595804D01*
%TO.C,U1*%
X-80547619Y38528885D02*
X-79738095Y38528885D01*
X-79642857Y38576504D01*
X-79595238Y38624123D01*
X-79547619Y38719361D01*
X-79547619Y38909837D01*
X-79595238Y39005075D01*
X-79642857Y39052694D01*
X-79738095Y39100313D01*
X-80547619Y39100313D01*
X-79547619Y40100313D02*
X-79547619Y39528885D01*
X-79547619Y39814599D02*
X-80547619Y39814599D01*
X-80404761Y39719361D01*
X-80309523Y39624123D01*
X-80261904Y39528885D01*
%TO.C,R1*%
X-77547619Y31980343D02*
X-78023809Y31647010D01*
X-77547619Y31408914D02*
X-78547619Y31408914D01*
X-78547619Y31789867D01*
X-78500000Y31885105D01*
X-78452380Y31932724D01*
X-78357142Y31980343D01*
X-78214285Y31980343D01*
X-78119047Y31932724D01*
X-78071428Y31885105D01*
X-78023809Y31789867D01*
X-78023809Y31408914D01*
X-77547619Y32932724D02*
X-77547619Y32361295D01*
X-77547619Y32647010D02*
X-78547619Y32647010D01*
X-78404761Y32551771D01*
X-78309523Y32456533D01*
X-78261904Y32361295D01*
%TO.C,R2*%
X-77547619Y46267903D02*
X-78023809Y45934570D01*
X-77547619Y45696474D02*
X-78547619Y45696474D01*
X-78547619Y46077427D01*
X-78500000Y46172665D01*
X-78452380Y46220284D01*
X-78357142Y46267903D01*
X-78214285Y46267903D01*
X-78119047Y46220284D01*
X-78071428Y46172665D01*
X-78023809Y46077427D01*
X-78023809Y45696474D01*
X-78452380Y46648855D02*
X-78500000Y46696474D01*
X-78547619Y46791712D01*
X-78547619Y47029808D01*
X-78500000Y47125046D01*
X-78452380Y47172665D01*
X-78357142Y47220284D01*
X-78261904Y47220284D01*
X-78119047Y47172665D01*
X-77547619Y46601236D01*
X-77547619Y47220284D01*
%TO.C,LED2*%
X-61761807Y39409929D02*
X-62237998Y39409929D01*
X-62237998Y40409929D01*
X-61428474Y39933738D02*
X-61095140Y39933738D01*
X-60952283Y39409929D02*
X-61428474Y39409929D01*
X-61428474Y40409929D01*
X-60952283Y40409929D01*
X-60523712Y39409929D02*
X-60523712Y40409929D01*
X-60285617Y40409929D01*
X-60142760Y40362310D01*
X-60047521Y40267071D01*
X-59999902Y40171833D01*
X-59952283Y39981357D01*
X-59952283Y39838500D01*
X-59999902Y39648024D01*
X-60047521Y39552786D01*
X-60142760Y39457548D01*
X-60285617Y39409929D01*
X-60523712Y39409929D01*
X-59571331Y40314690D02*
X-59523712Y40362310D01*
X-59428474Y40409929D01*
X-59190379Y40409929D01*
X-59095140Y40362310D01*
X-59047521Y40314690D01*
X-58999902Y40219452D01*
X-58999902Y40124214D01*
X-59047521Y39981357D01*
X-59618950Y39409929D01*
X-58999902Y39409929D01*
%TO.C,D2*%
X-50744555Y29551519D02*
X-50744555Y30551519D01*
X-50506460Y30551519D01*
X-50363602Y30503900D01*
X-50268364Y30408661D01*
X-50220745Y30313423D01*
X-50173126Y30122947D01*
X-50173126Y29980090D01*
X-50220745Y29789614D01*
X-50268364Y29694376D01*
X-50363602Y29599138D01*
X-50506460Y29551519D01*
X-50744555Y29551519D01*
X-49792174Y30456280D02*
X-49744555Y30503900D01*
X-49649317Y30551519D01*
X-49411221Y30551519D01*
X-49315983Y30503900D01*
X-49268364Y30456280D01*
X-49220745Y30361042D01*
X-49220745Y30265804D01*
X-49268364Y30122947D01*
X-49839793Y29551519D01*
X-49220745Y29551519D01*
%TO.C,D1*%
X-54316445Y29551519D02*
X-54316445Y30551519D01*
X-54078350Y30551519D01*
X-53935492Y30503900D01*
X-53840254Y30408661D01*
X-53792635Y30313423D01*
X-53745016Y30122947D01*
X-53745016Y29980090D01*
X-53792635Y29789614D01*
X-53840254Y29694376D01*
X-53935492Y29599138D01*
X-54078350Y29551519D01*
X-54316445Y29551519D01*
X-52792635Y29551519D02*
X-53364064Y29551519D01*
X-53078350Y29551519D02*
X-53078350Y30551519D01*
X-53173588Y30408661D01*
X-53268826Y30313423D01*
X-53364064Y30265804D01*
%TO.C,D47*%
X109514304Y29551519D02*
X109514304Y30551519D01*
X109752399Y30551519D01*
X109895256Y30503900D01*
X109990494Y30408661D01*
X110038113Y30313423D01*
X110085732Y30122947D01*
X110085732Y29980090D01*
X110038113Y29789614D01*
X109990494Y29694376D01*
X109895256Y29599138D01*
X109752399Y29551519D01*
X109514304Y29551519D01*
X110942875Y30218185D02*
X110942875Y29551519D01*
X110704780Y30599138D02*
X110466685Y29884852D01*
X111085732Y29884852D01*
X111371447Y30551519D02*
X112038113Y30551519D01*
X111609542Y29551519D01*
%TO.C,D43*%
X95226744Y29551519D02*
X95226744Y30551519D01*
X95464839Y30551519D01*
X95607696Y30503900D01*
X95702934Y30408661D01*
X95750553Y30313423D01*
X95798172Y30122947D01*
X95798172Y29980090D01*
X95750553Y29789614D01*
X95702934Y29694376D01*
X95607696Y29599138D01*
X95464839Y29551519D01*
X95226744Y29551519D01*
X96655315Y30218185D02*
X96655315Y29551519D01*
X96417220Y30599138D02*
X96179125Y29884852D01*
X96798172Y29884852D01*
X97083887Y30551519D02*
X97702934Y30551519D01*
X97369601Y30170566D01*
X97512458Y30170566D01*
X97607696Y30122947D01*
X97655315Y30075328D01*
X97702934Y29980090D01*
X97702934Y29741995D01*
X97655315Y29646757D01*
X97607696Y29599138D01*
X97512458Y29551519D01*
X97226744Y29551519D01*
X97131506Y29599138D01*
X97083887Y29646757D01*
%TO.C,D39*%
X80939184Y29551519D02*
X80939184Y30551519D01*
X81177279Y30551519D01*
X81320136Y30503900D01*
X81415374Y30408661D01*
X81462993Y30313423D01*
X81510612Y30122947D01*
X81510612Y29980090D01*
X81462993Y29789614D01*
X81415374Y29694376D01*
X81320136Y29599138D01*
X81177279Y29551519D01*
X80939184Y29551519D01*
X81843946Y30551519D02*
X82462993Y30551519D01*
X82129660Y30170566D01*
X82272517Y30170566D01*
X82367755Y30122947D01*
X82415374Y30075328D01*
X82462993Y29980090D01*
X82462993Y29741995D01*
X82415374Y29646757D01*
X82367755Y29599138D01*
X82272517Y29551519D01*
X81986803Y29551519D01*
X81891565Y29599138D01*
X81843946Y29646757D01*
X82939184Y29551519D02*
X83129660Y29551519D01*
X83224898Y29599138D01*
X83272517Y29646757D01*
X83367755Y29789614D01*
X83415374Y29980090D01*
X83415374Y30361042D01*
X83367755Y30456280D01*
X83320136Y30503900D01*
X83224898Y30551519D01*
X83034422Y30551519D01*
X82939184Y30503900D01*
X82891565Y30456280D01*
X82843946Y30361042D01*
X82843946Y30122947D01*
X82891565Y30027709D01*
X82939184Y29980090D01*
X83034422Y29932471D01*
X83224898Y29932471D01*
X83320136Y29980090D01*
X83367755Y30027709D01*
X83415374Y30122947D01*
%TO.C,D35*%
X66651624Y29551519D02*
X66651624Y30551519D01*
X66889719Y30551519D01*
X67032576Y30503900D01*
X67127814Y30408661D01*
X67175433Y30313423D01*
X67223052Y30122947D01*
X67223052Y29980090D01*
X67175433Y29789614D01*
X67127814Y29694376D01*
X67032576Y29599138D01*
X66889719Y29551519D01*
X66651624Y29551519D01*
X67556386Y30551519D02*
X68175433Y30551519D01*
X67842100Y30170566D01*
X67984957Y30170566D01*
X68080195Y30122947D01*
X68127814Y30075328D01*
X68175433Y29980090D01*
X68175433Y29741995D01*
X68127814Y29646757D01*
X68080195Y29599138D01*
X67984957Y29551519D01*
X67699243Y29551519D01*
X67604005Y29599138D01*
X67556386Y29646757D01*
X69080195Y30551519D02*
X68604005Y30551519D01*
X68556386Y30075328D01*
X68604005Y30122947D01*
X68699243Y30170566D01*
X68937338Y30170566D01*
X69032576Y30122947D01*
X69080195Y30075328D01*
X69127814Y29980090D01*
X69127814Y29741995D01*
X69080195Y29646757D01*
X69032576Y29599138D01*
X68937338Y29551519D01*
X68699243Y29551519D01*
X68604005Y29599138D01*
X68556386Y29646757D01*
%TO.C,D31*%
X52364064Y29551519D02*
X52364064Y30551519D01*
X52602159Y30551519D01*
X52745016Y30503900D01*
X52840254Y30408661D01*
X52887873Y30313423D01*
X52935492Y30122947D01*
X52935492Y29980090D01*
X52887873Y29789614D01*
X52840254Y29694376D01*
X52745016Y29599138D01*
X52602159Y29551519D01*
X52364064Y29551519D01*
X53268826Y30551519D02*
X53887873Y30551519D01*
X53554540Y30170566D01*
X53697397Y30170566D01*
X53792635Y30122947D01*
X53840254Y30075328D01*
X53887873Y29980090D01*
X53887873Y29741995D01*
X53840254Y29646757D01*
X53792635Y29599138D01*
X53697397Y29551519D01*
X53411683Y29551519D01*
X53316445Y29599138D01*
X53268826Y29646757D01*
X54840254Y29551519D02*
X54268826Y29551519D01*
X54554540Y29551519D02*
X54554540Y30551519D01*
X54459302Y30408661D01*
X54364064Y30313423D01*
X54268826Y30265804D01*
%TO.C,D24*%
X27360834Y29551519D02*
X27360834Y30551519D01*
X27598929Y30551519D01*
X27741786Y30503900D01*
X27837024Y30408661D01*
X27884643Y30313423D01*
X27932262Y30122947D01*
X27932262Y29980090D01*
X27884643Y29789614D01*
X27837024Y29694376D01*
X27741786Y29599138D01*
X27598929Y29551519D01*
X27360834Y29551519D01*
X28313215Y30456280D02*
X28360834Y30503900D01*
X28456072Y30551519D01*
X28694167Y30551519D01*
X28789405Y30503900D01*
X28837024Y30456280D01*
X28884643Y30361042D01*
X28884643Y30265804D01*
X28837024Y30122947D01*
X28265596Y29551519D01*
X28884643Y29551519D01*
X29741786Y30218185D02*
X29741786Y29551519D01*
X29503691Y30599138D02*
X29265596Y29884852D01*
X29884643Y29884852D01*
%TO.C,D20*%
X13073274Y29551519D02*
X13073274Y30551519D01*
X13311369Y30551519D01*
X13454226Y30503900D01*
X13549464Y30408661D01*
X13597083Y30313423D01*
X13644702Y30122947D01*
X13644702Y29980090D01*
X13597083Y29789614D01*
X13549464Y29694376D01*
X13454226Y29599138D01*
X13311369Y29551519D01*
X13073274Y29551519D01*
X14025655Y30456280D02*
X14073274Y30503900D01*
X14168512Y30551519D01*
X14406607Y30551519D01*
X14501845Y30503900D01*
X14549464Y30456280D01*
X14597083Y30361042D01*
X14597083Y30265804D01*
X14549464Y30122947D01*
X13978036Y29551519D01*
X14597083Y29551519D01*
X15216131Y30551519D02*
X15311369Y30551519D01*
X15406607Y30503900D01*
X15454226Y30456280D01*
X15501845Y30361042D01*
X15549464Y30170566D01*
X15549464Y29932471D01*
X15501845Y29741995D01*
X15454226Y29646757D01*
X15406607Y29599138D01*
X15311369Y29551519D01*
X15216131Y29551519D01*
X15120893Y29599138D01*
X15073274Y29646757D01*
X15025655Y29741995D01*
X14978036Y29932471D01*
X14978036Y30170566D01*
X15025655Y30361042D01*
X15073274Y30456280D01*
X15120893Y30503900D01*
X15216131Y30551519D01*
%TO.C,D16*%
X-1214285Y29551519D02*
X-1214285Y30551519D01*
X-976190Y30551519D01*
X-833333Y30503900D01*
X-738095Y30408661D01*
X-690476Y30313423D01*
X-642857Y30122947D01*
X-642857Y29980090D01*
X-690476Y29789614D01*
X-738095Y29694376D01*
X-833333Y29599138D01*
X-976190Y29551519D01*
X-1214285Y29551519D01*
X309523Y29551519D02*
X-261904Y29551519D01*
X23809Y29551519D02*
X23809Y30551519D01*
X-71428Y30408661D01*
X-166666Y30313423D01*
X-261904Y30265804D01*
X1166666Y30551519D02*
X976190Y30551519D01*
X880952Y30503900D01*
X833333Y30456280D01*
X738095Y30313423D01*
X690476Y30122947D01*
X690476Y29741995D01*
X738095Y29646757D01*
X785714Y29599138D01*
X880952Y29551519D01*
X1071428Y29551519D01*
X1166666Y29599138D01*
X1214285Y29646757D01*
X1261904Y29741995D01*
X1261904Y29980090D01*
X1214285Y30075328D01*
X1166666Y30122947D01*
X1071428Y30170566D01*
X880952Y30170566D01*
X785714Y30122947D01*
X738095Y30075328D01*
X690476Y29980090D01*
%TO.C,D12*%
X-15501845Y29551519D02*
X-15501845Y30551519D01*
X-15263750Y30551519D01*
X-15120893Y30503900D01*
X-15025655Y30408661D01*
X-14978036Y30313423D01*
X-14930417Y30122947D01*
X-14930417Y29980090D01*
X-14978036Y29789614D01*
X-15025655Y29694376D01*
X-15120893Y29599138D01*
X-15263750Y29551519D01*
X-15501845Y29551519D01*
X-13978036Y29551519D02*
X-14549464Y29551519D01*
X-14263750Y29551519D02*
X-14263750Y30551519D01*
X-14358988Y30408661D01*
X-14454226Y30313423D01*
X-14549464Y30265804D01*
X-13597083Y30456280D02*
X-13549464Y30503900D01*
X-13454226Y30551519D01*
X-13216131Y30551519D01*
X-13120893Y30503900D01*
X-13073274Y30456280D01*
X-13025655Y30361042D01*
X-13025655Y30265804D01*
X-13073274Y30122947D01*
X-13644702Y29551519D01*
X-13025655Y29551519D01*
%TO.C,D8*%
X-29313215Y29551519D02*
X-29313215Y30551519D01*
X-29075120Y30551519D01*
X-28932262Y30503900D01*
X-28837024Y30408661D01*
X-28789405Y30313423D01*
X-28741786Y30122947D01*
X-28741786Y29980090D01*
X-28789405Y29789614D01*
X-28837024Y29694376D01*
X-28932262Y29599138D01*
X-29075120Y29551519D01*
X-29313215Y29551519D01*
X-28170358Y30122947D02*
X-28265596Y30170566D01*
X-28313215Y30218185D01*
X-28360834Y30313423D01*
X-28360834Y30361042D01*
X-28313215Y30456280D01*
X-28265596Y30503900D01*
X-28170358Y30551519D01*
X-27979881Y30551519D01*
X-27884643Y30503900D01*
X-27837024Y30456280D01*
X-27789405Y30361042D01*
X-27789405Y30313423D01*
X-27837024Y30218185D01*
X-27884643Y30170566D01*
X-27979881Y30122947D01*
X-28170358Y30122947D01*
X-28265596Y30075328D01*
X-28313215Y30027709D01*
X-28360834Y29932471D01*
X-28360834Y29741995D01*
X-28313215Y29646757D01*
X-28265596Y29599138D01*
X-28170358Y29551519D01*
X-27979881Y29551519D01*
X-27884643Y29599138D01*
X-27837024Y29646757D01*
X-27789405Y29741995D01*
X-27789405Y29932471D01*
X-27837024Y30027709D01*
X-27884643Y30075328D01*
X-27979881Y30122947D01*
%TO.C,D4*%
X-43600775Y29551519D02*
X-43600775Y30551519D01*
X-43362680Y30551519D01*
X-43219822Y30503900D01*
X-43124584Y30408661D01*
X-43076965Y30313423D01*
X-43029346Y30122947D01*
X-43029346Y29980090D01*
X-43076965Y29789614D01*
X-43124584Y29694376D01*
X-43219822Y29599138D01*
X-43362680Y29551519D01*
X-43600775Y29551519D01*
X-42172203Y30218185D02*
X-42172203Y29551519D01*
X-42410299Y30599138D02*
X-42648394Y29884852D01*
X-42029346Y29884852D01*
%TO.C,D46*%
X105942414Y29551519D02*
X105942414Y30551519D01*
X106180509Y30551519D01*
X106323366Y30503900D01*
X106418604Y30408661D01*
X106466223Y30313423D01*
X106513842Y30122947D01*
X106513842Y29980090D01*
X106466223Y29789614D01*
X106418604Y29694376D01*
X106323366Y29599138D01*
X106180509Y29551519D01*
X105942414Y29551519D01*
X107370985Y30218185D02*
X107370985Y29551519D01*
X107132890Y30599138D02*
X106894795Y29884852D01*
X107513842Y29884852D01*
X108323366Y30551519D02*
X108132890Y30551519D01*
X108037652Y30503900D01*
X107990033Y30456280D01*
X107894795Y30313423D01*
X107847176Y30122947D01*
X107847176Y29741995D01*
X107894795Y29646757D01*
X107942414Y29599138D01*
X108037652Y29551519D01*
X108228128Y29551519D01*
X108323366Y29599138D01*
X108370985Y29646757D01*
X108418604Y29741995D01*
X108418604Y29980090D01*
X108370985Y30075328D01*
X108323366Y30122947D01*
X108228128Y30170566D01*
X108037652Y30170566D01*
X107942414Y30122947D01*
X107894795Y30075328D01*
X107847176Y29980090D01*
%TO.C,D42*%
X91654854Y29551519D02*
X91654854Y30551519D01*
X91892949Y30551519D01*
X92035806Y30503900D01*
X92131044Y30408661D01*
X92178663Y30313423D01*
X92226282Y30122947D01*
X92226282Y29980090D01*
X92178663Y29789614D01*
X92131044Y29694376D01*
X92035806Y29599138D01*
X91892949Y29551519D01*
X91654854Y29551519D01*
X93083425Y30218185D02*
X93083425Y29551519D01*
X92845330Y30599138D02*
X92607235Y29884852D01*
X93226282Y29884852D01*
X93559616Y30456280D02*
X93607235Y30503900D01*
X93702473Y30551519D01*
X93940568Y30551519D01*
X94035806Y30503900D01*
X94083425Y30456280D01*
X94131044Y30361042D01*
X94131044Y30265804D01*
X94083425Y30122947D01*
X93511997Y29551519D01*
X94131044Y29551519D01*
%TO.C,D38*%
X77367294Y29551519D02*
X77367294Y30551519D01*
X77605389Y30551519D01*
X77748246Y30503900D01*
X77843484Y30408661D01*
X77891103Y30313423D01*
X77938722Y30122947D01*
X77938722Y29980090D01*
X77891103Y29789614D01*
X77843484Y29694376D01*
X77748246Y29599138D01*
X77605389Y29551519D01*
X77367294Y29551519D01*
X78272056Y30551519D02*
X78891103Y30551519D01*
X78557770Y30170566D01*
X78700627Y30170566D01*
X78795865Y30122947D01*
X78843484Y30075328D01*
X78891103Y29980090D01*
X78891103Y29741995D01*
X78843484Y29646757D01*
X78795865Y29599138D01*
X78700627Y29551519D01*
X78414913Y29551519D01*
X78319675Y29599138D01*
X78272056Y29646757D01*
X79462532Y30122947D02*
X79367294Y30170566D01*
X79319675Y30218185D01*
X79272056Y30313423D01*
X79272056Y30361042D01*
X79319675Y30456280D01*
X79367294Y30503900D01*
X79462532Y30551519D01*
X79653008Y30551519D01*
X79748246Y30503900D01*
X79795865Y30456280D01*
X79843484Y30361042D01*
X79843484Y30313423D01*
X79795865Y30218185D01*
X79748246Y30170566D01*
X79653008Y30122947D01*
X79462532Y30122947D01*
X79367294Y30075328D01*
X79319675Y30027709D01*
X79272056Y29932471D01*
X79272056Y29741995D01*
X79319675Y29646757D01*
X79367294Y29599138D01*
X79462532Y29551519D01*
X79653008Y29551519D01*
X79748246Y29599138D01*
X79795865Y29646757D01*
X79843484Y29741995D01*
X79843484Y29932471D01*
X79795865Y30027709D01*
X79748246Y30075328D01*
X79653008Y30122947D01*
%TO.C,D34*%
X63079734Y29551519D02*
X63079734Y30551519D01*
X63317829Y30551519D01*
X63460686Y30503900D01*
X63555924Y30408661D01*
X63603543Y30313423D01*
X63651162Y30122947D01*
X63651162Y29980090D01*
X63603543Y29789614D01*
X63555924Y29694376D01*
X63460686Y29599138D01*
X63317829Y29551519D01*
X63079734Y29551519D01*
X63984496Y30551519D02*
X64603543Y30551519D01*
X64270210Y30170566D01*
X64413067Y30170566D01*
X64508305Y30122947D01*
X64555924Y30075328D01*
X64603543Y29980090D01*
X64603543Y29741995D01*
X64555924Y29646757D01*
X64508305Y29599138D01*
X64413067Y29551519D01*
X64127353Y29551519D01*
X64032115Y29599138D01*
X63984496Y29646757D01*
X65460686Y30218185D02*
X65460686Y29551519D01*
X65222591Y30599138D02*
X64984496Y29884852D01*
X65603543Y29884852D01*
%TO.C,D30*%
X48792174Y29551519D02*
X48792174Y30551519D01*
X49030269Y30551519D01*
X49173126Y30503900D01*
X49268364Y30408661D01*
X49315983Y30313423D01*
X49363602Y30122947D01*
X49363602Y29980090D01*
X49315983Y29789614D01*
X49268364Y29694376D01*
X49173126Y29599138D01*
X49030269Y29551519D01*
X48792174Y29551519D01*
X49696936Y30551519D02*
X50315983Y30551519D01*
X49982650Y30170566D01*
X50125507Y30170566D01*
X50220745Y30122947D01*
X50268364Y30075328D01*
X50315983Y29980090D01*
X50315983Y29741995D01*
X50268364Y29646757D01*
X50220745Y29599138D01*
X50125507Y29551519D01*
X49839793Y29551519D01*
X49744555Y29599138D01*
X49696936Y29646757D01*
X50935031Y30551519D02*
X51030269Y30551519D01*
X51125507Y30503900D01*
X51173126Y30456280D01*
X51220745Y30361042D01*
X51268364Y30170566D01*
X51268364Y29932471D01*
X51220745Y29741995D01*
X51173126Y29646757D01*
X51125507Y29599138D01*
X51030269Y29551519D01*
X50935031Y29551519D01*
X50839793Y29599138D01*
X50792174Y29646757D01*
X50744555Y29741995D01*
X50696936Y29932471D01*
X50696936Y30170566D01*
X50744555Y30361042D01*
X50792174Y30456280D01*
X50839793Y30503900D01*
X50935031Y30551519D01*
%TO.C,D27*%
X38076504Y29551519D02*
X38076504Y30551519D01*
X38314599Y30551519D01*
X38457456Y30503900D01*
X38552694Y30408661D01*
X38600313Y30313423D01*
X38647932Y30122947D01*
X38647932Y29980090D01*
X38600313Y29789614D01*
X38552694Y29694376D01*
X38457456Y29599138D01*
X38314599Y29551519D01*
X38076504Y29551519D01*
X39028885Y30456280D02*
X39076504Y30503900D01*
X39171742Y30551519D01*
X39409837Y30551519D01*
X39505075Y30503900D01*
X39552694Y30456280D01*
X39600313Y30361042D01*
X39600313Y30265804D01*
X39552694Y30122947D01*
X38981266Y29551519D01*
X39600313Y29551519D01*
X39933647Y30551519D02*
X40600313Y30551519D01*
X40171742Y29551519D01*
%TO.C,D23*%
X23788944Y29551519D02*
X23788944Y30551519D01*
X24027039Y30551519D01*
X24169896Y30503900D01*
X24265134Y30408661D01*
X24312753Y30313423D01*
X24360372Y30122947D01*
X24360372Y29980090D01*
X24312753Y29789614D01*
X24265134Y29694376D01*
X24169896Y29599138D01*
X24027039Y29551519D01*
X23788944Y29551519D01*
X24741325Y30456280D02*
X24788944Y30503900D01*
X24884182Y30551519D01*
X25122277Y30551519D01*
X25217515Y30503900D01*
X25265134Y30456280D01*
X25312753Y30361042D01*
X25312753Y30265804D01*
X25265134Y30122947D01*
X24693706Y29551519D01*
X25312753Y29551519D01*
X25646087Y30551519D02*
X26265134Y30551519D01*
X25931801Y30170566D01*
X26074658Y30170566D01*
X26169896Y30122947D01*
X26217515Y30075328D01*
X26265134Y29980090D01*
X26265134Y29741995D01*
X26217515Y29646757D01*
X26169896Y29599138D01*
X26074658Y29551519D01*
X25788944Y29551519D01*
X25693706Y29599138D01*
X25646087Y29646757D01*
%TO.C,D19*%
X9501384Y29551519D02*
X9501384Y30551519D01*
X9739479Y30551519D01*
X9882336Y30503900D01*
X9977574Y30408661D01*
X10025193Y30313423D01*
X10072812Y30122947D01*
X10072812Y29980090D01*
X10025193Y29789614D01*
X9977574Y29694376D01*
X9882336Y29599138D01*
X9739479Y29551519D01*
X9501384Y29551519D01*
X11025193Y29551519D02*
X10453765Y29551519D01*
X10739479Y29551519D02*
X10739479Y30551519D01*
X10644241Y30408661D01*
X10549003Y30313423D01*
X10453765Y30265804D01*
X11501384Y29551519D02*
X11691860Y29551519D01*
X11787098Y29599138D01*
X11834717Y29646757D01*
X11929955Y29789614D01*
X11977574Y29980090D01*
X11977574Y30361042D01*
X11929955Y30456280D01*
X11882336Y30503900D01*
X11787098Y30551519D01*
X11596622Y30551519D01*
X11501384Y30503900D01*
X11453765Y30456280D01*
X11406146Y30361042D01*
X11406146Y30122947D01*
X11453765Y30027709D01*
X11501384Y29980090D01*
X11596622Y29932471D01*
X11787098Y29932471D01*
X11882336Y29980090D01*
X11929955Y30027709D01*
X11977574Y30122947D01*
%TO.C,D15*%
X-4786175Y29551519D02*
X-4786175Y30551519D01*
X-4548080Y30551519D01*
X-4405223Y30503900D01*
X-4309985Y30408661D01*
X-4262366Y30313423D01*
X-4214747Y30122947D01*
X-4214747Y29980090D01*
X-4262366Y29789614D01*
X-4309985Y29694376D01*
X-4405223Y29599138D01*
X-4548080Y29551519D01*
X-4786175Y29551519D01*
X-3262366Y29551519D02*
X-3833794Y29551519D01*
X-3548080Y29551519D02*
X-3548080Y30551519D01*
X-3643318Y30408661D01*
X-3738556Y30313423D01*
X-3833794Y30265804D01*
X-2357604Y30551519D02*
X-2833794Y30551519D01*
X-2881413Y30075328D01*
X-2833794Y30122947D01*
X-2738556Y30170566D01*
X-2500461Y30170566D01*
X-2405223Y30122947D01*
X-2357604Y30075328D01*
X-2309985Y29980090D01*
X-2309985Y29741995D01*
X-2357604Y29646757D01*
X-2405223Y29599138D01*
X-2500461Y29551519D01*
X-2738556Y29551519D01*
X-2833794Y29599138D01*
X-2881413Y29646757D01*
%TO.C,D11*%
X-19073735Y29551519D02*
X-19073735Y30551519D01*
X-18835640Y30551519D01*
X-18692783Y30503900D01*
X-18597545Y30408661D01*
X-18549926Y30313423D01*
X-18502307Y30122947D01*
X-18502307Y29980090D01*
X-18549926Y29789614D01*
X-18597545Y29694376D01*
X-18692783Y29599138D01*
X-18835640Y29551519D01*
X-19073735Y29551519D01*
X-17549926Y29551519D02*
X-18121354Y29551519D01*
X-17835640Y29551519D02*
X-17835640Y30551519D01*
X-17930878Y30408661D01*
X-18026116Y30313423D01*
X-18121354Y30265804D01*
X-16597545Y29551519D02*
X-17168973Y29551519D01*
X-16883259Y29551519D02*
X-16883259Y30551519D01*
X-16978497Y30408661D01*
X-17073735Y30313423D01*
X-17168973Y30265804D01*
%TO.C,D7*%
X-32885105Y29551519D02*
X-32885105Y30551519D01*
X-32647010Y30551519D01*
X-32504152Y30503900D01*
X-32408914Y30408661D01*
X-32361295Y30313423D01*
X-32313676Y30122947D01*
X-32313676Y29980090D01*
X-32361295Y29789614D01*
X-32408914Y29694376D01*
X-32504152Y29599138D01*
X-32647010Y29551519D01*
X-32885105Y29551519D01*
X-31980343Y30551519D02*
X-31313676Y30551519D01*
X-31742248Y29551519D01*
%TO.C,D3*%
X-47172665Y29551519D02*
X-47172665Y30551519D01*
X-46934570Y30551519D01*
X-46791712Y30503900D01*
X-46696474Y30408661D01*
X-46648855Y30313423D01*
X-46601236Y30122947D01*
X-46601236Y29980090D01*
X-46648855Y29789614D01*
X-46696474Y29694376D01*
X-46791712Y29599138D01*
X-46934570Y29551519D01*
X-47172665Y29551519D01*
X-46267903Y30551519D02*
X-45648855Y30551519D01*
X-45982189Y30170566D01*
X-45839331Y30170566D01*
X-45744093Y30122947D01*
X-45696474Y30075328D01*
X-45648855Y29980090D01*
X-45648855Y29741995D01*
X-45696474Y29646757D01*
X-45744093Y29599138D01*
X-45839331Y29551519D01*
X-46125046Y29551519D01*
X-46220284Y29599138D01*
X-46267903Y29646757D01*
%TO.C,D45*%
X102370524Y29551519D02*
X102370524Y30551519D01*
X102608619Y30551519D01*
X102751476Y30503900D01*
X102846714Y30408661D01*
X102894333Y30313423D01*
X102941952Y30122947D01*
X102941952Y29980090D01*
X102894333Y29789614D01*
X102846714Y29694376D01*
X102751476Y29599138D01*
X102608619Y29551519D01*
X102370524Y29551519D01*
X103799095Y30218185D02*
X103799095Y29551519D01*
X103561000Y30599138D02*
X103322905Y29884852D01*
X103941952Y29884852D01*
X104799095Y30551519D02*
X104322905Y30551519D01*
X104275286Y30075328D01*
X104322905Y30122947D01*
X104418143Y30170566D01*
X104656238Y30170566D01*
X104751476Y30122947D01*
X104799095Y30075328D01*
X104846714Y29980090D01*
X104846714Y29741995D01*
X104799095Y29646757D01*
X104751476Y29599138D01*
X104656238Y29551519D01*
X104418143Y29551519D01*
X104322905Y29599138D01*
X104275286Y29646757D01*
%TO.C,D41*%
X88082964Y29551519D02*
X88082964Y30551519D01*
X88321059Y30551519D01*
X88463916Y30503900D01*
X88559154Y30408661D01*
X88606773Y30313423D01*
X88654392Y30122947D01*
X88654392Y29980090D01*
X88606773Y29789614D01*
X88559154Y29694376D01*
X88463916Y29599138D01*
X88321059Y29551519D01*
X88082964Y29551519D01*
X89511535Y30218185D02*
X89511535Y29551519D01*
X89273440Y30599138D02*
X89035345Y29884852D01*
X89654392Y29884852D01*
X90559154Y29551519D02*
X89987726Y29551519D01*
X90273440Y29551519D02*
X90273440Y30551519D01*
X90178202Y30408661D01*
X90082964Y30313423D01*
X89987726Y30265804D01*
%TO.C,D37*%
X73795404Y29551519D02*
X73795404Y30551519D01*
X74033499Y30551519D01*
X74176356Y30503900D01*
X74271594Y30408661D01*
X74319213Y30313423D01*
X74366832Y30122947D01*
X74366832Y29980090D01*
X74319213Y29789614D01*
X74271594Y29694376D01*
X74176356Y29599138D01*
X74033499Y29551519D01*
X73795404Y29551519D01*
X74700166Y30551519D02*
X75319213Y30551519D01*
X74985880Y30170566D01*
X75128737Y30170566D01*
X75223975Y30122947D01*
X75271594Y30075328D01*
X75319213Y29980090D01*
X75319213Y29741995D01*
X75271594Y29646757D01*
X75223975Y29599138D01*
X75128737Y29551519D01*
X74843023Y29551519D01*
X74747785Y29599138D01*
X74700166Y29646757D01*
X75652547Y30551519D02*
X76319213Y30551519D01*
X75890642Y29551519D01*
%TO.C,D33*%
X59507844Y29551519D02*
X59507844Y30551519D01*
X59745939Y30551519D01*
X59888796Y30503900D01*
X59984034Y30408661D01*
X60031653Y30313423D01*
X60079272Y30122947D01*
X60079272Y29980090D01*
X60031653Y29789614D01*
X59984034Y29694376D01*
X59888796Y29599138D01*
X59745939Y29551519D01*
X59507844Y29551519D01*
X60412606Y30551519D02*
X61031653Y30551519D01*
X60698320Y30170566D01*
X60841177Y30170566D01*
X60936415Y30122947D01*
X60984034Y30075328D01*
X61031653Y29980090D01*
X61031653Y29741995D01*
X60984034Y29646757D01*
X60936415Y29599138D01*
X60841177Y29551519D01*
X60555463Y29551519D01*
X60460225Y29599138D01*
X60412606Y29646757D01*
X61364987Y30551519D02*
X61984034Y30551519D01*
X61650701Y30170566D01*
X61793558Y30170566D01*
X61888796Y30122947D01*
X61936415Y30075328D01*
X61984034Y29980090D01*
X61984034Y29741995D01*
X61936415Y29646757D01*
X61888796Y29599138D01*
X61793558Y29551519D01*
X61507844Y29551519D01*
X61412606Y29599138D01*
X61364987Y29646757D01*
%TO.C,D29*%
X45220284Y29551519D02*
X45220284Y30551519D01*
X45458379Y30551519D01*
X45601236Y30503900D01*
X45696474Y30408661D01*
X45744093Y30313423D01*
X45791712Y30122947D01*
X45791712Y29980090D01*
X45744093Y29789614D01*
X45696474Y29694376D01*
X45601236Y29599138D01*
X45458379Y29551519D01*
X45220284Y29551519D01*
X46172665Y30456280D02*
X46220284Y30503900D01*
X46315522Y30551519D01*
X46553617Y30551519D01*
X46648855Y30503900D01*
X46696474Y30456280D01*
X46744093Y30361042D01*
X46744093Y30265804D01*
X46696474Y30122947D01*
X46125046Y29551519D01*
X46744093Y29551519D01*
X47220284Y29551519D02*
X47410760Y29551519D01*
X47505998Y29599138D01*
X47553617Y29646757D01*
X47648855Y29789614D01*
X47696474Y29980090D01*
X47696474Y30361042D01*
X47648855Y30456280D01*
X47601236Y30503900D01*
X47505998Y30551519D01*
X47315522Y30551519D01*
X47220284Y30503900D01*
X47172665Y30456280D01*
X47125046Y30361042D01*
X47125046Y30122947D01*
X47172665Y30027709D01*
X47220284Y29980090D01*
X47315522Y29932471D01*
X47505998Y29932471D01*
X47601236Y29980090D01*
X47648855Y30027709D01*
X47696474Y30122947D01*
%TO.C,D26*%
X34504614Y29551519D02*
X34504614Y30551519D01*
X34742709Y30551519D01*
X34885566Y30503900D01*
X34980804Y30408661D01*
X35028423Y30313423D01*
X35076042Y30122947D01*
X35076042Y29980090D01*
X35028423Y29789614D01*
X34980804Y29694376D01*
X34885566Y29599138D01*
X34742709Y29551519D01*
X34504614Y29551519D01*
X35456995Y30456280D02*
X35504614Y30503900D01*
X35599852Y30551519D01*
X35837947Y30551519D01*
X35933185Y30503900D01*
X35980804Y30456280D01*
X36028423Y30361042D01*
X36028423Y30265804D01*
X35980804Y30122947D01*
X35409376Y29551519D01*
X36028423Y29551519D01*
X36885566Y30551519D02*
X36695090Y30551519D01*
X36599852Y30503900D01*
X36552233Y30456280D01*
X36456995Y30313423D01*
X36409376Y30122947D01*
X36409376Y29741995D01*
X36456995Y29646757D01*
X36504614Y29599138D01*
X36599852Y29551519D01*
X36790328Y29551519D01*
X36885566Y29599138D01*
X36933185Y29646757D01*
X36980804Y29741995D01*
X36980804Y29980090D01*
X36933185Y30075328D01*
X36885566Y30122947D01*
X36790328Y30170566D01*
X36599852Y30170566D01*
X36504614Y30122947D01*
X36456995Y30075328D01*
X36409376Y29980090D01*
%TO.C,D22*%
X20217054Y29551519D02*
X20217054Y30551519D01*
X20455149Y30551519D01*
X20598006Y30503900D01*
X20693244Y30408661D01*
X20740863Y30313423D01*
X20788482Y30122947D01*
X20788482Y29980090D01*
X20740863Y29789614D01*
X20693244Y29694376D01*
X20598006Y29599138D01*
X20455149Y29551519D01*
X20217054Y29551519D01*
X21169435Y30456280D02*
X21217054Y30503900D01*
X21312292Y30551519D01*
X21550387Y30551519D01*
X21645625Y30503900D01*
X21693244Y30456280D01*
X21740863Y30361042D01*
X21740863Y30265804D01*
X21693244Y30122947D01*
X21121816Y29551519D01*
X21740863Y29551519D01*
X22121816Y30456280D02*
X22169435Y30503900D01*
X22264673Y30551519D01*
X22502768Y30551519D01*
X22598006Y30503900D01*
X22645625Y30456280D01*
X22693244Y30361042D01*
X22693244Y30265804D01*
X22645625Y30122947D01*
X22074197Y29551519D01*
X22693244Y29551519D01*
%TO.C,D18*%
X5929494Y29551519D02*
X5929494Y30551519D01*
X6167589Y30551519D01*
X6310446Y30503900D01*
X6405684Y30408661D01*
X6453303Y30313423D01*
X6500922Y30122947D01*
X6500922Y29980090D01*
X6453303Y29789614D01*
X6405684Y29694376D01*
X6310446Y29599138D01*
X6167589Y29551519D01*
X5929494Y29551519D01*
X7453303Y29551519D02*
X6881875Y29551519D01*
X7167589Y29551519D02*
X7167589Y30551519D01*
X7072351Y30408661D01*
X6977113Y30313423D01*
X6881875Y30265804D01*
X8024732Y30122947D02*
X7929494Y30170566D01*
X7881875Y30218185D01*
X7834256Y30313423D01*
X7834256Y30361042D01*
X7881875Y30456280D01*
X7929494Y30503900D01*
X8024732Y30551519D01*
X8215208Y30551519D01*
X8310446Y30503900D01*
X8358065Y30456280D01*
X8405684Y30361042D01*
X8405684Y30313423D01*
X8358065Y30218185D01*
X8310446Y30170566D01*
X8215208Y30122947D01*
X8024732Y30122947D01*
X7929494Y30075328D01*
X7881875Y30027709D01*
X7834256Y29932471D01*
X7834256Y29741995D01*
X7881875Y29646757D01*
X7929494Y29599138D01*
X8024732Y29551519D01*
X8215208Y29551519D01*
X8310446Y29599138D01*
X8358065Y29646757D01*
X8405684Y29741995D01*
X8405684Y29932471D01*
X8358065Y30027709D01*
X8310446Y30075328D01*
X8215208Y30122947D01*
%TO.C,D14*%
X-8358065Y29551519D02*
X-8358065Y30551519D01*
X-8119970Y30551519D01*
X-7977113Y30503900D01*
X-7881875Y30408661D01*
X-7834256Y30313423D01*
X-7786637Y30122947D01*
X-7786637Y29980090D01*
X-7834256Y29789614D01*
X-7881875Y29694376D01*
X-7977113Y29599138D01*
X-8119970Y29551519D01*
X-8358065Y29551519D01*
X-6834256Y29551519D02*
X-7405684Y29551519D01*
X-7119970Y29551519D02*
X-7119970Y30551519D01*
X-7215208Y30408661D01*
X-7310446Y30313423D01*
X-7405684Y30265804D01*
X-5977113Y30218185D02*
X-5977113Y29551519D01*
X-6215208Y30599138D02*
X-6453303Y29884852D01*
X-5834256Y29884852D01*
%TO.C,D10*%
X-22645625Y29551519D02*
X-22645625Y30551519D01*
X-22407530Y30551519D01*
X-22264673Y30503900D01*
X-22169435Y30408661D01*
X-22121816Y30313423D01*
X-22074197Y30122947D01*
X-22074197Y29980090D01*
X-22121816Y29789614D01*
X-22169435Y29694376D01*
X-22264673Y29599138D01*
X-22407530Y29551519D01*
X-22645625Y29551519D01*
X-21121816Y29551519D02*
X-21693244Y29551519D01*
X-21407530Y29551519D02*
X-21407530Y30551519D01*
X-21502768Y30408661D01*
X-21598006Y30313423D01*
X-21693244Y30265804D01*
X-20502768Y30551519D02*
X-20407530Y30551519D01*
X-20312292Y30503900D01*
X-20264673Y30456280D01*
X-20217054Y30361042D01*
X-20169435Y30170566D01*
X-20169435Y29932471D01*
X-20217054Y29741995D01*
X-20264673Y29646757D01*
X-20312292Y29599138D01*
X-20407530Y29551519D01*
X-20502768Y29551519D01*
X-20598006Y29599138D01*
X-20645625Y29646757D01*
X-20693244Y29741995D01*
X-20740863Y29932471D01*
X-20740863Y30170566D01*
X-20693244Y30361042D01*
X-20645625Y30456280D01*
X-20598006Y30503900D01*
X-20502768Y30551519D01*
%TO.C,D6*%
X-36456995Y29551519D02*
X-36456995Y30551519D01*
X-36218900Y30551519D01*
X-36076042Y30503900D01*
X-35980804Y30408661D01*
X-35933185Y30313423D01*
X-35885566Y30122947D01*
X-35885566Y29980090D01*
X-35933185Y29789614D01*
X-35980804Y29694376D01*
X-36076042Y29599138D01*
X-36218900Y29551519D01*
X-36456995Y29551519D01*
X-35028423Y30551519D02*
X-35218900Y30551519D01*
X-35314138Y30503900D01*
X-35361757Y30456280D01*
X-35456995Y30313423D01*
X-35504614Y30122947D01*
X-35504614Y29741995D01*
X-35456995Y29646757D01*
X-35409376Y29599138D01*
X-35314138Y29551519D01*
X-35123661Y29551519D01*
X-35028423Y29599138D01*
X-34980804Y29646757D01*
X-34933185Y29741995D01*
X-34933185Y29980090D01*
X-34980804Y30075328D01*
X-35028423Y30122947D01*
X-35123661Y30170566D01*
X-35314138Y30170566D01*
X-35409376Y30122947D01*
X-35456995Y30075328D01*
X-35504614Y29980090D01*
%TO.C,D44*%
X98798634Y29551519D02*
X98798634Y30551519D01*
X99036729Y30551519D01*
X99179586Y30503900D01*
X99274824Y30408661D01*
X99322443Y30313423D01*
X99370062Y30122947D01*
X99370062Y29980090D01*
X99322443Y29789614D01*
X99274824Y29694376D01*
X99179586Y29599138D01*
X99036729Y29551519D01*
X98798634Y29551519D01*
X100227205Y30218185D02*
X100227205Y29551519D01*
X99989110Y30599138D02*
X99751015Y29884852D01*
X100370062Y29884852D01*
X101179586Y30218185D02*
X101179586Y29551519D01*
X100941491Y30599138D02*
X100703396Y29884852D01*
X101322443Y29884852D01*
%TO.C,D40*%
X84511074Y29551519D02*
X84511074Y30551519D01*
X84749169Y30551519D01*
X84892026Y30503900D01*
X84987264Y30408661D01*
X85034883Y30313423D01*
X85082502Y30122947D01*
X85082502Y29980090D01*
X85034883Y29789614D01*
X84987264Y29694376D01*
X84892026Y29599138D01*
X84749169Y29551519D01*
X84511074Y29551519D01*
X85939645Y30218185D02*
X85939645Y29551519D01*
X85701550Y30599138D02*
X85463455Y29884852D01*
X86082502Y29884852D01*
X86653931Y30551519D02*
X86749169Y30551519D01*
X86844407Y30503900D01*
X86892026Y30456280D01*
X86939645Y30361042D01*
X86987264Y30170566D01*
X86987264Y29932471D01*
X86939645Y29741995D01*
X86892026Y29646757D01*
X86844407Y29599138D01*
X86749169Y29551519D01*
X86653931Y29551519D01*
X86558693Y29599138D01*
X86511074Y29646757D01*
X86463455Y29741995D01*
X86415836Y29932471D01*
X86415836Y30170566D01*
X86463455Y30361042D01*
X86511074Y30456280D01*
X86558693Y30503900D01*
X86653931Y30551519D01*
%TO.C,D36*%
X70223514Y29551519D02*
X70223514Y30551519D01*
X70461609Y30551519D01*
X70604466Y30503900D01*
X70699704Y30408661D01*
X70747323Y30313423D01*
X70794942Y30122947D01*
X70794942Y29980090D01*
X70747323Y29789614D01*
X70699704Y29694376D01*
X70604466Y29599138D01*
X70461609Y29551519D01*
X70223514Y29551519D01*
X71128276Y30551519D02*
X71747323Y30551519D01*
X71413990Y30170566D01*
X71556847Y30170566D01*
X71652085Y30122947D01*
X71699704Y30075328D01*
X71747323Y29980090D01*
X71747323Y29741995D01*
X71699704Y29646757D01*
X71652085Y29599138D01*
X71556847Y29551519D01*
X71271133Y29551519D01*
X71175895Y29599138D01*
X71128276Y29646757D01*
X72604466Y30551519D02*
X72413990Y30551519D01*
X72318752Y30503900D01*
X72271133Y30456280D01*
X72175895Y30313423D01*
X72128276Y30122947D01*
X72128276Y29741995D01*
X72175895Y29646757D01*
X72223514Y29599138D01*
X72318752Y29551519D01*
X72509228Y29551519D01*
X72604466Y29599138D01*
X72652085Y29646757D01*
X72699704Y29741995D01*
X72699704Y29980090D01*
X72652085Y30075328D01*
X72604466Y30122947D01*
X72509228Y30170566D01*
X72318752Y30170566D01*
X72223514Y30122947D01*
X72175895Y30075328D01*
X72128276Y29980090D01*
%TO.C,D32*%
X55935954Y29551519D02*
X55935954Y30551519D01*
X56174049Y30551519D01*
X56316906Y30503900D01*
X56412144Y30408661D01*
X56459763Y30313423D01*
X56507382Y30122947D01*
X56507382Y29980090D01*
X56459763Y29789614D01*
X56412144Y29694376D01*
X56316906Y29599138D01*
X56174049Y29551519D01*
X55935954Y29551519D01*
X56840716Y30551519D02*
X57459763Y30551519D01*
X57126430Y30170566D01*
X57269287Y30170566D01*
X57364525Y30122947D01*
X57412144Y30075328D01*
X57459763Y29980090D01*
X57459763Y29741995D01*
X57412144Y29646757D01*
X57364525Y29599138D01*
X57269287Y29551519D01*
X56983573Y29551519D01*
X56888335Y29599138D01*
X56840716Y29646757D01*
X57840716Y30456280D02*
X57888335Y30503900D01*
X57983573Y30551519D01*
X58221668Y30551519D01*
X58316906Y30503900D01*
X58364525Y30456280D01*
X58412144Y30361042D01*
X58412144Y30265804D01*
X58364525Y30122947D01*
X57793097Y29551519D01*
X58412144Y29551519D01*
%TO.C,D28*%
X41648394Y29551519D02*
X41648394Y30551519D01*
X41886489Y30551519D01*
X42029346Y30503900D01*
X42124584Y30408661D01*
X42172203Y30313423D01*
X42219822Y30122947D01*
X42219822Y29980090D01*
X42172203Y29789614D01*
X42124584Y29694376D01*
X42029346Y29599138D01*
X41886489Y29551519D01*
X41648394Y29551519D01*
X42600775Y30456280D02*
X42648394Y30503900D01*
X42743632Y30551519D01*
X42981727Y30551519D01*
X43076965Y30503900D01*
X43124584Y30456280D01*
X43172203Y30361042D01*
X43172203Y30265804D01*
X43124584Y30122947D01*
X42553156Y29551519D01*
X43172203Y29551519D01*
X43743632Y30122947D02*
X43648394Y30170566D01*
X43600775Y30218185D01*
X43553156Y30313423D01*
X43553156Y30361042D01*
X43600775Y30456280D01*
X43648394Y30503900D01*
X43743632Y30551519D01*
X43934108Y30551519D01*
X44029346Y30503900D01*
X44076965Y30456280D01*
X44124584Y30361042D01*
X44124584Y30313423D01*
X44076965Y30218185D01*
X44029346Y30170566D01*
X43934108Y30122947D01*
X43743632Y30122947D01*
X43648394Y30075328D01*
X43600775Y30027709D01*
X43553156Y29932471D01*
X43553156Y29741995D01*
X43600775Y29646757D01*
X43648394Y29599138D01*
X43743632Y29551519D01*
X43934108Y29551519D01*
X44029346Y29599138D01*
X44076965Y29646757D01*
X44124584Y29741995D01*
X44124584Y29932471D01*
X44076965Y30027709D01*
X44029346Y30075328D01*
X43934108Y30122947D01*
%TO.C,D25*%
X30932724Y29551519D02*
X30932724Y30551519D01*
X31170819Y30551519D01*
X31313676Y30503900D01*
X31408914Y30408661D01*
X31456533Y30313423D01*
X31504152Y30122947D01*
X31504152Y29980090D01*
X31456533Y29789614D01*
X31408914Y29694376D01*
X31313676Y29599138D01*
X31170819Y29551519D01*
X30932724Y29551519D01*
X31885105Y30456280D02*
X31932724Y30503900D01*
X32027962Y30551519D01*
X32266057Y30551519D01*
X32361295Y30503900D01*
X32408914Y30456280D01*
X32456533Y30361042D01*
X32456533Y30265804D01*
X32408914Y30122947D01*
X31837486Y29551519D01*
X32456533Y29551519D01*
X33361295Y30551519D02*
X32885105Y30551519D01*
X32837486Y30075328D01*
X32885105Y30122947D01*
X32980343Y30170566D01*
X33218438Y30170566D01*
X33313676Y30122947D01*
X33361295Y30075328D01*
X33408914Y29980090D01*
X33408914Y29741995D01*
X33361295Y29646757D01*
X33313676Y29599138D01*
X33218438Y29551519D01*
X32980343Y29551519D01*
X32885105Y29599138D01*
X32837486Y29646757D01*
%TO.C,D21*%
X16645164Y29551519D02*
X16645164Y30551519D01*
X16883259Y30551519D01*
X17026116Y30503900D01*
X17121354Y30408661D01*
X17168973Y30313423D01*
X17216592Y30122947D01*
X17216592Y29980090D01*
X17168973Y29789614D01*
X17121354Y29694376D01*
X17026116Y29599138D01*
X16883259Y29551519D01*
X16645164Y29551519D01*
X17597545Y30456280D02*
X17645164Y30503900D01*
X17740402Y30551519D01*
X17978497Y30551519D01*
X18073735Y30503900D01*
X18121354Y30456280D01*
X18168973Y30361042D01*
X18168973Y30265804D01*
X18121354Y30122947D01*
X17549926Y29551519D01*
X18168973Y29551519D01*
X19121354Y29551519D02*
X18549926Y29551519D01*
X18835640Y29551519D02*
X18835640Y30551519D01*
X18740402Y30408661D01*
X18645164Y30313423D01*
X18549926Y30265804D01*
%TO.C,D17*%
X2357604Y29551519D02*
X2357604Y30551519D01*
X2595699Y30551519D01*
X2738556Y30503900D01*
X2833794Y30408661D01*
X2881413Y30313423D01*
X2929032Y30122947D01*
X2929032Y29980090D01*
X2881413Y29789614D01*
X2833794Y29694376D01*
X2738556Y29599138D01*
X2595699Y29551519D01*
X2357604Y29551519D01*
X3881413Y29551519D02*
X3309985Y29551519D01*
X3595699Y29551519D02*
X3595699Y30551519D01*
X3500461Y30408661D01*
X3405223Y30313423D01*
X3309985Y30265804D01*
X4214747Y30551519D02*
X4881413Y30551519D01*
X4452842Y29551519D01*
%TO.C,D13*%
X-11929955Y29551519D02*
X-11929955Y30551519D01*
X-11691860Y30551519D01*
X-11549003Y30503900D01*
X-11453765Y30408661D01*
X-11406146Y30313423D01*
X-11358527Y30122947D01*
X-11358527Y29980090D01*
X-11406146Y29789614D01*
X-11453765Y29694376D01*
X-11549003Y29599138D01*
X-11691860Y29551519D01*
X-11929955Y29551519D01*
X-10406146Y29551519D02*
X-10977574Y29551519D01*
X-10691860Y29551519D02*
X-10691860Y30551519D01*
X-10787098Y30408661D01*
X-10882336Y30313423D01*
X-10977574Y30265804D01*
X-10072812Y30551519D02*
X-9453765Y30551519D01*
X-9787098Y30170566D01*
X-9644241Y30170566D01*
X-9549003Y30122947D01*
X-9501384Y30075328D01*
X-9453765Y29980090D01*
X-9453765Y29741995D01*
X-9501384Y29646757D01*
X-9549003Y29599138D01*
X-9644241Y29551519D01*
X-9929955Y29551519D01*
X-10025193Y29599138D01*
X-10072812Y29646757D01*
%TO.C,D9*%
X-25741325Y29551519D02*
X-25741325Y30551519D01*
X-25503230Y30551519D01*
X-25360372Y30503900D01*
X-25265134Y30408661D01*
X-25217515Y30313423D01*
X-25169896Y30122947D01*
X-25169896Y29980090D01*
X-25217515Y29789614D01*
X-25265134Y29694376D01*
X-25360372Y29599138D01*
X-25503230Y29551519D01*
X-25741325Y29551519D01*
X-24693706Y29551519D02*
X-24503230Y29551519D01*
X-24407991Y29599138D01*
X-24360372Y29646757D01*
X-24265134Y29789614D01*
X-24217515Y29980090D01*
X-24217515Y30361042D01*
X-24265134Y30456280D01*
X-24312753Y30503900D01*
X-24407991Y30551519D01*
X-24598468Y30551519D01*
X-24693706Y30503900D01*
X-24741325Y30456280D01*
X-24788944Y30361042D01*
X-24788944Y30122947D01*
X-24741325Y30027709D01*
X-24693706Y29980090D01*
X-24598468Y29932471D01*
X-24407991Y29932471D01*
X-24312753Y29980090D01*
X-24265134Y30027709D01*
X-24217515Y30122947D01*
%TO.C,D5*%
X-40028885Y29551519D02*
X-40028885Y30551519D01*
X-39790790Y30551519D01*
X-39647932Y30503900D01*
X-39552694Y30408661D01*
X-39505075Y30313423D01*
X-39457456Y30122947D01*
X-39457456Y29980090D01*
X-39505075Y29789614D01*
X-39552694Y29694376D01*
X-39647932Y29599138D01*
X-39790790Y29551519D01*
X-40028885Y29551519D01*
X-38552694Y30551519D02*
X-39028885Y30551519D01*
X-39076504Y30075328D01*
X-39028885Y30122947D01*
X-38933647Y30170566D01*
X-38695551Y30170566D01*
X-38600313Y30122947D01*
X-38552694Y30075328D01*
X-38505075Y29980090D01*
X-38505075Y29741995D01*
X-38552694Y29646757D01*
X-38600313Y29599138D01*
X-38695551Y29551519D01*
X-38933647Y29551519D01*
X-39028885Y29599138D01*
X-39076504Y29646757D01*
%TO.C,LED1*%
X-61761807Y29884889D02*
X-62237998Y29884889D01*
X-62237998Y30884889D01*
X-61428474Y30408698D02*
X-61095140Y30408698D01*
X-60952283Y29884889D02*
X-61428474Y29884889D01*
X-61428474Y30884889D01*
X-60952283Y30884889D01*
X-60523712Y29884889D02*
X-60523712Y30884889D01*
X-60285617Y30884889D01*
X-60142760Y30837270D01*
X-60047521Y30742031D01*
X-59999902Y30646793D01*
X-59952283Y30456317D01*
X-59952283Y30313460D01*
X-59999902Y30122984D01*
X-60047521Y30027746D01*
X-60142760Y29932508D01*
X-60285617Y29884889D01*
X-60523712Y29884889D01*
X-58999902Y29884889D02*
X-59571331Y29884889D01*
X-59285617Y29884889D02*
X-59285617Y30884889D01*
X-59380855Y30742031D01*
X-59476093Y30646793D01*
X-59571331Y30599174D01*
%TD*%
M02*
