M48
; DRILL file {KiCad (5.1.12)-1} date 01/30/22 22:31:36
; FORMAT={-:-/ absolute / metric / decimal}
; #@! TF.CreationDate,2022-01-30T22:31:36-08:00
; #@! TF.GenerationSoftware,Kicad,Pcbnew,(5.1.12)-1
; #@! TF.FileFunction,Plated,1,2,PTH
FMAT,2
METRIC
T1C0.400
T2C0.700
T3C0.800
T4C0.900
T5C1.016
T6C1.100
T7C1.500
%
G90
G05
T1
X-50.006Y45.244
X-50.006Y42.863
X-46.435Y46.435
X-46.435Y42.863
X-42.863Y47.625
X-42.863Y42.863
X-35.719Y45.244
X-35.719Y42.863
X-32.147Y46.435
X-32.147Y42.863
X-28.575Y47.625
X-28.575Y42.863
X-21.431Y45.244
X-21.431Y42.863
X-17.859Y46.435
X-17.859Y42.863
X-14.288Y47.625
X-14.288Y42.863
X-7.144Y45.244
X-7.144Y42.863
X-3.572Y46.435
X-3.572Y42.863
X0.0Y47.625
X0.0Y42.863
X7.144Y45.244
X7.144Y42.863
X10.716Y46.435
X10.716Y42.863
X14.288Y47.625
X14.288Y42.863
X21.431Y45.244
X21.431Y42.863
X25.003Y46.435
X25.003Y42.863
X28.575Y47.625
X28.575Y42.863
X35.719Y45.244
X35.719Y42.863
X39.291Y46.435
X39.291Y42.863
X46.435Y45.244
X46.435Y42.863
X50.006Y46.435
X50.006Y42.863
X53.578Y47.625
X53.578Y42.863
X60.722Y45.244
X60.722Y42.863
X64.294Y46.435
X64.294Y42.863
X67.866Y47.625
X67.866Y42.863
X75.01Y45.244
X75.01Y42.863
X78.582Y46.435
X78.582Y42.863
X82.153Y47.625
X82.153Y42.863
X89.297Y45.244
X89.297Y42.863
X92.869Y46.435
X92.869Y42.863
X96.441Y47.625
X96.441Y42.863
T2
X-53.578Y39.619
X-53.578Y31.819
X-50.006Y39.619
X-50.006Y31.819
X-46.435Y39.619
X-46.435Y31.819
X-42.863Y39.619
X-42.863Y31.819
X-39.291Y39.619
X-39.291Y31.819
X-35.719Y39.619
X-35.719Y31.819
X-32.147Y39.619
X-32.147Y31.819
X-28.575Y39.619
X-28.575Y31.819
X-25.003Y39.619
X-25.003Y31.819
X-21.431Y39.619
X-21.431Y31.819
X-17.859Y39.619
X-17.859Y31.819
X-14.288Y39.619
X-14.288Y31.819
X-10.716Y39.619
X-10.716Y31.819
X-7.144Y39.619
X-7.144Y31.819
X-3.572Y39.619
X-3.572Y31.819
X0.0Y39.619
X0.0Y31.819
X3.572Y39.619
X3.572Y31.819
X7.144Y39.619
X7.144Y31.819
X10.716Y39.619
X10.716Y31.819
X14.288Y39.619
X14.288Y31.819
X17.859Y39.619
X17.859Y31.819
X21.431Y39.619
X21.431Y31.819
X25.003Y39.619
X25.003Y31.819
X28.575Y39.619
X28.575Y31.819
X32.147Y39.619
X32.147Y31.819
X35.719Y39.619
X35.719Y31.819
X39.291Y39.619
X39.291Y31.819
X42.863Y39.619
X42.863Y31.819
X46.435Y39.619
X46.435Y31.819
X50.006Y39.619
X50.006Y31.819
X53.578Y39.619
X53.578Y31.819
X57.15Y39.619
X57.15Y31.819
X60.722Y39.619
X60.722Y31.819
X64.294Y39.619
X64.294Y31.819
X67.866Y39.619
X67.866Y31.819
X71.438Y39.619
X71.438Y31.819
X75.01Y39.619
X75.01Y31.819
X78.582Y39.619
X78.582Y31.819
X82.153Y39.619
X82.153Y31.819
X85.725Y39.619
X85.725Y31.819
X89.297Y39.619
X89.297Y31.819
X92.869Y39.619
X92.869Y31.819
X96.441Y39.619
X96.441Y31.819
X100.013Y39.619
X100.013Y31.819
X103.585Y39.619
X103.585Y31.819
X107.157Y39.619
X107.157Y31.819
X110.729Y39.619
X110.729Y31.819
T3
X-76.2Y46.435
X-76.2Y32.147
X-66.04Y46.435
X-66.04Y32.147
T4
X-61.913Y44.053
X-61.913Y34.528
X-59.373Y44.053
X-59.373Y34.528
T5
X-110.332Y46.911
X-110.332Y31.671
X-107.792Y46.911
X-107.792Y31.671
X-105.252Y46.911
X-105.252Y31.671
X-102.712Y46.911
X-102.712Y31.671
X-100.172Y46.911
X-100.172Y31.671
X-97.632Y46.911
X-97.632Y31.671
X-95.092Y46.911
X-95.092Y31.671
X-92.552Y46.911
X-92.552Y31.671
X-90.012Y46.911
X-90.012Y31.671
X-87.472Y46.911
X-87.472Y31.671
X-84.932Y46.911
X-84.932Y31.671
X-82.392Y46.911
X-82.392Y31.671
T6
X-75.557Y41.548
X-75.557Y37.048
X-69.057Y41.548
X-69.057Y37.048
T7
X-108.585Y21.59
X-108.585Y2.54
X-108.585Y-16.51
X-108.585Y-35.56
X-102.235Y24.13
X-102.235Y5.08
X-102.235Y-13.97
X-102.235Y-33.02
X-89.535Y21.59
X-89.535Y2.54
X-89.535Y-16.51
X-89.535Y-35.56
X-83.185Y24.13
X-83.185Y5.08
X-83.185Y-13.97
X-83.185Y-33.02
X-70.485Y21.59
X-70.485Y2.54
X-70.485Y-16.51
X-70.485Y-35.56
X-64.135Y24.13
X-64.135Y5.08
X-64.135Y-13.97
X-64.135Y-33.02
X-51.435Y21.59
X-51.435Y2.54
X-51.435Y-16.51
X-51.435Y-35.56
X-45.085Y24.13
X-45.085Y5.08
X-45.085Y-13.97
X-45.085Y-33.02
X-32.385Y21.59
X-32.385Y2.54
X-32.385Y-16.51
X-32.385Y-35.56
X-26.035Y24.13
X-26.035Y5.08
X-26.035Y-13.97
X-26.035Y-33.02
X-13.335Y21.59
X-13.335Y2.54
X-13.335Y-16.51
X-6.985Y24.13
X-6.985Y5.08
X-6.985Y-13.97
X-3.81Y-35.56
X2.54Y-33.02
X5.715Y21.59
X5.715Y2.54
X5.715Y-16.51
X12.065Y24.13
X12.065Y5.08
X12.065Y-13.97
X24.765Y21.59
X24.765Y2.54
X24.765Y-16.51
X24.765Y-35.56
X31.115Y24.13
X31.115Y5.08
X31.115Y-13.97
X31.115Y-33.02
X43.815Y21.59
X43.815Y2.54
X43.815Y-16.51
X43.815Y-35.56
X50.165Y24.13
X50.165Y5.08
X50.165Y-13.97
X50.165Y-33.02
X62.865Y21.59
X62.865Y2.54
X62.865Y-16.51
X62.865Y-35.56
X69.215Y24.13
X69.215Y5.08
X69.215Y-13.97
X69.215Y-33.02
X81.915Y21.59
X81.915Y2.54
X81.915Y-16.51
X81.915Y-35.56
X88.265Y24.13
X88.265Y5.08
X88.265Y-13.97
X88.265Y-33.02
X100.965Y21.59
X100.965Y2.54
X100.965Y-16.51
X100.965Y-35.56
X107.315Y24.13
X107.315Y5.08
X107.315Y-13.97
X107.315Y-33.02
T0
M30
