M48
; DRILL file {KiCad (5.1.12)-1} date 01/30/22 22:31:36
; FORMAT={-:-/ absolute / metric / decimal}
; #@! TF.CreationDate,2022-01-30T22:31:36-08:00
; #@! TF.GenerationSoftware,Kicad,Pcbnew,(5.1.12)-1
; #@! TF.FileFunction,NonPlated,1,2,NPTH
FMAT,2
METRIC
T1C1.700
T2C1.750
T3C3.048
T4C3.988
T5C4.000
%
G90
G05
T1
X-109.855Y19.05
X-109.855Y0.0
X-109.855Y-19.05
X-109.855Y-38.1
X-99.695Y19.05
X-99.695Y0.0
X-99.695Y-19.05
X-99.695Y-38.1
X-90.805Y19.05
X-90.805Y0.0
X-90.805Y-19.05
X-90.805Y-38.1
X-80.645Y19.05
X-80.645Y0.0
X-80.645Y-19.05
X-80.645Y-38.1
X-71.755Y19.05
X-71.755Y0.0
X-71.755Y-19.05
X-71.755Y-38.1
X-61.595Y19.05
X-61.595Y0.0
X-61.595Y-19.05
X-61.595Y-38.1
X-52.705Y19.05
X-52.705Y0.0
X-52.705Y-19.05
X-52.705Y-38.1
X-42.545Y19.05
X-42.545Y0.0
X-42.545Y-19.05
X-42.545Y-38.1
X-33.655Y19.05
X-33.655Y0.0
X-33.655Y-19.05
X-33.655Y-38.1
X-23.495Y19.05
X-23.495Y0.0
X-23.495Y-19.05
X-23.495Y-38.1
X-14.605Y19.05
X-14.605Y0.0
X-14.605Y-19.05
X-4.445Y19.05
X-4.445Y0.0
X-4.445Y-19.05
X4.445Y19.05
X4.445Y0.0
X4.445Y-19.05
X14.605Y19.05
X14.605Y0.0
X14.605Y-19.05
X23.495Y19.05
X23.495Y0.0
X23.495Y-19.05
X23.495Y-38.1
X33.655Y19.05
X33.655Y0.0
X33.655Y-19.05
X33.655Y-38.1
X42.545Y19.05
X42.545Y0.0
X42.545Y-19.05
X42.545Y-38.1
X52.705Y19.05
X52.705Y0.0
X52.705Y-19.05
X52.705Y-38.1
X61.595Y19.05
X61.595Y0.0
X61.595Y-19.05
X61.595Y-38.1
X71.755Y19.05
X71.755Y0.0
X71.755Y-19.05
X71.755Y-38.1
X80.645Y19.05
X80.645Y0.0
X80.645Y-19.05
X80.645Y-38.1
X90.805Y19.05
X90.805Y0.0
X90.805Y-19.05
X90.805Y-38.1
X99.695Y19.05
X99.695Y0.0
X99.695Y-19.05
X99.695Y-38.1
X109.855Y19.05
X109.855Y0.0
X109.855Y-19.05
X109.855Y-38.1
T2
X-5.08Y-38.1
X5.08Y-38.1
T3
X-11.938Y-31.115
X11.938Y-31.115
T4
X-11.938Y-46.325
X11.938Y-46.325
T5
X-104.775Y19.05
X-104.775Y0.0
X-104.775Y-19.05
X-104.775Y-38.1
X-85.725Y19.05
X-85.725Y0.0
X-85.725Y-19.05
X-85.725Y-38.1
X-66.675Y19.05
X-66.675Y0.0
X-66.675Y-19.05
X-66.675Y-38.1
X-47.625Y19.05
X-47.625Y0.0
X-47.625Y-19.05
X-47.625Y-38.1
X-28.575Y19.05
X-28.575Y0.0
X-28.575Y-19.05
X-28.575Y-38.1
X-9.525Y19.05
X-9.525Y0.0
X-9.525Y-19.05
X0.0Y-38.1
X9.525Y19.05
X9.525Y0.0
X9.525Y-19.05
X28.575Y19.05
X28.575Y0.0
X28.575Y-19.05
X28.575Y-38.1
X47.625Y19.05
X47.625Y0.0
X47.625Y-19.05
X47.625Y-38.1
X66.675Y19.05
X66.675Y0.0
X66.675Y-19.05
X66.675Y-38.1
X85.725Y19.05
X85.725Y0.0
X85.725Y-19.05
X85.725Y-38.1
X104.775Y19.05
X104.775Y0.0
X104.775Y-19.05
X104.775Y-38.1
T0
M30
